<?xml version="1.0" encoding="utf-8" standalone="no"?>
<!DOCTYPE svg PUBLIC "-//W3C//DTD SVG 1.1//EN"
  "http://www.w3.org/Graphics/SVG/1.1/DTD/svg11.dtd">
<svg xmlns:xlink="http://www.w3.org/1999/xlink" width="897.528125pt" height="627.77475pt" viewBox="0 0 897.528125 627.77475" xmlns="http://www.w3.org/2000/svg" version="1.1">
 <metadata>
  <rdf:RDF xmlns:dc="http://purl.org/dc/elements/1.1/" xmlns:cc="http://creativecommons.org/ns#" xmlns:rdf="http://www.w3.org/1999/02/22-rdf-syntax-ns#">
   <cc:Work>
    <dc:type rdf:resource="http://purl.org/dc/dcmitype/StillImage"/>
    <dc:date>2025-01-10T10:21:15.169683</dc:date>
    <dc:format>image/svg+xml</dc:format>
    <dc:creator>
     <cc:Agent>
      <dc:title>Matplotlib v3.9.2, https://matplotlib.org/</dc:title>
     </cc:Agent>
    </dc:creator>
   </cc:Work>
  </rdf:RDF>
 </metadata>
 <defs>
  <style type="text/css">*{stroke-linejoin: round; stroke-linecap: butt}</style>
 </defs>
 <g id="figure_1">
  <g id="patch_1">
   <path d="M 0 627.77475 
L 897.528125 627.77475 
L 897.528125 0 
L 0 0 
z
" style="fill: #ffffff"/>
  </g>
  <g id="axes_1">
   <g id="patch_2">
    <path d="M 53.328125 590.2185 
L 890.328125 590.2185 
L 890.328125 35.8185 
L 53.328125 35.8185 
z
" style="fill: #ffffff"/>
   </g>
   <g id="PatchCollection_1">
    <path d="M 75.67983 119.780832 
L 76.630966 119.780832 
L 76.630966 118.650787 
L 75.67983 118.650787 
z
" clip-path="url(#pbf73313271)" style="fill: #b4c9d9; stroke: #3f3f3f; stroke-width: 0.75"/>
    <path d="M 75.204261 118.650787 
L 77.106534 118.650787 
L 77.106534 118.650787 
L 75.204261 118.650787 
z
" clip-path="url(#pbf73313271)" style="fill: #a4bfd2; stroke: #3f3f3f; stroke-width: 0.75"/>
    <path d="M 74.253125 118.650787 
L 78.05767 118.650787 
L 78.05767 117.520742 
L 74.253125 117.520742 
z
" clip-path="url(#pbf73313271)" style="fill: #90b2ca; stroke: #3f3f3f; stroke-width: 0.75"/>
    <path d="M 72.350852 117.520742 
L 79.959943 117.520742 
L 79.959943 116.390697 
L 72.350852 116.390697 
z
" clip-path="url(#pbf73313271)" style="fill: #78a2bf; stroke: #3f3f3f; stroke-width: 0.75"/>
    <path d="M 68.546307 116.390697 
L 83.764489 116.390697 
L 83.764489 114.130608 
L 68.546307 114.130608 
z
" clip-path="url(#pbf73313271)" style="fill: #588db2; stroke: #3f3f3f; stroke-width: 0.75"/>
    <path d="M 60.937216 114.130608 
L 91.37358 114.130608 
L 91.37358 105.090249 
L 60.937216 105.090249 
z
" clip-path="url(#pbf73313271)" style="fill: #3274a1; stroke: #3f3f3f; stroke-width: 0.75"/>
    <path d="M 68.546307 105.090249 
L 83.764489 105.090249 
L 83.764489 99.440025 
L 68.546307 99.440025 
z
" clip-path="url(#pbf73313271)" style="fill: #588db2; stroke: #3f3f3f; stroke-width: 0.75"/>
    <path d="M 72.350852 99.440025 
L 79.959943 99.440025 
L 79.959943 93.7898 
L 72.350852 93.7898 
z
" clip-path="url(#pbf73313271)" style="fill: #78a2bf; stroke: #3f3f3f; stroke-width: 0.75"/>
    <path d="M 74.253125 93.7898 
L 78.05767 93.7898 
L 78.05767 85.879487 
L 74.253125 85.879487 
z
" clip-path="url(#pbf73313271)" style="fill: #90b2ca; stroke: #3f3f3f; stroke-width: 0.75"/>
    <path d="M 75.204261 85.879487 
L 77.106534 85.879487 
L 77.106534 75.709083 
L 75.204261 75.709083 
z
" clip-path="url(#pbf73313271)" style="fill: #a4bfd2; stroke: #3f3f3f; stroke-width: 0.75"/>
    <path d="M 75.67983 75.709083 
L 76.630966 75.709083 
L 76.630966 61.0185 
L 75.67983 61.0185 
z
" clip-path="url(#pbf73313271)" style="fill: #b4c9d9; stroke: #3f3f3f; stroke-width: 0.75"/>
   </g>
   <g id="PatchCollection_2">
    <path d="M 106.116193 137.861549 
L 107.06733 137.861549 
L 107.06733 136.731504 
L 106.116193 136.731504 
z
" clip-path="url(#pbf73313271)" style="fill: #edcdb2; stroke: #3f3f3f; stroke-width: 0.75"/>
    <path d="M 105.640625 136.731504 
L 107.542898 136.731504 
L 107.542898 136.731504 
L 105.640625 136.731504 
z
" clip-path="url(#pbf73313271)" style="fill: #ecc4a2; stroke: #3f3f3f; stroke-width: 0.75"/>
    <path d="M 104.689489 136.731504 
L 108.494034 136.731504 
L 108.494034 135.60146 
L 104.689489 135.60146 
z
" clip-path="url(#pbf73313271)" style="fill: #eab88d; stroke: #3f3f3f; stroke-width: 0.75"/>
    <path d="M 102.787216 135.60146 
L 110.396307 135.60146 
L 110.396307 134.471415 
L 102.787216 134.471415 
z
" clip-path="url(#pbf73313271)" style="fill: #e7aa74; stroke: #3f3f3f; stroke-width: 0.75"/>
    <path d="M 98.98267 134.471415 
L 114.200852 134.471415 
L 114.200852 132.211325 
L 98.98267 132.211325 
z
" clip-path="url(#pbf73313271)" style="fill: #e49854; stroke: #3f3f3f; stroke-width: 0.75"/>
    <path d="M 91.37358 132.211325 
L 121.809943 132.211325 
L 121.809943 124.301011 
L 91.37358 124.301011 
z
" clip-path="url(#pbf73313271)" style="fill: #e1812c; stroke: #3f3f3f; stroke-width: 0.75"/>
    <path d="M 98.98267 124.301011 
L 114.200852 124.301011 
L 114.200852 118.650787 
L 98.98267 118.650787 
z
" clip-path="url(#pbf73313271)" style="fill: #e49854; stroke: #3f3f3f; stroke-width: 0.75"/>
    <path d="M 102.787216 118.650787 
L 110.396307 118.650787 
L 110.396307 113.000563 
L 102.787216 113.000563 
z
" clip-path="url(#pbf73313271)" style="fill: #e7aa74; stroke: #3f3f3f; stroke-width: 0.75"/>
    <path d="M 104.689489 113.000563 
L 108.494034 113.000563 
L 108.494034 105.090249 
L 104.689489 105.090249 
z
" clip-path="url(#pbf73313271)" style="fill: #eab88d; stroke: #3f3f3f; stroke-width: 0.75"/>
    <path d="M 105.640625 105.090249 
L 107.542898 105.090249 
L 107.542898 93.7898 
L 105.640625 93.7898 
z
" clip-path="url(#pbf73313271)" style="fill: #ecc4a2; stroke: #3f3f3f; stroke-width: 0.75"/>
    <path d="M 106.116193 93.7898 
L 107.06733 93.7898 
L 107.06733 63.27859 
L 106.116193 63.27859 
z
" clip-path="url(#pbf73313271)" style="fill: #edcdb2; stroke: #3f3f3f; stroke-width: 0.75"/>
   </g>
   <g id="PatchCollection_3">
    <path d="M 151.770739 378.561101 
L 152.721875 378.561101 
L 152.721875 378.561101 
L 151.770739 378.561101 
z
" clip-path="url(#pbf73313271)" style="fill: #b4c9d9; stroke: #3f3f3f; stroke-width: 0.75"/>
    <path d="M 151.29517 378.561101 
L 153.197443 378.561101 
L 153.197443 377.431056 
L 151.29517 377.431056 
z
" clip-path="url(#pbf73313271)" style="fill: #a4bfd2; stroke: #3f3f3f; stroke-width: 0.75"/>
    <path d="M 150.344034 377.431056 
L 154.14858 377.431056 
L 154.14858 375.170966 
L 150.344034 375.170966 
z
" clip-path="url(#pbf73313271)" style="fill: #90b2ca; stroke: #3f3f3f; stroke-width: 0.75"/>
    <path d="M 148.441761 375.170966 
L 156.050852 375.170966 
L 156.050852 370.650787 
L 148.441761 370.650787 
z
" clip-path="url(#pbf73313271)" style="fill: #78a2bf; stroke: #3f3f3f; stroke-width: 0.75"/>
    <path d="M 144.637216 370.650787 
L 159.855398 370.650787 
L 159.855398 213.574554 
L 144.637216 213.574554 
z
" clip-path="url(#pbf73313271)" style="fill: #588db2; stroke: #3f3f3f; stroke-width: 0.75"/>
    <path d="M 137.028125 213.574554 
L 167.464489 213.574554 
L 167.464489 203.40415 
L 137.028125 203.40415 
z
" clip-path="url(#pbf73313271)" style="fill: #3274a1; stroke: #3f3f3f; stroke-width: 0.75"/>
    <path d="M 144.637216 203.40415 
L 159.855398 203.40415 
L 159.855398 198.883971 
L 144.637216 198.883971 
z
" clip-path="url(#pbf73313271)" style="fill: #588db2; stroke: #3f3f3f; stroke-width: 0.75"/>
    <path d="M 148.441761 198.883971 
L 156.050852 198.883971 
L 156.050852 194.363791 
L 148.441761 194.363791 
z
" clip-path="url(#pbf73313271)" style="fill: #78a2bf; stroke: #3f3f3f; stroke-width: 0.75"/>
    <path d="M 150.344034 194.363791 
L 154.14858 194.363791 
L 154.14858 188.713567 
L 150.344034 188.713567 
z
" clip-path="url(#pbf73313271)" style="fill: #90b2ca; stroke: #3f3f3f; stroke-width: 0.75"/>
    <path d="M 151.29517 188.713567 
L 153.197443 188.713567 
L 153.197443 179.673209 
L 151.29517 179.673209 
z
" clip-path="url(#pbf73313271)" style="fill: #a4bfd2; stroke: #3f3f3f; stroke-width: 0.75"/>
    <path d="M 151.770739 179.673209 
L 152.721875 179.673209 
L 152.721875 169.502805 
L 151.770739 169.502805 
z
" clip-path="url(#pbf73313271)" style="fill: #b4c9d9; stroke: #3f3f3f; stroke-width: 0.75"/>
   </g>
   <g id="PatchCollection_4">
    <path d="M 182.207102 393.251684 
L 183.158239 393.251684 
L 183.158239 393.251684 
L 182.207102 393.251684 
z
" clip-path="url(#pbf73313271)" style="fill: #edcdb2; stroke: #3f3f3f; stroke-width: 0.75"/>
    <path d="M 181.731534 393.251684 
L 183.633807 393.251684 
L 183.633807 392.121639 
L 181.731534 392.121639 
z
" clip-path="url(#pbf73313271)" style="fill: #ecc4a2; stroke: #3f3f3f; stroke-width: 0.75"/>
    <path d="M 180.780398 392.121639 
L 184.584943 392.121639 
L 184.584943 390.991594 
L 180.780398 390.991594 
z
" clip-path="url(#pbf73313271)" style="fill: #eab88d; stroke: #3f3f3f; stroke-width: 0.75"/>
    <path d="M 178.878125 390.991594 
L 186.487216 390.991594 
L 186.487216 387.60146 
L 178.878125 387.60146 
z
" clip-path="url(#pbf73313271)" style="fill: #e7aa74; stroke: #3f3f3f; stroke-width: 0.75"/>
    <path d="M 175.07358 387.60146 
L 190.291761 387.60146 
L 190.291761 287.027469 
L 175.07358 287.027469 
z
" clip-path="url(#pbf73313271)" style="fill: #e49854; stroke: #3f3f3f; stroke-width: 0.75"/>
    <path d="M 167.464489 287.027469 
L 197.900852 287.027469 
L 197.900852 279.117155 
L 167.464489 279.117155 
z
" clip-path="url(#pbf73313271)" style="fill: #e1812c; stroke: #3f3f3f; stroke-width: 0.75"/>
    <path d="M 175.07358 279.117155 
L 190.291761 279.117155 
L 190.291761 274.596975 
L 175.07358 274.596975 
z
" clip-path="url(#pbf73313271)" style="fill: #e49854; stroke: #3f3f3f; stroke-width: 0.75"/>
    <path d="M 178.878125 274.596975 
L 186.487216 274.596975 
L 186.487216 271.206841 
L 178.878125 271.206841 
z
" clip-path="url(#pbf73313271)" style="fill: #e7aa74; stroke: #3f3f3f; stroke-width: 0.75"/>
    <path d="M 180.780398 271.206841 
L 184.584943 271.206841 
L 184.584943 265.556617 
L 180.780398 265.556617 
z
" clip-path="url(#pbf73313271)" style="fill: #eab88d; stroke: #3f3f3f; stroke-width: 0.75"/>
    <path d="M 181.731534 265.556617 
L 183.633807 265.556617 
L 183.633807 255.386213 
L 181.731534 255.386213 
z
" clip-path="url(#pbf73313271)" style="fill: #ecc4a2; stroke: #3f3f3f; stroke-width: 0.75"/>
    <path d="M 182.207102 255.386213 
L 183.158239 255.386213 
L 183.158239 246.345854 
L 182.207102 246.345854 
z
" clip-path="url(#pbf73313271)" style="fill: #edcdb2; stroke: #3f3f3f; stroke-width: 0.75"/>
   </g>
   <g id="PatchCollection_5">
    <path d="M 227.861648 359.350339 
L 228.812784 359.350339 
L 228.812784 358.220294 
L 227.861648 358.220294 
z
" clip-path="url(#pbf73313271)" style="fill: #b4c9d9; stroke: #3f3f3f; stroke-width: 0.75"/>
    <path d="M 227.38608 358.220294 
L 229.288352 358.220294 
L 229.288352 357.090249 
L 227.38608 357.090249 
z
" clip-path="url(#pbf73313271)" style="fill: #a4bfd2; stroke: #3f3f3f; stroke-width: 0.75"/>
    <path d="M 226.434943 357.090249 
L 230.239489 357.090249 
L 230.239489 355.960204 
L 226.434943 355.960204 
z
" clip-path="url(#pbf73313271)" style="fill: #90b2ca; stroke: #3f3f3f; stroke-width: 0.75"/>
    <path d="M 224.53267 355.960204 
L 232.141761 355.960204 
L 232.141761 354.830159 
L 224.53267 354.830159 
z
" clip-path="url(#pbf73313271)" style="fill: #78a2bf; stroke: #3f3f3f; stroke-width: 0.75"/>
    <path d="M 220.728125 354.830159 
L 235.946307 354.830159 
L 235.946307 353.700114 
L 220.728125 353.700114 
z
" clip-path="url(#pbf73313271)" style="fill: #588db2; stroke: #3f3f3f; stroke-width: 0.75"/>
    <path d="M 213.119034 353.700114 
L 243.555398 353.700114 
L 243.555398 344.659756 
L 213.119034 344.659756 
z
" clip-path="url(#pbf73313271)" style="fill: #3274a1; stroke: #3f3f3f; stroke-width: 0.75"/>
    <path d="M 220.728125 344.659756 
L 235.946307 344.659756 
L 235.946307 336.749442 
L 220.728125 336.749442 
z
" clip-path="url(#pbf73313271)" style="fill: #588db2; stroke: #3f3f3f; stroke-width: 0.75"/>
    <path d="M 224.53267 336.749442 
L 232.141761 336.749442 
L 232.141761 322.058859 
L 224.53267 322.058859 
z
" clip-path="url(#pbf73313271)" style="fill: #78a2bf; stroke: #3f3f3f; stroke-width: 0.75"/>
    <path d="M 226.434943 322.058859 
L 230.239489 322.058859 
L 230.239489 300.588007 
L 226.434943 300.588007 
z
" clip-path="url(#pbf73313271)" style="fill: #90b2ca; stroke: #3f3f3f; stroke-width: 0.75"/>
    <path d="M 227.38608 300.588007 
L 229.288352 300.588007 
L 229.288352 248.605944 
L 227.38608 248.605944 
z
" clip-path="url(#pbf73313271)" style="fill: #a4bfd2; stroke: #3f3f3f; stroke-width: 0.75"/>
    <path d="M 227.861648 248.605944 
L 228.812784 248.605944 
L 228.812784 207.986129 
L 227.861648 207.986129 
z
" clip-path="url(#pbf73313271)" style="fill: #b4c9d9; stroke: #3f3f3f; stroke-width: 0.75"/>
   </g>
   <g id="PatchCollection_6">
    <path d="M 258.298011 410.202357 
L 259.249148 410.202357 
L 259.249148 410.202357 
L 258.298011 410.202357 
z
" clip-path="url(#pbf73313271)" style="fill: #edcdb2; stroke: #3f3f3f; stroke-width: 0.75"/>
    <path d="M 257.822443 410.202357 
L 259.724716 410.202357 
L 259.724716 409.072312 
L 257.822443 409.072312 
z
" clip-path="url(#pbf73313271)" style="fill: #ecc4a2; stroke: #3f3f3f; stroke-width: 0.75"/>
    <path d="M 256.871307 409.072312 
L 260.675852 409.072312 
L 260.675852 409.072312 
L 256.871307 409.072312 
z
" clip-path="url(#pbf73313271)" style="fill: #eab88d; stroke: #3f3f3f; stroke-width: 0.75"/>
    <path d="M 254.969034 409.072312 
L 262.578125 409.072312 
L 262.578125 407.942267 
L 254.969034 407.942267 
z
" clip-path="url(#pbf73313271)" style="fill: #e7aa74; stroke: #3f3f3f; stroke-width: 0.75"/>
    <path d="M 251.164489 407.942267 
L 266.38267 407.942267 
L 266.38267 406.812222 
L 251.164489 406.812222 
z
" clip-path="url(#pbf73313271)" style="fill: #e49854; stroke: #3f3f3f; stroke-width: 0.75"/>
    <path d="M 243.555398 406.812222 
L 273.991761 406.812222 
L 273.991761 400.031953 
L 243.555398 400.031953 
z
" clip-path="url(#pbf73313271)" style="fill: #e1812c; stroke: #3f3f3f; stroke-width: 0.75"/>
    <path d="M 251.164489 400.031953 
L 266.38267 400.031953 
L 266.38267 395.511774 
L 251.164489 395.511774 
z
" clip-path="url(#pbf73313271)" style="fill: #e49854; stroke: #3f3f3f; stroke-width: 0.75"/>
    <path d="M 254.969034 395.511774 
L 262.578125 395.511774 
L 262.578125 392.121639 
L 254.969034 392.121639 
z
" clip-path="url(#pbf73313271)" style="fill: #e7aa74; stroke: #3f3f3f; stroke-width: 0.75"/>
    <path d="M 256.871307 392.121639 
L 260.675852 392.121639 
L 260.675852 385.34137 
L 256.871307 385.34137 
z
" clip-path="url(#pbf73313271)" style="fill: #eab88d; stroke: #3f3f3f; stroke-width: 0.75"/>
    <path d="M 257.822443 385.34137 
L 259.724716 385.34137 
L 259.724716 370.774386 
L 257.822443 370.774386 
z
" clip-path="url(#pbf73313271)" style="fill: #ecc4a2; stroke: #3f3f3f; stroke-width: 0.75"/>
    <path d="M 258.298011 370.774386 
L 259.249148 370.774386 
L 259.249148 343.529711 
L 258.298011 343.529711 
z
" clip-path="url(#pbf73313271)" style="fill: #edcdb2; stroke: #3f3f3f; stroke-width: 0.75"/>
   </g>
   <g id="PatchCollection_7">
    <path d="M 303.952557 428.283074 
L 304.903693 428.283074 
L 304.903693 427.153029 
L 303.952557 427.153029 
z
" clip-path="url(#pbf73313271)" style="fill: #b4c9d9; stroke: #3f3f3f; stroke-width: 0.75"/>
    <path d="M 303.476989 427.153029 
L 305.379261 427.153029 
L 305.379261 426.022984 
L 303.476989 426.022984 
z
" clip-path="url(#pbf73313271)" style="fill: #a4bfd2; stroke: #3f3f3f; stroke-width: 0.75"/>
    <path d="M 302.525852 426.022984 
L 306.330398 426.022984 
L 306.330398 423.762895 
L 302.525852 423.762895 
z
" clip-path="url(#pbf73313271)" style="fill: #90b2ca; stroke: #3f3f3f; stroke-width: 0.75"/>
    <path d="M 300.62358 423.762895 
L 308.23267 423.762895 
L 308.23267 420.37276 
L 300.62358 420.37276 
z
" clip-path="url(#pbf73313271)" style="fill: #78a2bf; stroke: #3f3f3f; stroke-width: 0.75"/>
    <path d="M 296.819034 420.37276 
L 312.037216 420.37276 
L 312.037216 402.292043 
L 296.819034 402.292043 
z
" clip-path="url(#pbf73313271)" style="fill: #588db2; stroke: #3f3f3f; stroke-width: 0.75"/>
    <path d="M 289.209943 402.292043 
L 319.646307 402.292043 
L 319.646307 390.991594 
L 289.209943 390.991594 
z
" clip-path="url(#pbf73313271)" style="fill: #3274a1; stroke: #3f3f3f; stroke-width: 0.75"/>
    <path d="M 296.819034 390.991594 
L 312.037216 390.991594 
L 312.037216 384.211325 
L 296.819034 384.211325 
z
" clip-path="url(#pbf73313271)" style="fill: #588db2; stroke: #3f3f3f; stroke-width: 0.75"/>
    <path d="M 300.62358 384.211325 
L 308.23267 384.211325 
L 308.23267 371.780832 
L 300.62358 371.780832 
z
" clip-path="url(#pbf73313271)" style="fill: #78a2bf; stroke: #3f3f3f; stroke-width: 0.75"/>
    <path d="M 302.525852 371.780832 
L 306.330398 371.780832 
L 306.330398 339.256729 
L 302.525852 339.256729 
z
" clip-path="url(#pbf73313271)" style="fill: #90b2ca; stroke: #3f3f3f; stroke-width: 0.75"/>
    <path d="M 303.476989 339.256729 
L 305.379261 339.256729 
L 305.379261 266.686661 
L 303.476989 266.686661 
z
" clip-path="url(#pbf73313271)" style="fill: #a4bfd2; stroke: #3f3f3f; stroke-width: 0.75"/>
    <path d="M 303.952557 266.686661 
L 304.903693 266.686661 
L 304.903693 232.970714 
L 303.952557 232.970714 
z
" clip-path="url(#pbf73313271)" style="fill: #b4c9d9; stroke: #3f3f3f; stroke-width: 0.75"/>
   </g>
   <g id="PatchCollection_8">
    <path d="M 334.38892 470.094733 
L 335.340057 470.094733 
L 335.340057 470.094733 
L 334.38892 470.094733 
z
" clip-path="url(#pbf73313271)" style="fill: #edcdb2; stroke: #3f3f3f; stroke-width: 0.75"/>
    <path d="M 333.913352 470.094733 
L 335.815625 470.094733 
L 335.815625 468.964688 
L 333.913352 468.964688 
z
" clip-path="url(#pbf73313271)" style="fill: #ecc4a2; stroke: #3f3f3f; stroke-width: 0.75"/>
    <path d="M 332.962216 468.964688 
L 336.766761 468.964688 
L 336.766761 466.704599 
L 332.962216 466.704599 
z
" clip-path="url(#pbf73313271)" style="fill: #eab88d; stroke: #3f3f3f; stroke-width: 0.75"/>
    <path d="M 331.059943 466.704599 
L 338.669034 466.704599 
L 338.669034 463.314464 
L 331.059943 463.314464 
z
" clip-path="url(#pbf73313271)" style="fill: #e7aa74; stroke: #3f3f3f; stroke-width: 0.75"/>
    <path d="M 327.255398 463.314464 
L 342.47358 463.314464 
L 342.47358 457.66424 
L 327.255398 457.66424 
z
" clip-path="url(#pbf73313271)" style="fill: #e49854; stroke: #3f3f3f; stroke-width: 0.75"/>
    <path d="M 319.646307 457.66424 
L 350.08267 457.66424 
L 350.08267 452.014016 
L 319.646307 452.014016 
z
" clip-path="url(#pbf73313271)" style="fill: #e1812c; stroke: #3f3f3f; stroke-width: 0.75"/>
    <path d="M 327.255398 452.014016 
L 342.47358 452.014016 
L 342.47358 447.493836 
L 327.255398 447.493836 
z
" clip-path="url(#pbf73313271)" style="fill: #e49854; stroke: #3f3f3f; stroke-width: 0.75"/>
    <path d="M 331.059943 447.493836 
L 338.669034 447.493836 
L 338.669034 442.973657 
L 331.059943 442.973657 
z
" clip-path="url(#pbf73313271)" style="fill: #e7aa74; stroke: #3f3f3f; stroke-width: 0.75"/>
    <path d="M 332.962216 442.973657 
L 336.766761 442.973657 
L 336.766761 437.323433 
L 332.962216 437.323433 
z
" clip-path="url(#pbf73313271)" style="fill: #eab88d; stroke: #3f3f3f; stroke-width: 0.75"/>
    <path d="M 333.913352 437.323433 
L 335.815625 437.323433 
L 335.815625 420.37276 
L 333.913352 420.37276 
z
" clip-path="url(#pbf73313271)" style="fill: #ecc4a2; stroke: #3f3f3f; stroke-width: 0.75"/>
    <path d="M 334.38892 420.37276 
L 335.340057 420.37276 
L 335.340057 366.130608 
L 334.38892 366.130608 
z
" clip-path="url(#pbf73313271)" style="fill: #edcdb2; stroke: #3f3f3f; stroke-width: 0.75"/>
   </g>
   <g id="PatchCollection_9">
    <path d="M 380.043466 536.767379 
L 380.994602 536.767379 
L 380.994602 534.507289 
L 380.043466 534.507289 
z
" clip-path="url(#pbf73313271)" style="fill: #b4c9d9; stroke: #3f3f3f; stroke-width: 0.75"/>
    <path d="M 379.567898 534.507289 
L 381.47017 534.507289 
L 381.47017 488.175451 
L 379.567898 488.175451 
z
" clip-path="url(#pbf73313271)" style="fill: #a4bfd2; stroke: #3f3f3f; stroke-width: 0.75"/>
    <path d="M 378.616761 488.175451 
L 382.421307 488.175451 
L 382.421307 452.649666 
L 378.616761 452.649666 
z
" clip-path="url(#pbf73313271)" style="fill: #90b2ca; stroke: #3f3f3f; stroke-width: 0.75"/>
    <path d="M 376.714489 452.649666 
L 384.32358 452.649666 
L 384.32358 449.753926 
L 376.714489 449.753926 
z
" clip-path="url(#pbf73313271)" style="fill: #78a2bf; stroke: #3f3f3f; stroke-width: 0.75"/>
    <path d="M 372.909943 449.753926 
L 388.128125 449.753926 
L 388.128125 446.363791 
L 372.909943 446.363791 
z
" clip-path="url(#pbf73313271)" style="fill: #588db2; stroke: #3f3f3f; stroke-width: 0.75"/>
    <path d="M 365.300852 446.363791 
L 395.737216 446.363791 
L 395.737216 436.193388 
L 365.300852 436.193388 
z
" clip-path="url(#pbf73313271)" style="fill: #3274a1; stroke: #3f3f3f; stroke-width: 0.75"/>
    <path d="M 372.909943 436.193388 
L 388.128125 436.193388 
L 388.128125 423.762895 
L 372.909943 423.762895 
z
" clip-path="url(#pbf73313271)" style="fill: #588db2; stroke: #3f3f3f; stroke-width: 0.75"/>
    <path d="M 376.714489 423.762895 
L 384.32358 423.762895 
L 384.32358 407.942267 
L 376.714489 407.942267 
z
" clip-path="url(#pbf73313271)" style="fill: #78a2bf; stroke: #3f3f3f; stroke-width: 0.75"/>
    <path d="M 378.616761 407.942267 
L 382.421307 407.942267 
L 382.421307 353.700114 
L 378.616761 353.700114 
z
" clip-path="url(#pbf73313271)" style="fill: #90b2ca; stroke: #3f3f3f; stroke-width: 0.75"/>
    <path d="M 379.567898 353.700114 
L 381.47017 353.700114 
L 381.47017 280.370798 
L 379.567898 280.370798 
z
" clip-path="url(#pbf73313271)" style="fill: #a4bfd2; stroke: #3f3f3f; stroke-width: 0.75"/>
    <path d="M 380.043466 280.370798 
L 380.994602 280.370798 
L 380.994602 243.017519 
L 380.043466 243.017519 
z
" clip-path="url(#pbf73313271)" style="fill: #b4c9d9; stroke: #3f3f3f; stroke-width: 0.75"/>
   </g>
   <g id="PatchCollection_10">
    <path d="M 410.47983 498.345854 
L 411.430966 498.345854 
L 411.430966 498.345854 
L 410.47983 498.345854 
z
" clip-path="url(#pbf73313271)" style="fill: #edcdb2; stroke: #3f3f3f; stroke-width: 0.75"/>
    <path d="M 410.004261 498.345854 
L 411.906534 498.345854 
L 411.906534 497.215809 
L 410.004261 497.215809 
z
" clip-path="url(#pbf73313271)" style="fill: #ecc4a2; stroke: #3f3f3f; stroke-width: 0.75"/>
    <path d="M 409.053125 497.215809 
L 412.85767 497.215809 
L 412.85767 497.215809 
L 409.053125 497.215809 
z
" clip-path="url(#pbf73313271)" style="fill: #eab88d; stroke: #3f3f3f; stroke-width: 0.75"/>
    <path d="M 407.150852 497.215809 
L 414.759943 497.215809 
L 414.759943 496.085765 
L 407.150852 496.085765 
z
" clip-path="url(#pbf73313271)" style="fill: #e7aa74; stroke: #3f3f3f; stroke-width: 0.75"/>
    <path d="M 403.346307 496.085765 
L 418.564489 496.085765 
L 418.564489 494.95572 
L 403.346307 494.95572 
z
" clip-path="url(#pbf73313271)" style="fill: #e49854; stroke: #3f3f3f; stroke-width: 0.75"/>
    <path d="M 395.737216 494.95572 
L 426.17358 494.95572 
L 426.17358 489.305496 
L 395.737216 489.305496 
z
" clip-path="url(#pbf73313271)" style="fill: #e1812c; stroke: #3f3f3f; stroke-width: 0.75"/>
    <path d="M 403.346307 489.305496 
L 418.564489 489.305496 
L 418.564489 483.655271 
L 403.346307 483.655271 
z
" clip-path="url(#pbf73313271)" style="fill: #e49854; stroke: #3f3f3f; stroke-width: 0.75"/>
    <path d="M 407.150852 483.655271 
L 414.759943 483.655271 
L 414.759943 480.265137 
L 407.150852 480.265137 
z
" clip-path="url(#pbf73313271)" style="fill: #e7aa74; stroke: #3f3f3f; stroke-width: 0.75"/>
    <path d="M 409.053125 480.265137 
L 412.85767 480.265137 
L 412.85767 463.561661 
L 409.053125 463.561661 
z
" clip-path="url(#pbf73313271)" style="fill: #eab88d; stroke: #3f3f3f; stroke-width: 0.75"/>
    <path d="M 410.004261 463.561661 
L 411.906534 463.561661 
L 411.906534 428.283074 
L 410.004261 428.283074 
z
" clip-path="url(#pbf73313271)" style="fill: #ecc4a2; stroke: #3f3f3f; stroke-width: 0.75"/>
    <path d="M 410.47983 428.283074 
L 411.430966 428.283074 
L 411.430966 380.821191 
L 410.47983 380.821191 
z
" clip-path="url(#pbf73313271)" style="fill: #edcdb2; stroke: #3f3f3f; stroke-width: 0.75"/>
   </g>
   <g id="PatchCollection_11">
    <path d="M 456.134375 490.43554 
L 457.085511 490.43554 
L 457.085511 489.305496 
L 456.134375 489.305496 
z
" clip-path="url(#pbf73313271)" style="fill: #b4c9d9; stroke: #3f3f3f; stroke-width: 0.75"/>
    <path d="M 455.658807 489.305496 
L 457.56108 489.305496 
L 457.56108 483.655271 
L 455.658807 483.655271 
z
" clip-path="url(#pbf73313271)" style="fill: #a4bfd2; stroke: #3f3f3f; stroke-width: 0.75"/>
    <path d="M 454.70767 483.655271 
L 458.512216 483.655271 
L 458.512216 481.395182 
L 454.70767 481.395182 
z
" clip-path="url(#pbf73313271)" style="fill: #90b2ca; stroke: #3f3f3f; stroke-width: 0.75"/>
    <path d="M 452.805398 481.395182 
L 460.414489 481.395182 
L 460.414489 476.875002 
L 452.805398 476.875002 
z
" clip-path="url(#pbf73313271)" style="fill: #78a2bf; stroke: #3f3f3f; stroke-width: 0.75"/>
    <path d="M 449.000852 476.875002 
L 464.219034 476.875002 
L 464.219034 463.314464 
L 449.000852 463.314464 
z
" clip-path="url(#pbf73313271)" style="fill: #588db2; stroke: #3f3f3f; stroke-width: 0.75"/>
    <path d="M 441.391761 463.314464 
L 471.828125 463.314464 
L 471.828125 452.014016 
L 441.391761 452.014016 
z
" clip-path="url(#pbf73313271)" style="fill: #3274a1; stroke: #3f3f3f; stroke-width: 0.75"/>
    <path d="M 449.000852 452.014016 
L 464.219034 452.014016 
L 464.219034 445.233747 
L 449.000852 445.233747 
z
" clip-path="url(#pbf73313271)" style="fill: #588db2; stroke: #3f3f3f; stroke-width: 0.75"/>
    <path d="M 452.805398 445.233747 
L 460.414489 445.233747 
L 460.414489 426.022984 
L 452.805398 426.022984 
z
" clip-path="url(#pbf73313271)" style="fill: #78a2bf; stroke: #3f3f3f; stroke-width: 0.75"/>
    <path d="M 454.70767 426.022984 
L 458.512216 426.022984 
L 458.512216 400.031953 
L 454.70767 400.031953 
z
" clip-path="url(#pbf73313271)" style="fill: #90b2ca; stroke: #3f3f3f; stroke-width: 0.75"/>
    <path d="M 455.658807 400.031953 
L 457.56108 400.031953 
L 457.56108 315.755327 
L 455.658807 315.755327 
z
" clip-path="url(#pbf73313271)" style="fill: #a4bfd2; stroke: #3f3f3f; stroke-width: 0.75"/>
    <path d="M 456.134375 315.755327 
L 457.085511 315.755327 
L 457.085511 221.546667 
L 456.134375 221.546667 
z
" clip-path="url(#pbf73313271)" style="fill: #b4c9d9; stroke: #3f3f3f; stroke-width: 0.75"/>
   </g>
   <g id="PatchCollection_12">
    <path d="M 486.570739 523.206841 
L 487.521875 523.206841 
L 487.521875 522.076796 
L 486.570739 522.076796 
z
" clip-path="url(#pbf73313271)" style="fill: #edcdb2; stroke: #3f3f3f; stroke-width: 0.75"/>
    <path d="M 486.09517 522.076796 
L 487.997443 522.076796 
L 487.997443 520.946751 
L 486.09517 520.946751 
z
" clip-path="url(#pbf73313271)" style="fill: #ecc4a2; stroke: #3f3f3f; stroke-width: 0.75"/>
    <path d="M 485.144034 520.946751 
L 488.94858 520.946751 
L 488.94858 519.816706 
L 485.144034 519.816706 
z
" clip-path="url(#pbf73313271)" style="fill: #eab88d; stroke: #3f3f3f; stroke-width: 0.75"/>
    <path d="M 483.241761 519.816706 
L 490.850852 519.816706 
L 490.850852 516.426572 
L 483.241761 516.426572 
z
" clip-path="url(#pbf73313271)" style="fill: #e7aa74; stroke: #3f3f3f; stroke-width: 0.75"/>
    <path d="M 479.437216 516.426572 
L 494.655398 516.426572 
L 494.655398 513.036437 
L 479.437216 513.036437 
z
" clip-path="url(#pbf73313271)" style="fill: #e49854; stroke: #3f3f3f; stroke-width: 0.75"/>
    <path d="M 471.828125 513.036437 
L 502.264489 513.036437 
L 502.264489 506.256168 
L 471.828125 506.256168 
z
" clip-path="url(#pbf73313271)" style="fill: #e1812c; stroke: #3f3f3f; stroke-width: 0.75"/>
    <path d="M 479.437216 506.256168 
L 494.655398 506.256168 
L 494.655398 500.605944 
L 479.437216 500.605944 
z
" clip-path="url(#pbf73313271)" style="fill: #e49854; stroke: #3f3f3f; stroke-width: 0.75"/>
    <path d="M 483.241761 500.605944 
L 490.850852 500.605944 
L 490.850852 494.95572 
L 483.241761 494.95572 
z
" clip-path="url(#pbf73313271)" style="fill: #e7aa74; stroke: #3f3f3f; stroke-width: 0.75"/>
    <path d="M 485.144034 494.95572 
L 488.94858 494.95572 
L 488.94858 472.60202 
L 485.144034 472.60202 
z
" clip-path="url(#pbf73313271)" style="fill: #eab88d; stroke: #3f3f3f; stroke-width: 0.75"/>
    <path d="M 486.09517 472.60202 
L 487.997443 472.60202 
L 487.997443 457.66424 
L 486.09517 457.66424 
z
" clip-path="url(#pbf73313271)" style="fill: #ecc4a2; stroke: #3f3f3f; stroke-width: 0.75"/>
    <path d="M 486.570739 457.66424 
L 487.521875 457.66424 
L 487.521875 372.910877 
L 486.570739 372.910877 
z
" clip-path="url(#pbf73313271)" style="fill: #edcdb2; stroke: #3f3f3f; stroke-width: 0.75"/>
   </g>
   <g id="PatchCollection_13">
    <path d="M 532.225284 514.166482 
L 533.17642 514.166482 
L 533.17642 507.386213 
L 532.225284 507.386213 
z
" clip-path="url(#pbf73313271)" style="fill: #b4c9d9; stroke: #3f3f3f; stroke-width: 0.75"/>
    <path d="M 531.749716 507.386213 
L 533.651989 507.386213 
L 533.651989 489.305496 
L 531.749716 489.305496 
z
" clip-path="url(#pbf73313271)" style="fill: #a4bfd2; stroke: #3f3f3f; stroke-width: 0.75"/>
    <path d="M 530.79858 489.305496 
L 534.603125 489.305496 
L 534.603125 488.175451 
L 530.79858 488.175451 
z
" clip-path="url(#pbf73313271)" style="fill: #90b2ca; stroke: #3f3f3f; stroke-width: 0.75"/>
    <path d="M 528.896307 488.175451 
L 536.505398 488.175451 
L 536.505398 485.915361 
L 528.896307 485.915361 
z
" clip-path="url(#pbf73313271)" style="fill: #78a2bf; stroke: #3f3f3f; stroke-width: 0.75"/>
    <path d="M 525.091761 485.915361 
L 540.309943 485.915361 
L 540.309943 484.785316 
L 525.091761 484.785316 
z
" clip-path="url(#pbf73313271)" style="fill: #588db2; stroke: #3f3f3f; stroke-width: 0.75"/>
    <path d="M 517.48267 484.785316 
L 547.919034 484.785316 
L 547.919034 475.744957 
L 517.48267 475.744957 
z
" clip-path="url(#pbf73313271)" style="fill: #3274a1; stroke: #3f3f3f; stroke-width: 0.75"/>
    <path d="M 525.091761 475.744957 
L 540.309943 475.744957 
L 540.309943 468.964688 
L 525.091761 468.964688 
z
" clip-path="url(#pbf73313271)" style="fill: #588db2; stroke: #3f3f3f; stroke-width: 0.75"/>
    <path d="M 528.896307 468.964688 
L 536.505398 468.964688 
L 536.505398 463.314464 
L 528.896307 463.314464 
z
" clip-path="url(#pbf73313271)" style="fill: #78a2bf; stroke: #3f3f3f; stroke-width: 0.75"/>
    <path d="M 530.79858 463.314464 
L 534.603125 463.314464 
L 534.603125 451.131168 
L 530.79858 451.131168 
z
" clip-path="url(#pbf73313271)" style="fill: #90b2ca; stroke: #3f3f3f; stroke-width: 0.75"/>
    <path d="M 531.749716 451.131168 
L 533.651989 451.131168 
L 533.651989 414.58128 
L 531.749716 414.58128 
z
" clip-path="url(#pbf73313271)" style="fill: #a4bfd2; stroke: #3f3f3f; stroke-width: 0.75"/>
    <path d="M 532.225284 414.58128 
L 533.17642 414.58128 
L 533.17642 229.456981 
L 532.225284 229.456981 
z
" clip-path="url(#pbf73313271)" style="fill: #b4c9d9; stroke: #3f3f3f; stroke-width: 0.75"/>
   </g>
   <g id="PatchCollection_14">
    <path d="M 562.661648 535.637334 
L 563.612784 535.637334 
L 563.612784 535.637334 
L 562.661648 535.637334 
z
" clip-path="url(#pbf73313271)" style="fill: #edcdb2; stroke: #3f3f3f; stroke-width: 0.75"/>
    <path d="M 562.18608 535.637334 
L 564.088352 535.637334 
L 564.088352 534.507289 
L 562.18608 534.507289 
z
" clip-path="url(#pbf73313271)" style="fill: #ecc4a2; stroke: #3f3f3f; stroke-width: 0.75"/>
    <path d="M 561.234943 534.507289 
L 565.039489 534.507289 
L 565.039489 533.377244 
L 561.234943 533.377244 
z
" clip-path="url(#pbf73313271)" style="fill: #eab88d; stroke: #3f3f3f; stroke-width: 0.75"/>
    <path d="M 559.33267 533.377244 
L 566.941761 533.377244 
L 566.941761 532.2472 
L 559.33267 532.2472 
z
" clip-path="url(#pbf73313271)" style="fill: #e7aa74; stroke: #3f3f3f; stroke-width: 0.75"/>
    <path d="M 555.528125 532.2472 
L 570.746307 532.2472 
L 570.746307 531.117155 
L 555.528125 531.117155 
z
" clip-path="url(#pbf73313271)" style="fill: #e49854; stroke: #3f3f3f; stroke-width: 0.75"/>
    <path d="M 547.919034 531.117155 
L 578.355398 531.117155 
L 578.355398 525.46693 
L 547.919034 525.46693 
z
" clip-path="url(#pbf73313271)" style="fill: #e1812c; stroke: #3f3f3f; stroke-width: 0.75"/>
    <path d="M 555.528125 525.46693 
L 570.746307 525.46693 
L 570.746307 520.946751 
L 555.528125 520.946751 
z
" clip-path="url(#pbf73313271)" style="fill: #e49854; stroke: #3f3f3f; stroke-width: 0.75"/>
    <path d="M 559.33267 520.946751 
L 566.941761 520.946751 
L 566.941761 515.296527 
L 559.33267 515.296527 
z
" clip-path="url(#pbf73313271)" style="fill: #e7aa74; stroke: #3f3f3f; stroke-width: 0.75"/>
    <path d="M 561.234943 515.296527 
L 565.039489 515.296527 
L 565.039489 498.345854 
L 561.234943 498.345854 
z
" clip-path="url(#pbf73313271)" style="fill: #eab88d; stroke: #3f3f3f; stroke-width: 0.75"/>
    <path d="M 562.18608 498.345854 
L 564.088352 498.345854 
L 564.088352 482.525226 
L 562.18608 482.525226 
z
" clip-path="url(#pbf73313271)" style="fill: #ecc4a2; stroke: #3f3f3f; stroke-width: 0.75"/>
    <path d="M 562.661648 482.525226 
L 563.612784 482.525226 
L 563.612784 372.972676 
L 562.661648 372.972676 
z
" clip-path="url(#pbf73313271)" style="fill: #edcdb2; stroke: #3f3f3f; stroke-width: 0.75"/>
   </g>
   <g id="PatchCollection_15">
    <path d="M 608.316193 505.126123 
L 609.26733 505.126123 
L 609.26733 502.866034 
L 608.316193 502.866034 
z
" clip-path="url(#pbf73313271)" style="fill: #b4c9d9; stroke: #3f3f3f; stroke-width: 0.75"/>
    <path d="M 607.840625 502.866034 
L 609.742898 502.866034 
L 609.742898 501.735989 
L 607.840625 501.735989 
z
" clip-path="url(#pbf73313271)" style="fill: #a4bfd2; stroke: #3f3f3f; stroke-width: 0.75"/>
    <path d="M 606.889489 501.735989 
L 610.694034 501.735989 
L 610.694034 499.475899 
L 606.889489 499.475899 
z
" clip-path="url(#pbf73313271)" style="fill: #90b2ca; stroke: #3f3f3f; stroke-width: 0.75"/>
    <path d="M 604.987216 499.475899 
L 612.596307 499.475899 
L 612.596307 493.825675 
L 604.987216 493.825675 
z
" clip-path="url(#pbf73313271)" style="fill: #78a2bf; stroke: #3f3f3f; stroke-width: 0.75"/>
    <path d="M 601.18267 493.825675 
L 616.400852 493.825675 
L 616.400852 489.305496 
L 601.18267 489.305496 
z
" clip-path="url(#pbf73313271)" style="fill: #588db2; stroke: #3f3f3f; stroke-width: 0.75"/>
    <path d="M 593.57358 489.305496 
L 624.009943 489.305496 
L 624.009943 480.265137 
L 593.57358 480.265137 
z
" clip-path="url(#pbf73313271)" style="fill: #3274a1; stroke: #3f3f3f; stroke-width: 0.75"/>
    <path d="M 601.18267 480.265137 
L 616.400852 480.265137 
L 616.400852 474.614913 
L 601.18267 474.614913 
z
" clip-path="url(#pbf73313271)" style="fill: #588db2; stroke: #3f3f3f; stroke-width: 0.75"/>
    <path d="M 604.987216 474.614913 
L 612.596307 474.614913 
L 612.596307 468.964688 
L 604.987216 468.964688 
z
" clip-path="url(#pbf73313271)" style="fill: #78a2bf; stroke: #3f3f3f; stroke-width: 0.75"/>
    <path d="M 606.889489 468.964688 
L 610.694034 468.964688 
L 610.694034 459.92433 
L 606.889489 459.92433 
z
" clip-path="url(#pbf73313271)" style="fill: #90b2ca; stroke: #3f3f3f; stroke-width: 0.75"/>
    <path d="M 607.840625 459.92433 
L 609.742898 459.92433 
L 609.742898 439.583522 
L 607.840625 439.583522 
z
" clip-path="url(#pbf73313271)" style="fill: #a4bfd2; stroke: #3f3f3f; stroke-width: 0.75"/>
    <path d="M 608.316193 439.583522 
L 609.26733 439.583522 
L 609.26733 192.165501 
L 608.316193 192.165501 
z
" clip-path="url(#pbf73313271)" style="fill: #b4c9d9; stroke: #3f3f3f; stroke-width: 0.75"/>
   </g>
   <g id="PatchCollection_16">
    <path d="M 638.752557 548.067827 
L 639.703693 548.067827 
L 639.703693 546.937783 
L 638.752557 546.937783 
z
" clip-path="url(#pbf73313271)" style="fill: #edcdb2; stroke: #3f3f3f; stroke-width: 0.75"/>
    <path d="M 638.276989 546.937783 
L 640.179261 546.937783 
L 640.179261 545.807738 
L 638.276989 545.807738 
z
" clip-path="url(#pbf73313271)" style="fill: #ecc4a2; stroke: #3f3f3f; stroke-width: 0.75"/>
    <path d="M 637.325852 545.807738 
L 641.130398 545.807738 
L 641.130398 544.677693 
L 637.325852 544.677693 
z
" clip-path="url(#pbf73313271)" style="fill: #eab88d; stroke: #3f3f3f; stroke-width: 0.75"/>
    <path d="M 635.42358 544.677693 
L 643.03267 544.677693 
L 643.03267 541.287558 
L 635.42358 541.287558 
z
" clip-path="url(#pbf73313271)" style="fill: #e7aa74; stroke: #3f3f3f; stroke-width: 0.75"/>
    <path d="M 631.619034 541.287558 
L 646.837216 541.287558 
L 646.837216 539.027469 
L 631.619034 539.027469 
z
" clip-path="url(#pbf73313271)" style="fill: #e49854; stroke: #3f3f3f; stroke-width: 0.75"/>
    <path d="M 624.009943 539.027469 
L 654.446307 539.027469 
L 654.446307 533.377244 
L 624.009943 533.377244 
z
" clip-path="url(#pbf73313271)" style="fill: #e1812c; stroke: #3f3f3f; stroke-width: 0.75"/>
    <path d="M 631.619034 533.377244 
L 646.837216 533.377244 
L 646.837216 527.72702 
L 631.619034 527.72702 
z
" clip-path="url(#pbf73313271)" style="fill: #e49854; stroke: #3f3f3f; stroke-width: 0.75"/>
    <path d="M 635.42358 527.72702 
L 643.03267 527.72702 
L 643.03267 523.206841 
L 635.42358 523.206841 
z
" clip-path="url(#pbf73313271)" style="fill: #e7aa74; stroke: #3f3f3f; stroke-width: 0.75"/>
    <path d="M 637.325852 523.206841 
L 641.130398 523.206841 
L 641.130398 509.646303 
L 637.325852 509.646303 
z
" clip-path="url(#pbf73313271)" style="fill: #eab88d; stroke: #3f3f3f; stroke-width: 0.75"/>
    <path d="M 638.276989 509.646303 
L 640.179261 509.646303 
L 640.179261 497.215809 
L 638.276989 497.215809 
z
" clip-path="url(#pbf73313271)" style="fill: #ecc4a2; stroke: #3f3f3f; stroke-width: 0.75"/>
    <path d="M 638.752557 497.215809 
L 639.703693 497.215809 
L 639.703693 354.830159 
L 638.752557 354.830159 
z
" clip-path="url(#pbf73313271)" style="fill: #edcdb2; stroke: #3f3f3f; stroke-width: 0.75"/>
   </g>
   <g id="PatchCollection_17">
    <path d="M 684.407102 510.776348 
L 685.358239 510.776348 
L 685.358239 510.776348 
L 684.407102 510.776348 
z
" clip-path="url(#pbf73313271)" style="fill: #b4c9d9; stroke: #3f3f3f; stroke-width: 0.75"/>
    <path d="M 683.931534 510.776348 
L 685.833807 510.776348 
L 685.833807 509.646303 
L 683.931534 509.646303 
z
" clip-path="url(#pbf73313271)" style="fill: #a4bfd2; stroke: #3f3f3f; stroke-width: 0.75"/>
    <path d="M 682.980398 509.646303 
L 686.784943 509.646303 
L 686.784943 508.516258 
L 682.980398 508.516258 
z
" clip-path="url(#pbf73313271)" style="fill: #90b2ca; stroke: #3f3f3f; stroke-width: 0.75"/>
    <path d="M 681.078125 508.516258 
L 688.687216 508.516258 
L 688.687216 506.256168 
L 681.078125 506.256168 
z
" clip-path="url(#pbf73313271)" style="fill: #78a2bf; stroke: #3f3f3f; stroke-width: 0.75"/>
    <path d="M 677.27358 506.256168 
L 692.491761 506.256168 
L 692.491761 503.996078 
L 677.27358 503.996078 
z
" clip-path="url(#pbf73313271)" style="fill: #588db2; stroke: #3f3f3f; stroke-width: 0.75"/>
    <path d="M 669.664489 503.996078 
L 700.100852 503.996078 
L 700.100852 494.95572 
L 669.664489 494.95572 
z
" clip-path="url(#pbf73313271)" style="fill: #3274a1; stroke: #3f3f3f; stroke-width: 0.75"/>
    <path d="M 677.27358 494.95572 
L 692.491761 494.95572 
L 692.491761 488.175451 
L 677.27358 488.175451 
z
" clip-path="url(#pbf73313271)" style="fill: #588db2; stroke: #3f3f3f; stroke-width: 0.75"/>
    <path d="M 681.078125 488.175451 
L 688.687216 488.175451 
L 688.687216 476.875002 
L 681.078125 476.875002 
z
" clip-path="url(#pbf73313271)" style="fill: #78a2bf; stroke: #3f3f3f; stroke-width: 0.75"/>
    <path d="M 682.980398 476.875002 
L 686.784943 476.875002 
L 686.784943 454.521303 
L 682.980398 454.521303 
z
" clip-path="url(#pbf73313271)" style="fill: #90b2ca; stroke: #3f3f3f; stroke-width: 0.75"/>
    <path d="M 683.931534 454.521303 
L 685.833807 454.521303 
L 685.833807 382.198433 
L 683.931534 382.198433 
z
" clip-path="url(#pbf73313271)" style="fill: #a4bfd2; stroke: #3f3f3f; stroke-width: 0.75"/>
    <path d="M 684.407102 382.198433 
L 685.358239 382.198433 
L 685.358239 175.214828 
L 684.407102 175.214828 
z
" clip-path="url(#pbf73313271)" style="fill: #b4c9d9; stroke: #3f3f3f; stroke-width: 0.75"/>
   </g>
   <g id="PatchCollection_18">
    <path d="M 714.843466 553.718052 
L 715.794602 553.718052 
L 715.794602 553.718052 
L 714.843466 553.718052 
z
" clip-path="url(#pbf73313271)" style="fill: #edcdb2; stroke: #3f3f3f; stroke-width: 0.75"/>
    <path d="M 714.367898 553.718052 
L 716.27017 553.718052 
L 716.27017 552.588007 
L 714.367898 552.588007 
z
" clip-path="url(#pbf73313271)" style="fill: #ecc4a2; stroke: #3f3f3f; stroke-width: 0.75"/>
    <path d="M 713.416761 552.588007 
L 717.221307 552.588007 
L 717.221307 552.588007 
L 713.416761 552.588007 
z
" clip-path="url(#pbf73313271)" style="fill: #eab88d; stroke: #3f3f3f; stroke-width: 0.75"/>
    <path d="M 711.514489 552.588007 
L 719.12358 552.588007 
L 719.12358 551.457962 
L 711.514489 551.457962 
z
" clip-path="url(#pbf73313271)" style="fill: #e7aa74; stroke: #3f3f3f; stroke-width: 0.75"/>
    <path d="M 707.709943 551.457962 
L 722.928125 551.457962 
L 722.928125 550.327917 
L 707.709943 550.327917 
z
" clip-path="url(#pbf73313271)" style="fill: #e49854; stroke: #3f3f3f; stroke-width: 0.75"/>
    <path d="M 700.100852 550.327917 
L 730.537216 550.327917 
L 730.537216 543.547648 
L 700.100852 543.547648 
z
" clip-path="url(#pbf73313271)" style="fill: #e1812c; stroke: #3f3f3f; stroke-width: 0.75"/>
    <path d="M 707.709943 543.547648 
L 722.928125 543.547648 
L 722.928125 539.027469 
L 707.709943 539.027469 
z
" clip-path="url(#pbf73313271)" style="fill: #e49854; stroke: #3f3f3f; stroke-width: 0.75"/>
    <path d="M 711.514489 539.027469 
L 719.12358 539.027469 
L 719.12358 535.637334 
L 711.514489 535.637334 
z
" clip-path="url(#pbf73313271)" style="fill: #e7aa74; stroke: #3f3f3f; stroke-width: 0.75"/>
    <path d="M 713.416761 535.637334 
L 717.221307 535.637334 
L 717.221307 525.714128 
L 713.416761 525.714128 
z
" clip-path="url(#pbf73313271)" style="fill: #eab88d; stroke: #3f3f3f; stroke-width: 0.75"/>
    <path d="M 714.367898 525.714128 
L 716.27017 525.714128 
L 716.27017 514.290081 
L 714.367898 514.290081 
z
" clip-path="url(#pbf73313271)" style="fill: #ecc4a2; stroke: #3f3f3f; stroke-width: 0.75"/>
    <path d="M 714.843466 514.290081 
L 715.794602 514.290081 
L 715.794602 347.105243 
L 714.843466 347.105243 
z
" clip-path="url(#pbf73313271)" style="fill: #edcdb2; stroke: #3f3f3f; stroke-width: 0.75"/>
   </g>
   <g id="PatchCollection_19">
    <path d="M 760.498011 529.98711 
L 761.449148 529.98711 
L 761.449148 523.206841 
L 760.498011 523.206841 
z
" clip-path="url(#pbf73313271)" style="fill: #b4c9d9; stroke: #3f3f3f; stroke-width: 0.75"/>
    <path d="M 760.022443 523.206841 
L 761.924716 523.206841 
L 761.924716 519.816706 
L 760.022443 519.816706 
z
" clip-path="url(#pbf73313271)" style="fill: #a4bfd2; stroke: #3f3f3f; stroke-width: 0.75"/>
    <path d="M 759.071307 519.816706 
L 762.875852 519.816706 
L 762.875852 516.426572 
L 759.071307 516.426572 
z
" clip-path="url(#pbf73313271)" style="fill: #90b2ca; stroke: #3f3f3f; stroke-width: 0.75"/>
    <path d="M 757.169034 516.426572 
L 764.778125 516.426572 
L 764.778125 513.036437 
L 757.169034 513.036437 
z
" clip-path="url(#pbf73313271)" style="fill: #78a2bf; stroke: #3f3f3f; stroke-width: 0.75"/>
    <path d="M 753.364489 513.036437 
L 768.58267 513.036437 
L 768.58267 506.256168 
L 753.364489 506.256168 
z
" clip-path="url(#pbf73313271)" style="fill: #588db2; stroke: #3f3f3f; stroke-width: 0.75"/>
    <path d="M 745.755398 506.256168 
L 776.191761 506.256168 
L 776.191761 496.085765 
L 745.755398 496.085765 
z
" clip-path="url(#pbf73313271)" style="fill: #3274a1; stroke: #3f3f3f; stroke-width: 0.75"/>
    <path d="M 753.364489 496.085765 
L 768.58267 496.085765 
L 768.58267 490.43554 
L 753.364489 490.43554 
z
" clip-path="url(#pbf73313271)" style="fill: #588db2; stroke: #3f3f3f; stroke-width: 0.75"/>
    <path d="M 757.169034 490.43554 
L 764.778125 490.43554 
L 764.778125 481.395182 
L 757.169034 481.395182 
z
" clip-path="url(#pbf73313271)" style="fill: #78a2bf; stroke: #3f3f3f; stroke-width: 0.75"/>
    <path d="M 759.071307 481.395182 
L 762.875852 481.395182 
L 762.875852 452.50841 
L 759.071307 452.50841 
z
" clip-path="url(#pbf73313271)" style="fill: #90b2ca; stroke: #3f3f3f; stroke-width: 0.75"/>
    <path d="M 760.022443 452.50841 
L 761.924716 452.50841 
L 761.924716 390.991594 
L 760.022443 390.991594 
z
" clip-path="url(#pbf73313271)" style="fill: #a4bfd2; stroke: #3f3f3f; stroke-width: 0.75"/>
    <path d="M 760.498011 390.991594 
L 761.449148 390.991594 
L 761.449148 126.6229 
L 760.498011 126.6229 
z
" clip-path="url(#pbf73313271)" style="fill: #b4c9d9; stroke: #3f3f3f; stroke-width: 0.75"/>
   </g>
   <g id="PatchCollection_20">
    <path d="M 790.934375 561.628365 
L 791.885511 561.628365 
L 791.885511 560.498321 
L 790.934375 560.498321 
z
" clip-path="url(#pbf73313271)" style="fill: #edcdb2; stroke: #3f3f3f; stroke-width: 0.75"/>
    <path d="M 790.458807 560.498321 
L 792.36108 560.498321 
L 792.36108 560.498321 
L 790.458807 560.498321 
z
" clip-path="url(#pbf73313271)" style="fill: #ecc4a2; stroke: #3f3f3f; stroke-width: 0.75"/>
    <path d="M 789.50767 560.498321 
L 793.312216 560.498321 
L 793.312216 558.238231 
L 789.50767 558.238231 
z
" clip-path="url(#pbf73313271)" style="fill: #eab88d; stroke: #3f3f3f; stroke-width: 0.75"/>
    <path d="M 787.605398 558.238231 
L 795.214489 558.238231 
L 795.214489 555.978141 
L 787.605398 555.978141 
z
" clip-path="url(#pbf73313271)" style="fill: #e7aa74; stroke: #3f3f3f; stroke-width: 0.75"/>
    <path d="M 783.800852 555.978141 
L 799.019034 555.978141 
L 799.019034 553.718052 
L 783.800852 553.718052 
z
" clip-path="url(#pbf73313271)" style="fill: #e49854; stroke: #3f3f3f; stroke-width: 0.75"/>
    <path d="M 776.191761 553.718052 
L 806.628125 553.718052 
L 806.628125 548.067827 
L 776.191761 548.067827 
z
" clip-path="url(#pbf73313271)" style="fill: #e1812c; stroke: #3f3f3f; stroke-width: 0.75"/>
    <path d="M 783.800852 548.067827 
L 799.019034 548.067827 
L 799.019034 543.547648 
L 783.800852 543.547648 
z
" clip-path="url(#pbf73313271)" style="fill: #e49854; stroke: #3f3f3f; stroke-width: 0.75"/>
    <path d="M 787.605398 543.547648 
L 795.214489 543.547648 
L 795.214489 537.897424 
L 787.605398 537.897424 
z
" clip-path="url(#pbf73313271)" style="fill: #e7aa74; stroke: #3f3f3f; stroke-width: 0.75"/>
    <path d="M 789.50767 537.897424 
L 793.312216 537.897424 
L 793.312216 527.72702 
L 789.50767 527.72702 
z
" clip-path="url(#pbf73313271)" style="fill: #eab88d; stroke: #3f3f3f; stroke-width: 0.75"/>
    <path d="M 790.458807 527.72702 
L 792.36108 527.72702 
L 792.36108 515.420126 
L 790.458807 515.420126 
z
" clip-path="url(#pbf73313271)" style="fill: #ecc4a2; stroke: #3f3f3f; stroke-width: 0.75"/>
    <path d="M 790.934375 515.420126 
L 791.885511 515.420126 
L 791.885511 324.380748 
L 790.934375 324.380748 
z
" clip-path="url(#pbf73313271)" style="fill: #edcdb2; stroke: #3f3f3f; stroke-width: 0.75"/>
   </g>
   <g id="PatchCollection_21">
    <path d="M 836.58892 528.857065 
L 837.540057 528.857065 
L 837.540057 526.596975 
L 836.58892 526.596975 
z
" clip-path="url(#pbf73313271)" style="fill: #b4c9d9; stroke: #3f3f3f; stroke-width: 0.75"/>
    <path d="M 836.113352 526.596975 
L 838.015625 526.596975 
L 838.015625 522.076796 
L 836.113352 522.076796 
z
" clip-path="url(#pbf73313271)" style="fill: #a4bfd2; stroke: #3f3f3f; stroke-width: 0.75"/>
    <path d="M 835.162216 522.076796 
L 838.966761 522.076796 
L 838.966761 519.816706 
L 835.162216 519.816706 
z
" clip-path="url(#pbf73313271)" style="fill: #90b2ca; stroke: #3f3f3f; stroke-width: 0.75"/>
    <path d="M 833.259943 519.816706 
L 840.869034 519.816706 
L 840.869034 517.556617 
L 833.259943 517.556617 
z
" clip-path="url(#pbf73313271)" style="fill: #78a2bf; stroke: #3f3f3f; stroke-width: 0.75"/>
    <path d="M 829.455398 517.556617 
L 844.67358 517.556617 
L 844.67358 515.296527 
L 829.455398 515.296527 
z
" clip-path="url(#pbf73313271)" style="fill: #588db2; stroke: #3f3f3f; stroke-width: 0.75"/>
    <path d="M 821.846307 515.296527 
L 852.28267 515.296527 
L 852.28267 505.126123 
L 821.846307 505.126123 
z
" clip-path="url(#pbf73313271)" style="fill: #3274a1; stroke: #3f3f3f; stroke-width: 0.75"/>
    <path d="M 829.455398 505.126123 
L 844.67358 505.126123 
L 844.67358 498.345854 
L 829.455398 498.345854 
z
" clip-path="url(#pbf73313271)" style="fill: #588db2; stroke: #3f3f3f; stroke-width: 0.75"/>
    <path d="M 833.259943 498.345854 
L 840.869034 498.345854 
L 840.869034 488.669845 
L 833.259943 488.669845 
z
" clip-path="url(#pbf73313271)" style="fill: #78a2bf; stroke: #3f3f3f; stroke-width: 0.75"/>
    <path d="M 835.162216 488.669845 
L 838.966761 488.669845 
L 838.966761 472.354823 
L 835.162216 472.354823 
z
" clip-path="url(#pbf73313271)" style="fill: #90b2ca; stroke: #3f3f3f; stroke-width: 0.75"/>
    <path d="M 836.113352 472.354823 
L 838.015625 472.354823 
L 838.015625 457.66424 
L 836.113352 457.66424 
z
" clip-path="url(#pbf73313271)" style="fill: #a4bfd2; stroke: #3f3f3f; stroke-width: 0.75"/>
    <path d="M 836.58892 457.66424 
L 837.540057 457.66424 
L 837.540057 113.124161 
L 836.58892 113.124161 
z
" clip-path="url(#pbf73313271)" style="fill: #b4c9d9; stroke: #3f3f3f; stroke-width: 0.75"/>
   </g>
   <g id="PatchCollection_22">
    <path d="M 867.025284 565.0185 
L 867.97642 565.0185 
L 867.97642 565.0185 
L 867.025284 565.0185 
z
" clip-path="url(#pbf73313271)" style="fill: #edcdb2; stroke: #3f3f3f; stroke-width: 0.75"/>
    <path d="M 866.549716 565.0185 
L 868.451989 565.0185 
L 868.451989 563.888455 
L 866.549716 563.888455 
z
" clip-path="url(#pbf73313271)" style="fill: #ecc4a2; stroke: #3f3f3f; stroke-width: 0.75"/>
    <path d="M 865.59858 563.888455 
L 869.403125 563.888455 
L 869.403125 562.75841 
L 865.59858 562.75841 
z
" clip-path="url(#pbf73313271)" style="fill: #eab88d; stroke: #3f3f3f; stroke-width: 0.75"/>
    <path d="M 863.696307 562.75841 
L 871.305398 562.75841 
L 871.305398 562.75841 
L 863.696307 562.75841 
z
" clip-path="url(#pbf73313271)" style="fill: #e7aa74; stroke: #3f3f3f; stroke-width: 0.75"/>
    <path d="M 859.891761 562.75841 
L 875.109943 562.75841 
L 875.109943 561.628365 
L 859.891761 561.628365 
z
" clip-path="url(#pbf73313271)" style="fill: #e49854; stroke: #3f3f3f; stroke-width: 0.75"/>
    <path d="M 852.28267 561.628365 
L 882.719034 561.628365 
L 882.719034 554.848096 
L 852.28267 554.848096 
z
" clip-path="url(#pbf73313271)" style="fill: #e1812c; stroke: #3f3f3f; stroke-width: 0.75"/>
    <path d="M 859.891761 554.848096 
L 875.109943 554.848096 
L 875.109943 550.327917 
L 859.891761 550.327917 
z
" clip-path="url(#pbf73313271)" style="fill: #e49854; stroke: #3f3f3f; stroke-width: 0.75"/>
    <path d="M 863.696307 550.327917 
L 871.305398 550.327917 
L 871.305398 544.677693 
L 863.696307 544.677693 
z
" clip-path="url(#pbf73313271)" style="fill: #e7aa74; stroke: #3f3f3f; stroke-width: 0.75"/>
    <path d="M 865.59858 544.677693 
L 869.403125 544.677693 
L 869.403125 533.377244 
L 865.59858 533.377244 
z
" clip-path="url(#pbf73313271)" style="fill: #eab88d; stroke: #3f3f3f; stroke-width: 0.75"/>
    <path d="M 866.549716 533.377244 
L 868.451989 533.377244 
L 868.451989 524.336886 
L 866.549716 524.336886 
z
" clip-path="url(#pbf73313271)" style="fill: #ecc4a2; stroke: #3f3f3f; stroke-width: 0.75"/>
    <path d="M 867.025284 524.336886 
L 867.97642 524.336886 
L 867.97642 313.0185 
L 867.025284 313.0185 
z
" clip-path="url(#pbf73313271)" style="fill: #edcdb2; stroke: #3f3f3f; stroke-width: 0.75"/>
   </g>
   <g id="patch_3">
    <path d="M 91.37358 1847.619397 
L 91.37358 1847.619397 
L 91.37358 1847.619397 
L 91.37358 1847.619397 
z
" clip-path="url(#pbf73313271)" style="fill: #3274a1; stroke: #3f3f3f; stroke-width: 0.75; stroke-linejoin: miter"/>
   </g>
   <g id="patch_4">
    <path d="M 91.37358 1847.619397 
L 91.37358 1847.619397 
L 91.37358 1847.619397 
L 91.37358 1847.619397 
z
" clip-path="url(#pbf73313271)" style="fill: #e1812c; stroke: #3f3f3f; stroke-width: 0.75; stroke-linejoin: miter"/>
   </g>
   <g id="matplotlib.axis_1">
    <g id="xtick_1">
     <g id="line2d_1">
      <defs>
       <path id="m1c8ca77458" d="M 0 0 
L 0 3.5 
" style="stroke: #000000; stroke-width: 0.8"/>
      </defs>
      <g>
       <use xlink:href="#m1c8ca77458" x="91.37358" y="590.2185" style="stroke: #000000; stroke-width: 0.8"/>
      </g>
     </g>
     <g id="text_1">
      <!-- 1 -->
      <g transform="translate(88.19233 604.816938) scale(0.1 -0.1)">
       <defs>
        <path id="DejaVuSans-31" d="M 794 531 
L 1825 531 
L 1825 4091 
L 703 3866 
L 703 4441 
L 1819 4666 
L 2450 4666 
L 2450 531 
L 3481 531 
L 3481 0 
L 794 0 
L 794 531 
z
" transform="scale(0.015625)"/>
       </defs>
       <use xlink:href="#DejaVuSans-31"/>
      </g>
     </g>
    </g>
    <g id="xtick_2">
     <g id="line2d_2">
      <g>
       <use xlink:href="#m1c8ca77458" x="167.464489" y="590.2185" style="stroke: #000000; stroke-width: 0.8"/>
      </g>
     </g>
     <g id="text_2">
      <!-- 2 -->
      <g transform="translate(164.283239 604.816938) scale(0.1 -0.1)">
       <defs>
        <path id="DejaVuSans-32" d="M 1228 531 
L 3431 531 
L 3431 0 
L 469 0 
L 469 531 
Q 828 903 1448 1529 
Q 2069 2156 2228 2338 
Q 2531 2678 2651 2914 
Q 2772 3150 2772 3378 
Q 2772 3750 2511 3984 
Q 2250 4219 1831 4219 
Q 1534 4219 1204 4116 
Q 875 4013 500 3803 
L 500 4441 
Q 881 4594 1212 4672 
Q 1544 4750 1819 4750 
Q 2544 4750 2975 4387 
Q 3406 4025 3406 3419 
Q 3406 3131 3298 2873 
Q 3191 2616 2906 2266 
Q 2828 2175 2409 1742 
Q 1991 1309 1228 531 
z
" transform="scale(0.015625)"/>
       </defs>
       <use xlink:href="#DejaVuSans-32"/>
      </g>
     </g>
    </g>
    <g id="xtick_3">
     <g id="line2d_3">
      <g>
       <use xlink:href="#m1c8ca77458" x="243.555398" y="590.2185" style="stroke: #000000; stroke-width: 0.8"/>
      </g>
     </g>
     <g id="text_3">
      <!-- 3 -->
      <g transform="translate(240.374148 604.816938) scale(0.1 -0.1)">
       <defs>
        <path id="DejaVuSans-33" d="M 2597 2516 
Q 3050 2419 3304 2112 
Q 3559 1806 3559 1356 
Q 3559 666 3084 287 
Q 2609 -91 1734 -91 
Q 1441 -91 1130 -33 
Q 819 25 488 141 
L 488 750 
Q 750 597 1062 519 
Q 1375 441 1716 441 
Q 2309 441 2620 675 
Q 2931 909 2931 1356 
Q 2931 1769 2642 2001 
Q 2353 2234 1838 2234 
L 1294 2234 
L 1294 2753 
L 1863 2753 
Q 2328 2753 2575 2939 
Q 2822 3125 2822 3475 
Q 2822 3834 2567 4026 
Q 2313 4219 1838 4219 
Q 1578 4219 1281 4162 
Q 984 4106 628 3988 
L 628 4550 
Q 988 4650 1302 4700 
Q 1616 4750 1894 4750 
Q 2613 4750 3031 4423 
Q 3450 4097 3450 3541 
Q 3450 3153 3228 2886 
Q 3006 2619 2597 2516 
z
" transform="scale(0.015625)"/>
       </defs>
       <use xlink:href="#DejaVuSans-33"/>
      </g>
     </g>
    </g>
    <g id="xtick_4">
     <g id="line2d_4">
      <g>
       <use xlink:href="#m1c8ca77458" x="319.646307" y="590.2185" style="stroke: #000000; stroke-width: 0.8"/>
      </g>
     </g>
     <g id="text_4">
      <!-- 4 -->
      <g transform="translate(316.465057 604.816938) scale(0.1 -0.1)">
       <defs>
        <path id="DejaVuSans-34" d="M 2419 4116 
L 825 1625 
L 2419 1625 
L 2419 4116 
z
M 2253 4666 
L 3047 4666 
L 3047 1625 
L 3713 1625 
L 3713 1100 
L 3047 1100 
L 3047 0 
L 2419 0 
L 2419 1100 
L 313 1100 
L 313 1709 
L 2253 4666 
z
" transform="scale(0.015625)"/>
       </defs>
       <use xlink:href="#DejaVuSans-34"/>
      </g>
     </g>
    </g>
    <g id="xtick_5">
     <g id="line2d_5">
      <g>
       <use xlink:href="#m1c8ca77458" x="395.737216" y="590.2185" style="stroke: #000000; stroke-width: 0.8"/>
      </g>
     </g>
     <g id="text_5">
      <!-- 5 -->
      <g transform="translate(392.555966 604.816938) scale(0.1 -0.1)">
       <defs>
        <path id="DejaVuSans-35" d="M 691 4666 
L 3169 4666 
L 3169 4134 
L 1269 4134 
L 1269 2991 
Q 1406 3038 1543 3061 
Q 1681 3084 1819 3084 
Q 2600 3084 3056 2656 
Q 3513 2228 3513 1497 
Q 3513 744 3044 326 
Q 2575 -91 1722 -91 
Q 1428 -91 1123 -41 
Q 819 9 494 109 
L 494 744 
Q 775 591 1075 516 
Q 1375 441 1709 441 
Q 2250 441 2565 725 
Q 2881 1009 2881 1497 
Q 2881 1984 2565 2268 
Q 2250 2553 1709 2553 
Q 1456 2553 1204 2497 
Q 953 2441 691 2322 
L 691 4666 
z
" transform="scale(0.015625)"/>
       </defs>
       <use xlink:href="#DejaVuSans-35"/>
      </g>
     </g>
    </g>
    <g id="xtick_6">
     <g id="line2d_6">
      <g>
       <use xlink:href="#m1c8ca77458" x="471.828125" y="590.2185" style="stroke: #000000; stroke-width: 0.8"/>
      </g>
     </g>
     <g id="text_6">
      <!-- 6 -->
      <g transform="translate(468.646875 604.816938) scale(0.1 -0.1)">
       <defs>
        <path id="DejaVuSans-36" d="M 2113 2584 
Q 1688 2584 1439 2293 
Q 1191 2003 1191 1497 
Q 1191 994 1439 701 
Q 1688 409 2113 409 
Q 2538 409 2786 701 
Q 3034 994 3034 1497 
Q 3034 2003 2786 2293 
Q 2538 2584 2113 2584 
z
M 3366 4563 
L 3366 3988 
Q 3128 4100 2886 4159 
Q 2644 4219 2406 4219 
Q 1781 4219 1451 3797 
Q 1122 3375 1075 2522 
Q 1259 2794 1537 2939 
Q 1816 3084 2150 3084 
Q 2853 3084 3261 2657 
Q 3669 2231 3669 1497 
Q 3669 778 3244 343 
Q 2819 -91 2113 -91 
Q 1303 -91 875 529 
Q 447 1150 447 2328 
Q 447 3434 972 4092 
Q 1497 4750 2381 4750 
Q 2619 4750 2861 4703 
Q 3103 4656 3366 4563 
z
" transform="scale(0.015625)"/>
       </defs>
       <use xlink:href="#DejaVuSans-36"/>
      </g>
     </g>
    </g>
    <g id="xtick_7">
     <g id="line2d_7">
      <g>
       <use xlink:href="#m1c8ca77458" x="547.919034" y="590.2185" style="stroke: #000000; stroke-width: 0.8"/>
      </g>
     </g>
     <g id="text_7">
      <!-- 7 -->
      <g transform="translate(544.737784 604.816938) scale(0.1 -0.1)">
       <defs>
        <path id="DejaVuSans-37" d="M 525 4666 
L 3525 4666 
L 3525 4397 
L 1831 0 
L 1172 0 
L 2766 4134 
L 525 4134 
L 525 4666 
z
" transform="scale(0.015625)"/>
       </defs>
       <use xlink:href="#DejaVuSans-37"/>
      </g>
     </g>
    </g>
    <g id="xtick_8">
     <g id="line2d_8">
      <g>
       <use xlink:href="#m1c8ca77458" x="624.009943" y="590.2185" style="stroke: #000000; stroke-width: 0.8"/>
      </g>
     </g>
     <g id="text_8">
      <!-- 8 -->
      <g transform="translate(620.828693 604.816938) scale(0.1 -0.1)">
       <defs>
        <path id="DejaVuSans-38" d="M 2034 2216 
Q 1584 2216 1326 1975 
Q 1069 1734 1069 1313 
Q 1069 891 1326 650 
Q 1584 409 2034 409 
Q 2484 409 2743 651 
Q 3003 894 3003 1313 
Q 3003 1734 2745 1975 
Q 2488 2216 2034 2216 
z
M 1403 2484 
Q 997 2584 770 2862 
Q 544 3141 544 3541 
Q 544 4100 942 4425 
Q 1341 4750 2034 4750 
Q 2731 4750 3128 4425 
Q 3525 4100 3525 3541 
Q 3525 3141 3298 2862 
Q 3072 2584 2669 2484 
Q 3125 2378 3379 2068 
Q 3634 1759 3634 1313 
Q 3634 634 3220 271 
Q 2806 -91 2034 -91 
Q 1263 -91 848 271 
Q 434 634 434 1313 
Q 434 1759 690 2068 
Q 947 2378 1403 2484 
z
M 1172 3481 
Q 1172 3119 1398 2916 
Q 1625 2713 2034 2713 
Q 2441 2713 2670 2916 
Q 2900 3119 2900 3481 
Q 2900 3844 2670 4047 
Q 2441 4250 2034 4250 
Q 1625 4250 1398 4047 
Q 1172 3844 1172 3481 
z
" transform="scale(0.015625)"/>
       </defs>
       <use xlink:href="#DejaVuSans-38"/>
      </g>
     </g>
    </g>
    <g id="xtick_9">
     <g id="line2d_9">
      <g>
       <use xlink:href="#m1c8ca77458" x="700.100852" y="590.2185" style="stroke: #000000; stroke-width: 0.8"/>
      </g>
     </g>
     <g id="text_9">
      <!-- 9 -->
      <g transform="translate(696.919602 604.816938) scale(0.1 -0.1)">
       <defs>
        <path id="DejaVuSans-39" d="M 703 97 
L 703 672 
Q 941 559 1184 500 
Q 1428 441 1663 441 
Q 2288 441 2617 861 
Q 2947 1281 2994 2138 
Q 2813 1869 2534 1725 
Q 2256 1581 1919 1581 
Q 1219 1581 811 2004 
Q 403 2428 403 3163 
Q 403 3881 828 4315 
Q 1253 4750 1959 4750 
Q 2769 4750 3195 4129 
Q 3622 3509 3622 2328 
Q 3622 1225 3098 567 
Q 2575 -91 1691 -91 
Q 1453 -91 1209 -44 
Q 966 3 703 97 
z
M 1959 2075 
Q 2384 2075 2632 2365 
Q 2881 2656 2881 3163 
Q 2881 3666 2632 3958 
Q 2384 4250 1959 4250 
Q 1534 4250 1286 3958 
Q 1038 3666 1038 3163 
Q 1038 2656 1286 2365 
Q 1534 2075 1959 2075 
z
" transform="scale(0.015625)"/>
       </defs>
       <use xlink:href="#DejaVuSans-39"/>
      </g>
     </g>
    </g>
    <g id="xtick_10">
     <g id="line2d_10">
      <g>
       <use xlink:href="#m1c8ca77458" x="776.191761" y="590.2185" style="stroke: #000000; stroke-width: 0.8"/>
      </g>
     </g>
     <g id="text_10">
      <!-- 10 -->
      <g transform="translate(769.829261 604.816938) scale(0.1 -0.1)">
       <defs>
        <path id="DejaVuSans-30" d="M 2034 4250 
Q 1547 4250 1301 3770 
Q 1056 3291 1056 2328 
Q 1056 1369 1301 889 
Q 1547 409 2034 409 
Q 2525 409 2770 889 
Q 3016 1369 3016 2328 
Q 3016 3291 2770 3770 
Q 2525 4250 2034 4250 
z
M 2034 4750 
Q 2819 4750 3233 4129 
Q 3647 3509 3647 2328 
Q 3647 1150 3233 529 
Q 2819 -91 2034 -91 
Q 1250 -91 836 529 
Q 422 1150 422 2328 
Q 422 3509 836 4129 
Q 1250 4750 2034 4750 
z
" transform="scale(0.015625)"/>
       </defs>
       <use xlink:href="#DejaVuSans-31"/>
       <use xlink:href="#DejaVuSans-30" x="63.623047"/>
      </g>
     </g>
    </g>
    <g id="xtick_11">
     <g id="line2d_11">
      <g>
       <use xlink:href="#m1c8ca77458" x="852.28267" y="590.2185" style="stroke: #000000; stroke-width: 0.8"/>
      </g>
     </g>
     <g id="text_11">
      <!-- 11 -->
      <g transform="translate(845.92017 604.816938) scale(0.1 -0.1)">
       <use xlink:href="#DejaVuSans-31"/>
       <use xlink:href="#DejaVuSans-31" x="63.623047"/>
      </g>
     </g>
    </g>
    <g id="text_12">
     <!-- Number of cores -->
     <g transform="translate(430.311719 618.495063) scale(0.1 -0.1)">
      <defs>
       <path id="DejaVuSans-4e" d="M 628 4666 
L 1478 4666 
L 3547 763 
L 3547 4666 
L 4159 4666 
L 4159 0 
L 3309 0 
L 1241 3903 
L 1241 0 
L 628 0 
L 628 4666 
z
" transform="scale(0.015625)"/>
       <path id="DejaVuSans-75" d="M 544 1381 
L 544 3500 
L 1119 3500 
L 1119 1403 
Q 1119 906 1312 657 
Q 1506 409 1894 409 
Q 2359 409 2629 706 
Q 2900 1003 2900 1516 
L 2900 3500 
L 3475 3500 
L 3475 0 
L 2900 0 
L 2900 538 
Q 2691 219 2414 64 
Q 2138 -91 1772 -91 
Q 1169 -91 856 284 
Q 544 659 544 1381 
z
M 1991 3584 
L 1991 3584 
z
" transform="scale(0.015625)"/>
       <path id="DejaVuSans-6d" d="M 3328 2828 
Q 3544 3216 3844 3400 
Q 4144 3584 4550 3584 
Q 5097 3584 5394 3201 
Q 5691 2819 5691 2113 
L 5691 0 
L 5113 0 
L 5113 2094 
Q 5113 2597 4934 2840 
Q 4756 3084 4391 3084 
Q 3944 3084 3684 2787 
Q 3425 2491 3425 1978 
L 3425 0 
L 2847 0 
L 2847 2094 
Q 2847 2600 2669 2842 
Q 2491 3084 2119 3084 
Q 1678 3084 1418 2786 
Q 1159 2488 1159 1978 
L 1159 0 
L 581 0 
L 581 3500 
L 1159 3500 
L 1159 2956 
Q 1356 3278 1631 3431 
Q 1906 3584 2284 3584 
Q 2666 3584 2933 3390 
Q 3200 3197 3328 2828 
z
" transform="scale(0.015625)"/>
       <path id="DejaVuSans-62" d="M 3116 1747 
Q 3116 2381 2855 2742 
Q 2594 3103 2138 3103 
Q 1681 3103 1420 2742 
Q 1159 2381 1159 1747 
Q 1159 1113 1420 752 
Q 1681 391 2138 391 
Q 2594 391 2855 752 
Q 3116 1113 3116 1747 
z
M 1159 2969 
Q 1341 3281 1617 3432 
Q 1894 3584 2278 3584 
Q 2916 3584 3314 3078 
Q 3713 2572 3713 1747 
Q 3713 922 3314 415 
Q 2916 -91 2278 -91 
Q 1894 -91 1617 61 
Q 1341 213 1159 525 
L 1159 0 
L 581 0 
L 581 4863 
L 1159 4863 
L 1159 2969 
z
" transform="scale(0.015625)"/>
       <path id="DejaVuSans-65" d="M 3597 1894 
L 3597 1613 
L 953 1613 
Q 991 1019 1311 708 
Q 1631 397 2203 397 
Q 2534 397 2845 478 
Q 3156 559 3463 722 
L 3463 178 
Q 3153 47 2828 -22 
Q 2503 -91 2169 -91 
Q 1331 -91 842 396 
Q 353 884 353 1716 
Q 353 2575 817 3079 
Q 1281 3584 2069 3584 
Q 2775 3584 3186 3129 
Q 3597 2675 3597 1894 
z
M 3022 2063 
Q 3016 2534 2758 2815 
Q 2500 3097 2075 3097 
Q 1594 3097 1305 2825 
Q 1016 2553 972 2059 
L 3022 2063 
z
" transform="scale(0.015625)"/>
       <path id="DejaVuSans-72" d="M 2631 2963 
Q 2534 3019 2420 3045 
Q 2306 3072 2169 3072 
Q 1681 3072 1420 2755 
Q 1159 2438 1159 1844 
L 1159 0 
L 581 0 
L 581 3500 
L 1159 3500 
L 1159 2956 
Q 1341 3275 1631 3429 
Q 1922 3584 2338 3584 
Q 2397 3584 2469 3576 
Q 2541 3569 2628 3553 
L 2631 2963 
z
" transform="scale(0.015625)"/>
       <path id="DejaVuSans-20" transform="scale(0.015625)"/>
       <path id="DejaVuSans-6f" d="M 1959 3097 
Q 1497 3097 1228 2736 
Q 959 2375 959 1747 
Q 959 1119 1226 758 
Q 1494 397 1959 397 
Q 2419 397 2687 759 
Q 2956 1122 2956 1747 
Q 2956 2369 2687 2733 
Q 2419 3097 1959 3097 
z
M 1959 3584 
Q 2709 3584 3137 3096 
Q 3566 2609 3566 1747 
Q 3566 888 3137 398 
Q 2709 -91 1959 -91 
Q 1206 -91 779 398 
Q 353 888 353 1747 
Q 353 2609 779 3096 
Q 1206 3584 1959 3584 
z
" transform="scale(0.015625)"/>
       <path id="DejaVuSans-66" d="M 2375 4863 
L 2375 4384 
L 1825 4384 
Q 1516 4384 1395 4259 
Q 1275 4134 1275 3809 
L 1275 3500 
L 2222 3500 
L 2222 3053 
L 1275 3053 
L 1275 0 
L 697 0 
L 697 3053 
L 147 3053 
L 147 3500 
L 697 3500 
L 697 3744 
Q 697 4328 969 4595 
Q 1241 4863 1831 4863 
L 2375 4863 
z
" transform="scale(0.015625)"/>
       <path id="DejaVuSans-63" d="M 3122 3366 
L 3122 2828 
Q 2878 2963 2633 3030 
Q 2388 3097 2138 3097 
Q 1578 3097 1268 2742 
Q 959 2388 959 1747 
Q 959 1106 1268 751 
Q 1578 397 2138 397 
Q 2388 397 2633 464 
Q 2878 531 3122 666 
L 3122 134 
Q 2881 22 2623 -34 
Q 2366 -91 2075 -91 
Q 1284 -91 818 406 
Q 353 903 353 1747 
Q 353 2603 823 3093 
Q 1294 3584 2113 3584 
Q 2378 3584 2631 3529 
Q 2884 3475 3122 3366 
z
" transform="scale(0.015625)"/>
       <path id="DejaVuSans-73" d="M 2834 3397 
L 2834 2853 
Q 2591 2978 2328 3040 
Q 2066 3103 1784 3103 
Q 1356 3103 1142 2972 
Q 928 2841 928 2578 
Q 928 2378 1081 2264 
Q 1234 2150 1697 2047 
L 1894 2003 
Q 2506 1872 2764 1633 
Q 3022 1394 3022 966 
Q 3022 478 2636 193 
Q 2250 -91 1575 -91 
Q 1294 -91 989 -36 
Q 684 19 347 128 
L 347 722 
Q 666 556 975 473 
Q 1284 391 1588 391 
Q 1994 391 2212 530 
Q 2431 669 2431 922 
Q 2431 1156 2273 1281 
Q 2116 1406 1581 1522 
L 1381 1569 
Q 847 1681 609 1914 
Q 372 2147 372 2553 
Q 372 3047 722 3315 
Q 1072 3584 1716 3584 
Q 2034 3584 2315 3537 
Q 2597 3491 2834 3397 
z
" transform="scale(0.015625)"/>
      </defs>
      <use xlink:href="#DejaVuSans-4e"/>
      <use xlink:href="#DejaVuSans-75" x="74.804688"/>
      <use xlink:href="#DejaVuSans-6d" x="138.183594"/>
      <use xlink:href="#DejaVuSans-62" x="235.595703"/>
      <use xlink:href="#DejaVuSans-65" x="299.072266"/>
      <use xlink:href="#DejaVuSans-72" x="360.595703"/>
      <use xlink:href="#DejaVuSans-20" x="401.708984"/>
      <use xlink:href="#DejaVuSans-6f" x="433.496094"/>
      <use xlink:href="#DejaVuSans-66" x="494.677734"/>
      <use xlink:href="#DejaVuSans-20" x="529.882812"/>
      <use xlink:href="#DejaVuSans-63" x="561.669922"/>
      <use xlink:href="#DejaVuSans-6f" x="616.650391"/>
      <use xlink:href="#DejaVuSans-72" x="677.832031"/>
      <use xlink:href="#DejaVuSans-65" x="716.695312"/>
      <use xlink:href="#DejaVuSans-73" x="778.21875"/>
     </g>
    </g>
   </g>
   <g id="matplotlib.axis_2">
    <g id="ytick_1">
     <g id="line2d_12">
      <defs>
       <path id="m2762e24f62" d="M 0 0 
L -3.5 0 
" style="stroke: #000000; stroke-width: 0.8"/>
      </defs>
      <g>
       <use xlink:href="#m2762e24f62" x="53.328125" y="491.565585" style="stroke: #000000; stroke-width: 0.8"/>
      </g>
     </g>
     <g id="text_13">
      <!-- 1200 -->
      <g transform="translate(20.878125 495.364804) scale(0.1 -0.1)">
       <use xlink:href="#DejaVuSans-31"/>
       <use xlink:href="#DejaVuSans-32" x="63.623047"/>
       <use xlink:href="#DejaVuSans-30" x="127.246094"/>
       <use xlink:href="#DejaVuSans-30" x="190.869141"/>
      </g>
     </g>
    </g>
    <g id="ytick_2">
     <g id="line2d_13">
      <g>
       <use xlink:href="#m2762e24f62" x="53.328125" y="378.561101" style="stroke: #000000; stroke-width: 0.8"/>
      </g>
     </g>
     <g id="text_14">
      <!-- 1300 -->
      <g transform="translate(20.878125 382.36032) scale(0.1 -0.1)">
       <use xlink:href="#DejaVuSans-31"/>
       <use xlink:href="#DejaVuSans-33" x="63.623047"/>
       <use xlink:href="#DejaVuSans-30" x="127.246094"/>
       <use xlink:href="#DejaVuSans-30" x="190.869141"/>
      </g>
     </g>
    </g>
    <g id="ytick_3">
     <g id="line2d_14">
      <g>
       <use xlink:href="#m2762e24f62" x="53.328125" y="265.556617" style="stroke: #000000; stroke-width: 0.8"/>
      </g>
     </g>
     <g id="text_15">
      <!-- 1400 -->
      <g transform="translate(20.878125 269.355835) scale(0.1 -0.1)">
       <use xlink:href="#DejaVuSans-31"/>
       <use xlink:href="#DejaVuSans-34" x="63.623047"/>
       <use xlink:href="#DejaVuSans-30" x="127.246094"/>
       <use xlink:href="#DejaVuSans-30" x="190.869141"/>
      </g>
     </g>
    </g>
    <g id="ytick_4">
     <g id="line2d_15">
      <g>
       <use xlink:href="#m2762e24f62" x="53.328125" y="152.552132" style="stroke: #000000; stroke-width: 0.8"/>
      </g>
     </g>
     <g id="text_16">
      <!-- 1500 -->
      <g transform="translate(20.878125 156.351351) scale(0.1 -0.1)">
       <use xlink:href="#DejaVuSans-31"/>
       <use xlink:href="#DejaVuSans-35" x="63.623047"/>
       <use xlink:href="#DejaVuSans-30" x="127.246094"/>
       <use xlink:href="#DejaVuSans-30" x="190.869141"/>
      </g>
     </g>
    </g>
    <g id="ytick_5">
     <g id="line2d_16">
      <g>
       <use xlink:href="#m2762e24f62" x="53.328125" y="39.547648" style="stroke: #000000; stroke-width: 0.8"/>
      </g>
     </g>
     <g id="text_17">
      <!-- 1600 -->
      <g transform="translate(20.878125 43.346867) scale(0.1 -0.1)">
       <use xlink:href="#DejaVuSans-31"/>
       <use xlink:href="#DejaVuSans-36" x="63.623047"/>
       <use xlink:href="#DejaVuSans-30" x="127.246094"/>
       <use xlink:href="#DejaVuSans-30" x="190.869141"/>
      </g>
     </g>
    </g>
    <g id="text_18">
     <!-- Time [us] -->
     <g transform="translate(14.798438 336.516156) rotate(-90) scale(0.1 -0.1)">
      <defs>
       <path id="DejaVuSans-54" d="M -19 4666 
L 3928 4666 
L 3928 4134 
L 2272 4134 
L 2272 0 
L 1638 0 
L 1638 4134 
L -19 4134 
L -19 4666 
z
" transform="scale(0.015625)"/>
       <path id="DejaVuSans-69" d="M 603 3500 
L 1178 3500 
L 1178 0 
L 603 0 
L 603 3500 
z
M 603 4863 
L 1178 4863 
L 1178 4134 
L 603 4134 
L 603 4863 
z
" transform="scale(0.015625)"/>
       <path id="DejaVuSans-5b" d="M 550 4863 
L 1875 4863 
L 1875 4416 
L 1125 4416 
L 1125 -397 
L 1875 -397 
L 1875 -844 
L 550 -844 
L 550 4863 
z
" transform="scale(0.015625)"/>
       <path id="DejaVuSans-5d" d="M 1947 4863 
L 1947 -844 
L 622 -844 
L 622 -397 
L 1369 -397 
L 1369 4416 
L 622 4416 
L 622 4863 
L 1947 4863 
z
" transform="scale(0.015625)"/>
      </defs>
      <use xlink:href="#DejaVuSans-54"/>
      <use xlink:href="#DejaVuSans-69" x="57.958984"/>
      <use xlink:href="#DejaVuSans-6d" x="85.742188"/>
      <use xlink:href="#DejaVuSans-65" x="183.154297"/>
      <use xlink:href="#DejaVuSans-20" x="244.677734"/>
      <use xlink:href="#DejaVuSans-5b" x="276.464844"/>
      <use xlink:href="#DejaVuSans-75" x="315.478516"/>
      <use xlink:href="#DejaVuSans-73" x="378.857422"/>
      <use xlink:href="#DejaVuSans-5d" x="430.957031"/>
     </g>
    </g>
   </g>
   <g id="line2d_17">
    <path d="M 60.937216 109.610428 
L 91.37358 109.610428 
" clip-path="url(#pbf73313271)" style="fill: none; stroke: #3f3f3f; stroke-width: 0.9375"/>
   </g>
   <g id="line2d_18">
    <path d="M 91.37358 128.821191 
L 121.809943 128.821191 
" clip-path="url(#pbf73313271)" style="fill: none; stroke: #3f3f3f; stroke-width: 0.9375"/>
   </g>
   <g id="line2d_19">
    <path d="M 137.028125 207.92433 
L 167.464489 207.92433 
" clip-path="url(#pbf73313271)" style="fill: none; stroke: #3f3f3f; stroke-width: 0.9375"/>
   </g>
   <g id="line2d_20">
    <path d="M 167.464489 283.637334 
L 197.900852 283.637334 
" clip-path="url(#pbf73313271)" style="fill: none; stroke: #3f3f3f; stroke-width: 0.9375"/>
   </g>
   <g id="line2d_21">
    <path d="M 213.119034 349.179935 
L 243.555398 349.179935 
" clip-path="url(#pbf73313271)" style="fill: none; stroke: #3f3f3f; stroke-width: 0.9375"/>
   </g>
   <g id="line2d_22">
    <path d="M 243.555398 404.552132 
L 273.991761 404.552132 
" clip-path="url(#pbf73313271)" style="fill: none; stroke: #3f3f3f; stroke-width: 0.9375"/>
   </g>
   <g id="line2d_23">
    <path d="M 289.209943 396.641818 
L 319.646307 396.641818 
" clip-path="url(#pbf73313271)" style="fill: none; stroke: #3f3f3f; stroke-width: 0.9375"/>
   </g>
   <g id="line2d_24">
    <path d="M 319.646307 455.40415 
L 350.08267 455.40415 
" clip-path="url(#pbf73313271)" style="fill: none; stroke: #3f3f3f; stroke-width: 0.9375"/>
   </g>
   <g id="line2d_25">
    <path d="M 365.300852 442.973657 
L 395.737216 442.973657 
" clip-path="url(#pbf73313271)" style="fill: none; stroke: #3f3f3f; stroke-width: 0.9375"/>
   </g>
   <g id="line2d_26">
    <path d="M 395.737216 492.69563 
L 426.17358 492.69563 
" clip-path="url(#pbf73313271)" style="fill: none; stroke: #3f3f3f; stroke-width: 0.9375"/>
   </g>
   <g id="line2d_27">
    <path d="M 441.391761 457.66424 
L 471.828125 457.66424 
" clip-path="url(#pbf73313271)" style="fill: none; stroke: #3f3f3f; stroke-width: 0.9375"/>
   </g>
   <g id="line2d_28">
    <path d="M 471.828125 509.646303 
L 502.264489 509.646303 
" clip-path="url(#pbf73313271)" style="fill: none; stroke: #3f3f3f; stroke-width: 0.9375"/>
   </g>
   <g id="line2d_29">
    <path d="M 517.48267 481.395182 
L 547.919034 481.395182 
" clip-path="url(#pbf73313271)" style="fill: none; stroke: #3f3f3f; stroke-width: 0.9375"/>
   </g>
   <g id="line2d_30">
    <path d="M 547.919034 528.857065 
L 578.355398 528.857065 
" clip-path="url(#pbf73313271)" style="fill: none; stroke: #3f3f3f; stroke-width: 0.9375"/>
   </g>
   <g id="line2d_31">
    <path d="M 593.57358 484.785316 
L 624.009943 484.785316 
" clip-path="url(#pbf73313271)" style="fill: none; stroke: #3f3f3f; stroke-width: 0.9375"/>
   </g>
   <g id="line2d_32">
    <path d="M 624.009943 536.767379 
L 654.446307 536.767379 
" clip-path="url(#pbf73313271)" style="fill: none; stroke: #3f3f3f; stroke-width: 0.9375"/>
   </g>
   <g id="line2d_33">
    <path d="M 669.664489 500.605944 
L 700.100852 500.605944 
" clip-path="url(#pbf73313271)" style="fill: none; stroke: #3f3f3f; stroke-width: 0.9375"/>
   </g>
   <g id="line2d_34">
    <path d="M 700.100852 548.067827 
L 730.537216 548.067827 
" clip-path="url(#pbf73313271)" style="fill: none; stroke: #3f3f3f; stroke-width: 0.9375"/>
   </g>
   <g id="line2d_35">
    <path d="M 745.755398 501.735989 
L 776.191761 501.735989 
" clip-path="url(#pbf73313271)" style="fill: none; stroke: #3f3f3f; stroke-width: 0.9375"/>
   </g>
   <g id="line2d_36">
    <path d="M 776.191761 551.457962 
L 806.628125 551.457962 
" clip-path="url(#pbf73313271)" style="fill: none; stroke: #3f3f3f; stroke-width: 0.9375"/>
   </g>
   <g id="line2d_37">
    <path d="M 821.846307 510.776348 
L 852.28267 510.776348 
" clip-path="url(#pbf73313271)" style="fill: none; stroke: #3f3f3f; stroke-width: 0.9375"/>
   </g>
   <g id="line2d_38">
    <path d="M 852.28267 559.368276 
L 882.719034 559.368276 
" clip-path="url(#pbf73313271)" style="fill: none; stroke: #3f3f3f; stroke-width: 0.9375"/>
   </g>
   <g id="line2d_39">
    <path d="M 53.328125 117.520742 
L 890.328125 117.520742 
" clip-path="url(#pbf73313271)" style="fill: none; stroke-dasharray: 5.55,2.4; stroke-dashoffset: 0; stroke: #000000; stroke-width: 1.5"/>
   </g>
   <g id="patch_5">
    <path d="M 53.328125 590.2185 
L 53.328125 35.8185 
" style="fill: none; stroke: #000000; stroke-width: 0.8; stroke-linejoin: miter; stroke-linecap: square"/>
   </g>
   <g id="patch_6">
    <path d="M 890.328125 590.2185 
L 890.328125 35.8185 
" style="fill: none; stroke: #000000; stroke-width: 0.8; stroke-linejoin: miter; stroke-linecap: square"/>
   </g>
   <g id="patch_7">
    <path d="M 53.328125 590.2185 
L 890.328125 590.2185 
" style="fill: none; stroke: #000000; stroke-width: 0.8; stroke-linejoin: miter; stroke-linecap: square"/>
   </g>
   <g id="patch_8">
    <path d="M 53.328125 35.8185 
L 890.328125 35.8185 
" style="fill: none; stroke: #000000; stroke-width: 0.8; stroke-linejoin: miter; stroke-linecap: square"/>
   </g>
   <g id="text_19">
    <!-- std::vector&lt;Matrix, Eigen::Dynamic, Eigen::Dynamic&gt; (dynamic) vs std::vector&lt;Matrix&lt;double, N, N&gt;&gt; (static) -->
    <g transform="translate(134.152813 16.318125) scale(0.12 -0.12)">
     <defs>
      <path id="DejaVuSans-74" d="M 1172 4494 
L 1172 3500 
L 2356 3500 
L 2356 3053 
L 1172 3053 
L 1172 1153 
Q 1172 725 1289 603 
Q 1406 481 1766 481 
L 2356 481 
L 2356 0 
L 1766 0 
Q 1100 0 847 248 
Q 594 497 594 1153 
L 594 3053 
L 172 3053 
L 172 3500 
L 594 3500 
L 594 4494 
L 1172 4494 
z
" transform="scale(0.015625)"/>
      <path id="DejaVuSans-64" d="M 2906 2969 
L 2906 4863 
L 3481 4863 
L 3481 0 
L 2906 0 
L 2906 525 
Q 2725 213 2448 61 
Q 2172 -91 1784 -91 
Q 1150 -91 751 415 
Q 353 922 353 1747 
Q 353 2572 751 3078 
Q 1150 3584 1784 3584 
Q 2172 3584 2448 3432 
Q 2725 3281 2906 2969 
z
M 947 1747 
Q 947 1113 1208 752 
Q 1469 391 1925 391 
Q 2381 391 2643 752 
Q 2906 1113 2906 1747 
Q 2906 2381 2643 2742 
Q 2381 3103 1925 3103 
Q 1469 3103 1208 2742 
Q 947 2381 947 1747 
z
" transform="scale(0.015625)"/>
      <path id="DejaVuSans-3a" d="M 750 794 
L 1409 794 
L 1409 0 
L 750 0 
L 750 794 
z
M 750 3309 
L 1409 3309 
L 1409 2516 
L 750 2516 
L 750 3309 
z
" transform="scale(0.015625)"/>
      <path id="DejaVuSans-76" d="M 191 3500 
L 800 3500 
L 1894 563 
L 2988 3500 
L 3597 3500 
L 2284 0 
L 1503 0 
L 191 3500 
z
" transform="scale(0.015625)"/>
      <path id="DejaVuSans-3c" d="M 4684 3150 
L 1459 2003 
L 4684 863 
L 4684 294 
L 678 1747 
L 678 2266 
L 4684 3719 
L 4684 3150 
z
" transform="scale(0.015625)"/>
      <path id="DejaVuSans-4d" d="M 628 4666 
L 1569 4666 
L 2759 1491 
L 3956 4666 
L 4897 4666 
L 4897 0 
L 4281 0 
L 4281 4097 
L 3078 897 
L 2444 897 
L 1241 4097 
L 1241 0 
L 628 0 
L 628 4666 
z
" transform="scale(0.015625)"/>
      <path id="DejaVuSans-61" d="M 2194 1759 
Q 1497 1759 1228 1600 
Q 959 1441 959 1056 
Q 959 750 1161 570 
Q 1363 391 1709 391 
Q 2188 391 2477 730 
Q 2766 1069 2766 1631 
L 2766 1759 
L 2194 1759 
z
M 3341 1997 
L 3341 0 
L 2766 0 
L 2766 531 
Q 2569 213 2275 61 
Q 1981 -91 1556 -91 
Q 1019 -91 701 211 
Q 384 513 384 1019 
Q 384 1609 779 1909 
Q 1175 2209 1959 2209 
L 2766 2209 
L 2766 2266 
Q 2766 2663 2505 2880 
Q 2244 3097 1772 3097 
Q 1472 3097 1187 3025 
Q 903 2953 641 2809 
L 641 3341 
Q 956 3463 1253 3523 
Q 1550 3584 1831 3584 
Q 2591 3584 2966 3190 
Q 3341 2797 3341 1997 
z
" transform="scale(0.015625)"/>
      <path id="DejaVuSans-78" d="M 3513 3500 
L 2247 1797 
L 3578 0 
L 2900 0 
L 1881 1375 
L 863 0 
L 184 0 
L 1544 1831 
L 300 3500 
L 978 3500 
L 1906 2253 
L 2834 3500 
L 3513 3500 
z
" transform="scale(0.015625)"/>
      <path id="DejaVuSans-2c" d="M 750 794 
L 1409 794 
L 1409 256 
L 897 -744 
L 494 -744 
L 750 256 
L 750 794 
z
" transform="scale(0.015625)"/>
      <path id="DejaVuSans-45" d="M 628 4666 
L 3578 4666 
L 3578 4134 
L 1259 4134 
L 1259 2753 
L 3481 2753 
L 3481 2222 
L 1259 2222 
L 1259 531 
L 3634 531 
L 3634 0 
L 628 0 
L 628 4666 
z
" transform="scale(0.015625)"/>
      <path id="DejaVuSans-67" d="M 2906 1791 
Q 2906 2416 2648 2759 
Q 2391 3103 1925 3103 
Q 1463 3103 1205 2759 
Q 947 2416 947 1791 
Q 947 1169 1205 825 
Q 1463 481 1925 481 
Q 2391 481 2648 825 
Q 2906 1169 2906 1791 
z
M 3481 434 
Q 3481 -459 3084 -895 
Q 2688 -1331 1869 -1331 
Q 1566 -1331 1297 -1286 
Q 1028 -1241 775 -1147 
L 775 -588 
Q 1028 -725 1275 -790 
Q 1522 -856 1778 -856 
Q 2344 -856 2625 -561 
Q 2906 -266 2906 331 
L 2906 616 
Q 2728 306 2450 153 
Q 2172 0 1784 0 
Q 1141 0 747 490 
Q 353 981 353 1791 
Q 353 2603 747 3093 
Q 1141 3584 1784 3584 
Q 2172 3584 2450 3431 
Q 2728 3278 2906 2969 
L 2906 3500 
L 3481 3500 
L 3481 434 
z
" transform="scale(0.015625)"/>
      <path id="DejaVuSans-6e" d="M 3513 2113 
L 3513 0 
L 2938 0 
L 2938 2094 
Q 2938 2591 2744 2837 
Q 2550 3084 2163 3084 
Q 1697 3084 1428 2787 
Q 1159 2491 1159 1978 
L 1159 0 
L 581 0 
L 581 3500 
L 1159 3500 
L 1159 2956 
Q 1366 3272 1645 3428 
Q 1925 3584 2291 3584 
Q 2894 3584 3203 3211 
Q 3513 2838 3513 2113 
z
" transform="scale(0.015625)"/>
      <path id="DejaVuSans-44" d="M 1259 4147 
L 1259 519 
L 2022 519 
Q 2988 519 3436 956 
Q 3884 1394 3884 2338 
Q 3884 3275 3436 3711 
Q 2988 4147 2022 4147 
L 1259 4147 
z
M 628 4666 
L 1925 4666 
Q 3281 4666 3915 4102 
Q 4550 3538 4550 2338 
Q 4550 1131 3912 565 
Q 3275 0 1925 0 
L 628 0 
L 628 4666 
z
" transform="scale(0.015625)"/>
      <path id="DejaVuSans-79" d="M 2059 -325 
Q 1816 -950 1584 -1140 
Q 1353 -1331 966 -1331 
L 506 -1331 
L 506 -850 
L 844 -850 
Q 1081 -850 1212 -737 
Q 1344 -625 1503 -206 
L 1606 56 
L 191 3500 
L 800 3500 
L 1894 763 
L 2988 3500 
L 3597 3500 
L 2059 -325 
z
" transform="scale(0.015625)"/>
      <path id="DejaVuSans-3e" d="M 678 3150 
L 678 3719 
L 4684 2266 
L 4684 1747 
L 678 294 
L 678 863 
L 3897 2003 
L 678 3150 
z
" transform="scale(0.015625)"/>
      <path id="DejaVuSans-28" d="M 1984 4856 
Q 1566 4138 1362 3434 
Q 1159 2731 1159 2009 
Q 1159 1288 1364 580 
Q 1569 -128 1984 -844 
L 1484 -844 
Q 1016 -109 783 600 
Q 550 1309 550 2009 
Q 550 2706 781 3412 
Q 1013 4119 1484 4856 
L 1984 4856 
z
" transform="scale(0.015625)"/>
      <path id="DejaVuSans-29" d="M 513 4856 
L 1013 4856 
Q 1481 4119 1714 3412 
Q 1947 2706 1947 2009 
Q 1947 1309 1714 600 
Q 1481 -109 1013 -844 
L 513 -844 
Q 928 -128 1133 580 
Q 1338 1288 1338 2009 
Q 1338 2731 1133 3434 
Q 928 4138 513 4856 
z
" transform="scale(0.015625)"/>
      <path id="DejaVuSans-6c" d="M 603 4863 
L 1178 4863 
L 1178 0 
L 603 0 
L 603 4863 
z
" transform="scale(0.015625)"/>
     </defs>
     <use xlink:href="#DejaVuSans-73"/>
     <use xlink:href="#DejaVuSans-74" x="52.099609"/>
     <use xlink:href="#DejaVuSans-64" x="91.308594"/>
     <use xlink:href="#DejaVuSans-3a" x="154.785156"/>
     <use xlink:href="#DejaVuSans-3a" x="188.476562"/>
     <use xlink:href="#DejaVuSans-76" x="222.167969"/>
     <use xlink:href="#DejaVuSans-65" x="281.347656"/>
     <use xlink:href="#DejaVuSans-63" x="342.871094"/>
     <use xlink:href="#DejaVuSans-74" x="397.851562"/>
     <use xlink:href="#DejaVuSans-6f" x="437.060547"/>
     <use xlink:href="#DejaVuSans-72" x="498.242188"/>
     <use xlink:href="#DejaVuSans-3c" x="539.355469"/>
     <use xlink:href="#DejaVuSans-4d" x="623.144531"/>
     <use xlink:href="#DejaVuSans-61" x="709.423828"/>
     <use xlink:href="#DejaVuSans-74" x="770.703125"/>
     <use xlink:href="#DejaVuSans-72" x="809.912109"/>
     <use xlink:href="#DejaVuSans-69" x="851.025391"/>
     <use xlink:href="#DejaVuSans-78" x="878.808594"/>
     <use xlink:href="#DejaVuSans-2c" x="937.988281"/>
     <use xlink:href="#DejaVuSans-20" x="969.775391"/>
     <use xlink:href="#DejaVuSans-45" x="1001.5625"/>
     <use xlink:href="#DejaVuSans-69" x="1064.746094"/>
     <use xlink:href="#DejaVuSans-67" x="1092.529297"/>
     <use xlink:href="#DejaVuSans-65" x="1156.005859"/>
     <use xlink:href="#DejaVuSans-6e" x="1217.529297"/>
     <use xlink:href="#DejaVuSans-3a" x="1280.908203"/>
     <use xlink:href="#DejaVuSans-3a" x="1314.599609"/>
     <use xlink:href="#DejaVuSans-44" x="1348.291016"/>
     <use xlink:href="#DejaVuSans-79" x="1425.292969"/>
     <use xlink:href="#DejaVuSans-6e" x="1484.472656"/>
     <use xlink:href="#DejaVuSans-61" x="1547.851562"/>
     <use xlink:href="#DejaVuSans-6d" x="1609.130859"/>
     <use xlink:href="#DejaVuSans-69" x="1706.542969"/>
     <use xlink:href="#DejaVuSans-63" x="1734.326172"/>
     <use xlink:href="#DejaVuSans-2c" x="1789.306641"/>
     <use xlink:href="#DejaVuSans-20" x="1821.09375"/>
     <use xlink:href="#DejaVuSans-45" x="1852.880859"/>
     <use xlink:href="#DejaVuSans-69" x="1916.064453"/>
     <use xlink:href="#DejaVuSans-67" x="1943.847656"/>
     <use xlink:href="#DejaVuSans-65" x="2007.324219"/>
     <use xlink:href="#DejaVuSans-6e" x="2068.847656"/>
     <use xlink:href="#DejaVuSans-3a" x="2132.226562"/>
     <use xlink:href="#DejaVuSans-3a" x="2165.917969"/>
     <use xlink:href="#DejaVuSans-44" x="2199.609375"/>
     <use xlink:href="#DejaVuSans-79" x="2276.611328"/>
     <use xlink:href="#DejaVuSans-6e" x="2335.791016"/>
     <use xlink:href="#DejaVuSans-61" x="2399.169922"/>
     <use xlink:href="#DejaVuSans-6d" x="2460.449219"/>
     <use xlink:href="#DejaVuSans-69" x="2557.861328"/>
     <use xlink:href="#DejaVuSans-63" x="2585.644531"/>
     <use xlink:href="#DejaVuSans-3e" x="2640.625"/>
     <use xlink:href="#DejaVuSans-20" x="2724.414062"/>
     <use xlink:href="#DejaVuSans-28" x="2756.201172"/>
     <use xlink:href="#DejaVuSans-64" x="2795.214844"/>
     <use xlink:href="#DejaVuSans-79" x="2858.691406"/>
     <use xlink:href="#DejaVuSans-6e" x="2917.871094"/>
     <use xlink:href="#DejaVuSans-61" x="2981.25"/>
     <use xlink:href="#DejaVuSans-6d" x="3042.529297"/>
     <use xlink:href="#DejaVuSans-69" x="3139.941406"/>
     <use xlink:href="#DejaVuSans-63" x="3167.724609"/>
     <use xlink:href="#DejaVuSans-29" x="3222.705078"/>
     <use xlink:href="#DejaVuSans-20" x="3261.71875"/>
     <use xlink:href="#DejaVuSans-76" x="3293.505859"/>
     <use xlink:href="#DejaVuSans-73" x="3352.685547"/>
     <use xlink:href="#DejaVuSans-20" x="3404.785156"/>
     <use xlink:href="#DejaVuSans-73" x="3436.572266"/>
     <use xlink:href="#DejaVuSans-74" x="3488.671875"/>
     <use xlink:href="#DejaVuSans-64" x="3527.880859"/>
     <use xlink:href="#DejaVuSans-3a" x="3591.357422"/>
     <use xlink:href="#DejaVuSans-3a" x="3625.048828"/>
     <use xlink:href="#DejaVuSans-76" x="3658.740234"/>
     <use xlink:href="#DejaVuSans-65" x="3717.919922"/>
     <use xlink:href="#DejaVuSans-63" x="3779.443359"/>
     <use xlink:href="#DejaVuSans-74" x="3834.423828"/>
     <use xlink:href="#DejaVuSans-6f" x="3873.632812"/>
     <use xlink:href="#DejaVuSans-72" x="3934.814453"/>
     <use xlink:href="#DejaVuSans-3c" x="3975.927734"/>
     <use xlink:href="#DejaVuSans-4d" x="4059.716797"/>
     <use xlink:href="#DejaVuSans-61" x="4145.996094"/>
     <use xlink:href="#DejaVuSans-74" x="4207.275391"/>
     <use xlink:href="#DejaVuSans-72" x="4246.484375"/>
     <use xlink:href="#DejaVuSans-69" x="4287.597656"/>
     <use xlink:href="#DejaVuSans-78" x="4315.380859"/>
     <use xlink:href="#DejaVuSans-3c" x="4374.560547"/>
     <use xlink:href="#DejaVuSans-64" x="4458.349609"/>
     <use xlink:href="#DejaVuSans-6f" x="4521.826172"/>
     <use xlink:href="#DejaVuSans-75" x="4583.007812"/>
     <use xlink:href="#DejaVuSans-62" x="4646.386719"/>
     <use xlink:href="#DejaVuSans-6c" x="4709.863281"/>
     <use xlink:href="#DejaVuSans-65" x="4737.646484"/>
     <use xlink:href="#DejaVuSans-2c" x="4799.169922"/>
     <use xlink:href="#DejaVuSans-20" x="4830.957031"/>
     <use xlink:href="#DejaVuSans-4e" x="4862.744141"/>
     <use xlink:href="#DejaVuSans-2c" x="4937.548828"/>
     <use xlink:href="#DejaVuSans-20" x="4969.335938"/>
     <use xlink:href="#DejaVuSans-4e" x="5001.123047"/>
     <use xlink:href="#DejaVuSans-3e" x="5075.927734"/>
     <use xlink:href="#DejaVuSans-3e" x="5159.716797"/>
     <use xlink:href="#DejaVuSans-20" x="5243.505859"/>
     <use xlink:href="#DejaVuSans-28" x="5275.292969"/>
     <use xlink:href="#DejaVuSans-73" x="5314.306641"/>
     <use xlink:href="#DejaVuSans-74" x="5366.40625"/>
     <use xlink:href="#DejaVuSans-61" x="5405.615234"/>
     <use xlink:href="#DejaVuSans-74" x="5466.894531"/>
     <use xlink:href="#DejaVuSans-69" x="5506.103516"/>
     <use xlink:href="#DejaVuSans-63" x="5533.886719"/>
     <use xlink:href="#DejaVuSans-29" x="5588.867188"/>
    </g>
    <!-- miyanoura | AMD Ryzen 9 5950X 16-Core Processor -->
    <g transform="translate(316.5875 29.8185) scale(0.12 -0.12)">
     <defs>
      <path id="DejaVuSans-7c" d="M 1344 4891 
L 1344 -1509 
L 813 -1509 
L 813 4891 
L 1344 4891 
z
" transform="scale(0.015625)"/>
      <path id="DejaVuSans-41" d="M 2188 4044 
L 1331 1722 
L 3047 1722 
L 2188 4044 
z
M 1831 4666 
L 2547 4666 
L 4325 0 
L 3669 0 
L 3244 1197 
L 1141 1197 
L 716 0 
L 50 0 
L 1831 4666 
z
" transform="scale(0.015625)"/>
      <path id="DejaVuSans-52" d="M 2841 2188 
Q 3044 2119 3236 1894 
Q 3428 1669 3622 1275 
L 4263 0 
L 3584 0 
L 2988 1197 
Q 2756 1666 2539 1819 
Q 2322 1972 1947 1972 
L 1259 1972 
L 1259 0 
L 628 0 
L 628 4666 
L 2053 4666 
Q 2853 4666 3247 4331 
Q 3641 3997 3641 3322 
Q 3641 2881 3436 2590 
Q 3231 2300 2841 2188 
z
M 1259 4147 
L 1259 2491 
L 2053 2491 
Q 2509 2491 2742 2702 
Q 2975 2913 2975 3322 
Q 2975 3731 2742 3939 
Q 2509 4147 2053 4147 
L 1259 4147 
z
" transform="scale(0.015625)"/>
      <path id="DejaVuSans-7a" d="M 353 3500 
L 3084 3500 
L 3084 2975 
L 922 459 
L 3084 459 
L 3084 0 
L 275 0 
L 275 525 
L 2438 3041 
L 353 3041 
L 353 3500 
z
" transform="scale(0.015625)"/>
      <path id="DejaVuSans-58" d="M 403 4666 
L 1081 4666 
L 2241 2931 
L 3406 4666 
L 4084 4666 
L 2584 2425 
L 4184 0 
L 3506 0 
L 2194 1984 
L 872 0 
L 191 0 
L 1856 2491 
L 403 4666 
z
" transform="scale(0.015625)"/>
      <path id="DejaVuSans-2d" d="M 313 2009 
L 1997 2009 
L 1997 1497 
L 313 1497 
L 313 2009 
z
" transform="scale(0.015625)"/>
      <path id="DejaVuSans-43" d="M 4122 4306 
L 4122 3641 
Q 3803 3938 3442 4084 
Q 3081 4231 2675 4231 
Q 1875 4231 1450 3742 
Q 1025 3253 1025 2328 
Q 1025 1406 1450 917 
Q 1875 428 2675 428 
Q 3081 428 3442 575 
Q 3803 722 4122 1019 
L 4122 359 
Q 3791 134 3420 21 
Q 3050 -91 2638 -91 
Q 1578 -91 968 557 
Q 359 1206 359 2328 
Q 359 3453 968 4101 
Q 1578 4750 2638 4750 
Q 3056 4750 3426 4639 
Q 3797 4528 4122 4306 
z
" transform="scale(0.015625)"/>
      <path id="DejaVuSans-50" d="M 1259 4147 
L 1259 2394 
L 2053 2394 
Q 2494 2394 2734 2622 
Q 2975 2850 2975 3272 
Q 2975 3691 2734 3919 
Q 2494 4147 2053 4147 
L 1259 4147 
z
M 628 4666 
L 2053 4666 
Q 2838 4666 3239 4311 
Q 3641 3956 3641 3272 
Q 3641 2581 3239 2228 
Q 2838 1875 2053 1875 
L 1259 1875 
L 1259 0 
L 628 0 
L 628 4666 
z
" transform="scale(0.015625)"/>
     </defs>
     <use xlink:href="#DejaVuSans-6d"/>
     <use xlink:href="#DejaVuSans-69" x="97.412109"/>
     <use xlink:href="#DejaVuSans-79" x="125.195312"/>
     <use xlink:href="#DejaVuSans-61" x="184.375"/>
     <use xlink:href="#DejaVuSans-6e" x="245.654297"/>
     <use xlink:href="#DejaVuSans-6f" x="309.033203"/>
     <use xlink:href="#DejaVuSans-75" x="370.214844"/>
     <use xlink:href="#DejaVuSans-72" x="433.59375"/>
     <use xlink:href="#DejaVuSans-61" x="474.707031"/>
     <use xlink:href="#DejaVuSans-20" x="535.986328"/>
     <use xlink:href="#DejaVuSans-7c" x="567.773438"/>
     <use xlink:href="#DejaVuSans-20" x="601.464844"/>
     <use xlink:href="#DejaVuSans-41" x="633.251953"/>
     <use xlink:href="#DejaVuSans-4d" x="701.660156"/>
     <use xlink:href="#DejaVuSans-44" x="787.939453"/>
     <use xlink:href="#DejaVuSans-20" x="864.941406"/>
     <use xlink:href="#DejaVuSans-52" x="896.728516"/>
     <use xlink:href="#DejaVuSans-79" x="960.710938"/>
     <use xlink:href="#DejaVuSans-7a" x="1019.890625"/>
     <use xlink:href="#DejaVuSans-65" x="1072.380859"/>
     <use xlink:href="#DejaVuSans-6e" x="1133.904297"/>
     <use xlink:href="#DejaVuSans-20" x="1197.283203"/>
     <use xlink:href="#DejaVuSans-39" x="1229.070312"/>
     <use xlink:href="#DejaVuSans-20" x="1292.693359"/>
     <use xlink:href="#DejaVuSans-35" x="1324.480469"/>
     <use xlink:href="#DejaVuSans-39" x="1388.103516"/>
     <use xlink:href="#DejaVuSans-35" x="1451.726562"/>
     <use xlink:href="#DejaVuSans-30" x="1515.349609"/>
     <use xlink:href="#DejaVuSans-58" x="1578.972656"/>
     <use xlink:href="#DejaVuSans-20" x="1647.478516"/>
     <use xlink:href="#DejaVuSans-31" x="1679.265625"/>
     <use xlink:href="#DejaVuSans-36" x="1742.888672"/>
     <use xlink:href="#DejaVuSans-2d" x="1806.511719"/>
     <use xlink:href="#DejaVuSans-43" x="1842.595703"/>
     <use xlink:href="#DejaVuSans-6f" x="1912.419922"/>
     <use xlink:href="#DejaVuSans-72" x="1973.601562"/>
     <use xlink:href="#DejaVuSans-65" x="2012.464844"/>
     <use xlink:href="#DejaVuSans-20" x="2073.988281"/>
     <use xlink:href="#DejaVuSans-50" x="2105.775391"/>
     <use xlink:href="#DejaVuSans-72" x="2164.328125"/>
     <use xlink:href="#DejaVuSans-6f" x="2203.191406"/>
     <use xlink:href="#DejaVuSans-63" x="2264.373047"/>
     <use xlink:href="#DejaVuSans-65" x="2319.353516"/>
     <use xlink:href="#DejaVuSans-73" x="2380.876953"/>
     <use xlink:href="#DejaVuSans-73" x="2432.976562"/>
     <use xlink:href="#DejaVuSans-6f" x="2485.076172"/>
     <use xlink:href="#DejaVuSans-72" x="2546.257812"/>
    </g>
   </g>
   <g id="legend_1">
    <g id="patch_9">
     <path d="M 729.315625 87.852875 
L 883.328125 87.852875 
Q 885.328125 87.852875 885.328125 85.852875 
L 885.328125 42.8185 
Q 885.328125 40.8185 883.328125 40.8185 
L 729.315625 40.8185 
Q 727.315625 40.8185 727.315625 42.8185 
L 727.315625 85.852875 
Q 727.315625 87.852875 729.315625 87.852875 
z
" style="fill: #ffffff; opacity: 0.8; stroke: #cccccc; stroke-linejoin: miter"/>
    </g>
    <g id="patch_10">
     <path d="M 731.315625 52.416938 
L 751.315625 52.416938 
L 751.315625 45.416938 
L 731.315625 45.416938 
z
" style="fill: #3274a1; stroke: #3f3f3f; stroke-width: 0.75; stroke-linejoin: miter"/>
    </g>
    <g id="text_20">
     <!-- dynamic -->
     <g transform="translate(759.315625 52.416938) scale(0.1 -0.1)">
      <use xlink:href="#DejaVuSans-64"/>
      <use xlink:href="#DejaVuSans-79" x="63.476562"/>
      <use xlink:href="#DejaVuSans-6e" x="122.65625"/>
      <use xlink:href="#DejaVuSans-61" x="186.035156"/>
      <use xlink:href="#DejaVuSans-6d" x="247.314453"/>
      <use xlink:href="#DejaVuSans-69" x="344.726562"/>
      <use xlink:href="#DejaVuSans-63" x="372.509766"/>
     </g>
    </g>
    <g id="patch_11">
     <path d="M 731.315625 67.095063 
L 751.315625 67.095063 
L 751.315625 60.095063 
L 731.315625 60.095063 
z
" style="fill: #e1812c; stroke: #3f3f3f; stroke-width: 0.75; stroke-linejoin: miter"/>
    </g>
    <g id="text_21">
     <!-- static -->
     <g transform="translate(759.315625 67.095063) scale(0.1 -0.1)">
      <use xlink:href="#DejaVuSans-73"/>
      <use xlink:href="#DejaVuSans-74" x="52.099609"/>
      <use xlink:href="#DejaVuSans-61" x="91.308594"/>
      <use xlink:href="#DejaVuSans-74" x="152.587891"/>
      <use xlink:href="#DejaVuSans-69" x="191.796875"/>
      <use xlink:href="#DejaVuSans-63" x="219.580078"/>
     </g>
    </g>
    <g id="line2d_40">
     <path d="M 731.315625 78.273188 
L 741.315625 78.273188 
L 751.315625 78.273188 
" style="fill: none; stroke-dasharray: 5.55,2.4; stroke-dashoffset: 0; stroke: #000000; stroke-width: 1.5"/>
    </g>
    <g id="text_22">
     <!-- Single core median time -->
     <g transform="translate(759.315625 81.773188) scale(0.1 -0.1)">
      <defs>
       <path id="DejaVuSans-53" d="M 3425 4513 
L 3425 3897 
Q 3066 4069 2747 4153 
Q 2428 4238 2131 4238 
Q 1616 4238 1336 4038 
Q 1056 3838 1056 3469 
Q 1056 3159 1242 3001 
Q 1428 2844 1947 2747 
L 2328 2669 
Q 3034 2534 3370 2195 
Q 3706 1856 3706 1288 
Q 3706 609 3251 259 
Q 2797 -91 1919 -91 
Q 1588 -91 1214 -16 
Q 841 59 441 206 
L 441 856 
Q 825 641 1194 531 
Q 1563 422 1919 422 
Q 2459 422 2753 634 
Q 3047 847 3047 1241 
Q 3047 1584 2836 1778 
Q 2625 1972 2144 2069 
L 1759 2144 
Q 1053 2284 737 2584 
Q 422 2884 422 3419 
Q 422 4038 858 4394 
Q 1294 4750 2059 4750 
Q 2388 4750 2728 4690 
Q 3069 4631 3425 4513 
z
" transform="scale(0.015625)"/>
      </defs>
      <use xlink:href="#DejaVuSans-53"/>
      <use xlink:href="#DejaVuSans-69" x="63.476562"/>
      <use xlink:href="#DejaVuSans-6e" x="91.259766"/>
      <use xlink:href="#DejaVuSans-67" x="154.638672"/>
      <use xlink:href="#DejaVuSans-6c" x="218.115234"/>
      <use xlink:href="#DejaVuSans-65" x="245.898438"/>
      <use xlink:href="#DejaVuSans-20" x="307.421875"/>
      <use xlink:href="#DejaVuSans-63" x="339.208984"/>
      <use xlink:href="#DejaVuSans-6f" x="394.189453"/>
      <use xlink:href="#DejaVuSans-72" x="455.371094"/>
      <use xlink:href="#DejaVuSans-65" x="494.234375"/>
      <use xlink:href="#DejaVuSans-20" x="555.757812"/>
      <use xlink:href="#DejaVuSans-6d" x="587.544922"/>
      <use xlink:href="#DejaVuSans-65" x="684.957031"/>
      <use xlink:href="#DejaVuSans-64" x="746.480469"/>
      <use xlink:href="#DejaVuSans-69" x="809.957031"/>
      <use xlink:href="#DejaVuSans-61" x="837.740234"/>
      <use xlink:href="#DejaVuSans-6e" x="899.019531"/>
      <use xlink:href="#DejaVuSans-20" x="962.398438"/>
      <use xlink:href="#DejaVuSans-74" x="994.185547"/>
      <use xlink:href="#DejaVuSans-69" x="1033.394531"/>
      <use xlink:href="#DejaVuSans-6d" x="1061.177734"/>
      <use xlink:href="#DejaVuSans-65" x="1158.589844"/>
     </g>
    </g>
   </g>
  </g>
 </g>
 <defs>
  <clipPath id="pbf73313271">
   <rect x="53.328125" y="35.8185" width="837" height="554.4"/>
  </clipPath>
 </defs>
</svg>
