<?xml version="1.0" encoding="utf-8" standalone="no"?>
<!DOCTYPE svg PUBLIC "-//W3C//DTD SVG 1.1//EN"
  "http://www.w3.org/Graphics/SVG/1.1/DTD/svg11.dtd">
<svg xmlns:xlink="http://www.w3.org/1999/xlink" width="891.165625pt" height="628.1085pt" viewBox="0 0 891.165625 628.1085" xmlns="http://www.w3.org/2000/svg" version="1.1">
 <metadata>
  <rdf:RDF xmlns:dc="http://purl.org/dc/elements/1.1/" xmlns:cc="http://creativecommons.org/ns#" xmlns:rdf="http://www.w3.org/1999/02/22-rdf-syntax-ns#">
   <cc:Work>
    <dc:type rdf:resource="http://purl.org/dc/dcmitype/StillImage"/>
    <dc:date>2025-01-10T10:21:15.870106</dc:date>
    <dc:format>image/svg+xml</dc:format>
    <dc:creator>
     <cc:Agent>
      <dc:title>Matplotlib v3.9.2, https://matplotlib.org/</dc:title>
     </cc:Agent>
    </dc:creator>
   </cc:Work>
  </rdf:RDF>
 </metadata>
 <defs>
  <style type="text/css">*{stroke-linejoin: round; stroke-linecap: butt}</style>
 </defs>
 <g id="figure_1">
  <g id="patch_1">
   <path d="M 0 628.1085 
L 891.165625 628.1085 
L 891.165625 0 
L 0 0 
z
" style="fill: #ffffff"/>
  </g>
  <g id="axes_1">
   <g id="patch_2">
    <path d="M 46.965625 590.55225 
L 883.965625 590.55225 
L 883.965625 36.15225 
L 46.965625 36.15225 
z
" style="fill: #ffffff"/>
   </g>
   <g id="PatchCollection_1">
    <path d="M 80.96875 152.988614 
L 82.7125 152.988614 
L 82.7125 152.988614 
L 80.96875 152.988614 
z
" clip-path="url(#p99944496a3)" style="fill: #b4c9d9; stroke: #3f3f3f; stroke-width: 0.75"/>
    <path d="M 80.096875 152.988614 
L 83.584375 152.988614 
L 83.584375 152.988614 
L 80.096875 152.988614 
z
" clip-path="url(#p99944496a3)" style="fill: #a4bfd2; stroke: #3f3f3f; stroke-width: 0.75"/>
    <path d="M 78.353125 152.988614 
L 85.328125 152.988614 
L 85.328125 152.988614 
L 78.353125 152.988614 
z
" clip-path="url(#p99944496a3)" style="fill: #90b2ca; stroke: #3f3f3f; stroke-width: 0.75"/>
    <path d="M 74.865625 152.988614 
L 88.815625 152.988614 
L 88.815625 152.013759 
L 74.865625 152.013759 
z
" clip-path="url(#p99944496a3)" style="fill: #78a2bf; stroke: #3f3f3f; stroke-width: 0.75"/>
    <path d="M 67.890625 152.013759 
L 95.790625 152.013759 
L 95.790625 152.013759 
L 67.890625 152.013759 
z
" clip-path="url(#p99944496a3)" style="fill: #588db2; stroke: #3f3f3f; stroke-width: 0.75"/>
    <path d="M 53.940625 152.013759 
L 109.740625 152.013759 
L 109.740625 146.164629 
L 53.940625 146.164629 
z
" clip-path="url(#p99944496a3)" style="fill: #3274a1; stroke: #3f3f3f; stroke-width: 0.75"/>
    <path d="M 67.890625 146.164629 
L 95.790625 146.164629 
L 95.790625 141.290354 
L 67.890625 141.290354 
z
" clip-path="url(#p99944496a3)" style="fill: #588db2; stroke: #3f3f3f; stroke-width: 0.75"/>
    <path d="M 74.865625 141.290354 
L 88.815625 141.290354 
L 88.815625 130.56695 
L 74.865625 130.56695 
z
" clip-path="url(#p99944496a3)" style="fill: #78a2bf; stroke: #3f3f3f; stroke-width: 0.75"/>
    <path d="M 78.353125 130.56695 
L 85.328125 130.56695 
L 85.328125 111.069852 
L 78.353125 111.069852 
z
" clip-path="url(#p99944496a3)" style="fill: #90b2ca; stroke: #3f3f3f; stroke-width: 0.75"/>
    <path d="M 80.096875 111.069852 
L 83.584375 111.069852 
L 83.584375 82.052685 
L 80.096875 82.052685 
z
" clip-path="url(#p99944496a3)" style="fill: #a4bfd2; stroke: #3f3f3f; stroke-width: 0.75"/>
    <path d="M 80.96875 82.052685 
L 82.7125 82.052685 
L 82.7125 61.35225 
L 80.96875 61.35225 
z
" clip-path="url(#p99944496a3)" style="fill: #b4c9d9; stroke: #3f3f3f; stroke-width: 0.75"/>
   </g>
   <g id="PatchCollection_2">
    <path d="M 150.71875 379.154958 
L 152.4625 379.154958 
L 152.4625 378.180103 
L 150.71875 378.180103 
z
" clip-path="url(#p99944496a3)" style="fill: #b4c9d9; stroke: #3f3f3f; stroke-width: 0.75"/>
    <path d="M 149.846875 378.180103 
L 153.334375 378.180103 
L 153.334375 378.180103 
L 149.846875 378.180103 
z
" clip-path="url(#p99944496a3)" style="fill: #a4bfd2; stroke: #3f3f3f; stroke-width: 0.75"/>
    <path d="M 148.103125 378.180103 
L 155.078125 378.180103 
L 155.078125 378.180103 
L 148.103125 378.180103 
z
" clip-path="url(#p99944496a3)" style="fill: #90b2ca; stroke: #3f3f3f; stroke-width: 0.75"/>
    <path d="M 144.615625 378.180103 
L 158.565625 378.180103 
L 158.565625 377.205248 
L 144.615625 377.205248 
z
" clip-path="url(#p99944496a3)" style="fill: #78a2bf; stroke: #3f3f3f; stroke-width: 0.75"/>
    <path d="M 137.640625 377.205248 
L 165.540625 377.205248 
L 165.540625 375.255538 
L 137.640625 375.255538 
z
" clip-path="url(#p99944496a3)" style="fill: #588db2; stroke: #3f3f3f; stroke-width: 0.75"/>
    <path d="M 123.690625 375.255538 
L 179.490625 375.255538 
L 179.490625 372.330973 
L 123.690625 372.330973 
z
" clip-path="url(#p99944496a3)" style="fill: #3274a1; stroke: #3f3f3f; stroke-width: 0.75"/>
    <path d="M 137.640625 372.330973 
L 165.540625 372.330973 
L 165.540625 367.456699 
L 137.640625 367.456699 
z
" clip-path="url(#p99944496a3)" style="fill: #588db2; stroke: #3f3f3f; stroke-width: 0.75"/>
    <path d="M 144.615625 367.456699 
L 158.565625 367.456699 
L 158.565625 360.632714 
L 144.615625 360.632714 
z
" clip-path="url(#p99944496a3)" style="fill: #78a2bf; stroke: #3f3f3f; stroke-width: 0.75"/>
    <path d="M 148.103125 360.632714 
L 155.078125 360.632714 
L 155.078125 352.833875 
L 148.103125 352.833875 
z
" clip-path="url(#p99944496a3)" style="fill: #90b2ca; stroke: #3f3f3f; stroke-width: 0.75"/>
    <path d="M 149.846875 352.833875 
L 153.334375 352.833875 
L 153.334375 342.110471 
L 149.846875 342.110471 
z
" clip-path="url(#p99944496a3)" style="fill: #a4bfd2; stroke: #3f3f3f; stroke-width: 0.75"/>
    <path d="M 150.71875 342.110471 
L 152.4625 342.110471 
L 152.4625 241.083512 
L 150.71875 241.083512 
z
" clip-path="url(#p99944496a3)" style="fill: #b4c9d9; stroke: #3f3f3f; stroke-width: 0.75"/>
   </g>
   <g id="PatchCollection_3">
    <path d="M 220.46875 454.218788 
L 222.2125 454.218788 
L 222.2125 454.218788 
L 220.46875 454.218788 
z
" clip-path="url(#p99944496a3)" style="fill: #b4c9d9; stroke: #3f3f3f; stroke-width: 0.75"/>
    <path d="M 219.596875 454.218788 
L 223.084375 454.218788 
L 223.084375 452.269078 
L 219.596875 452.269078 
z
" clip-path="url(#p99944496a3)" style="fill: #a4bfd2; stroke: #3f3f3f; stroke-width: 0.75"/>
    <path d="M 217.853125 452.269078 
L 224.828125 452.269078 
L 224.828125 452.269078 
L 217.853125 452.269078 
z
" clip-path="url(#p99944496a3)" style="fill: #90b2ca; stroke: #3f3f3f; stroke-width: 0.75"/>
    <path d="M 214.365625 452.269078 
L 228.315625 452.269078 
L 228.315625 452.269078 
L 214.365625 452.269078 
z
" clip-path="url(#p99944496a3)" style="fill: #78a2bf; stroke: #3f3f3f; stroke-width: 0.75"/>
    <path d="M 207.390625 452.269078 
L 235.290625 452.269078 
L 235.290625 451.294223 
L 207.390625 451.294223 
z
" clip-path="url(#p99944496a3)" style="fill: #588db2; stroke: #3f3f3f; stroke-width: 0.75"/>
    <path d="M 193.440625 451.294223 
L 249.240625 451.294223 
L 249.240625 449.344513 
L 193.440625 449.344513 
z
" clip-path="url(#p99944496a3)" style="fill: #3274a1; stroke: #3f3f3f; stroke-width: 0.75"/>
    <path d="M 207.390625 449.344513 
L 235.290625 449.344513 
L 235.290625 445.445093 
L 207.390625 445.445093 
z
" clip-path="url(#p99944496a3)" style="fill: #588db2; stroke: #3f3f3f; stroke-width: 0.75"/>
    <path d="M 214.365625 445.445093 
L 228.315625 445.445093 
L 228.315625 438.621109 
L 214.365625 438.621109 
z
" clip-path="url(#p99944496a3)" style="fill: #78a2bf; stroke: #3f3f3f; stroke-width: 0.75"/>
    <path d="M 217.853125 438.621109 
L 224.828125 438.621109 
L 224.828125 422.048575 
L 217.853125 422.048575 
z
" clip-path="url(#p99944496a3)" style="fill: #90b2ca; stroke: #3f3f3f; stroke-width: 0.75"/>
    <path d="M 219.596875 422.048575 
L 223.084375 422.048575 
L 223.084375 348.934455 
L 219.596875 348.934455 
z
" clip-path="url(#p99944496a3)" style="fill: #a4bfd2; stroke: #3f3f3f; stroke-width: 0.75"/>
    <path d="M 220.46875 348.934455 
L 222.2125 348.934455 
L 222.2125 307.015693 
L 220.46875 307.015693 
z
" clip-path="url(#p99944496a3)" style="fill: #b4c9d9; stroke: #3f3f3f; stroke-width: 0.75"/>
   </g>
   <g id="PatchCollection_4">
    <path d="M 290.21875 490.28842 
L 291.9625 490.28842 
L 291.9625 490.28842 
L 290.21875 490.28842 
z
" clip-path="url(#p99944496a3)" style="fill: #b4c9d9; stroke: #3f3f3f; stroke-width: 0.75"/>
    <path d="M 289.346875 490.28842 
L 292.834375 490.28842 
L 292.834375 490.28842 
L 289.346875 490.28842 
z
" clip-path="url(#p99944496a3)" style="fill: #a4bfd2; stroke: #3f3f3f; stroke-width: 0.75"/>
    <path d="M 287.603125 490.28842 
L 294.578125 490.28842 
L 294.578125 489.313565 
L 287.603125 489.313565 
z
" clip-path="url(#p99944496a3)" style="fill: #90b2ca; stroke: #3f3f3f; stroke-width: 0.75"/>
    <path d="M 284.115625 489.313565 
L 298.065625 489.313565 
L 298.065625 489.313565 
L 284.115625 489.313565 
z
" clip-path="url(#p99944496a3)" style="fill: #78a2bf; stroke: #3f3f3f; stroke-width: 0.75"/>
    <path d="M 277.140625 489.313565 
L 305.040625 489.313565 
L 305.040625 488.33871 
L 277.140625 488.33871 
z
" clip-path="url(#p99944496a3)" style="fill: #588db2; stroke: #3f3f3f; stroke-width: 0.75"/>
    <path d="M 263.190625 488.33871 
L 318.990625 488.33871 
L 318.990625 486.389 
L 263.190625 486.389 
z
" clip-path="url(#p99944496a3)" style="fill: #3274a1; stroke: #3f3f3f; stroke-width: 0.75"/>
    <path d="M 277.140625 486.389 
L 305.040625 486.389 
L 305.040625 483.464436 
L 277.140625 483.464436 
z
" clip-path="url(#p99944496a3)" style="fill: #588db2; stroke: #3f3f3f; stroke-width: 0.75"/>
    <path d="M 284.115625 483.464436 
L 298.065625 483.464436 
L 298.065625 477.615306 
L 284.115625 477.615306 
z
" clip-path="url(#p99944496a3)" style="fill: #78a2bf; stroke: #3f3f3f; stroke-width: 0.75"/>
    <path d="M 287.603125 477.615306 
L 294.578125 477.615306 
L 294.578125 467.866757 
L 287.603125 467.866757 
z
" clip-path="url(#p99944496a3)" style="fill: #90b2ca; stroke: #3f3f3f; stroke-width: 0.75"/>
    <path d="M 289.346875 467.866757 
L 292.834375 467.866757 
L 292.834375 411.325171 
L 289.346875 411.325171 
z
" clip-path="url(#p99944496a3)" style="fill: #a4bfd2; stroke: #3f3f3f; stroke-width: 0.75"/>
    <path d="M 290.21875 411.325171 
L 291.9625 411.325171 
L 291.9625 312.864823 
L 290.21875 312.864823 
z
" clip-path="url(#p99944496a3)" style="fill: #b4c9d9; stroke: #3f3f3f; stroke-width: 0.75"/>
   </g>
   <g id="PatchCollection_5">
    <path d="M 359.96875 512.710084 
L 361.7125 512.710084 
L 361.7125 512.710084 
L 359.96875 512.710084 
z
" clip-path="url(#p99944496a3)" style="fill: #b4c9d9; stroke: #3f3f3f; stroke-width: 0.75"/>
    <path d="M 359.096875 512.710084 
L 362.584375 512.710084 
L 362.584375 512.710084 
L 359.096875 512.710084 
z
" clip-path="url(#p99944496a3)" style="fill: #a4bfd2; stroke: #3f3f3f; stroke-width: 0.75"/>
    <path d="M 357.353125 512.710084 
L 364.328125 512.710084 
L 364.328125 512.710084 
L 357.353125 512.710084 
z
" clip-path="url(#p99944496a3)" style="fill: #90b2ca; stroke: #3f3f3f; stroke-width: 0.75"/>
    <path d="M 353.865625 512.710084 
L 367.815625 512.710084 
L 367.815625 512.710084 
L 353.865625 512.710084 
z
" clip-path="url(#p99944496a3)" style="fill: #78a2bf; stroke: #3f3f3f; stroke-width: 0.75"/>
    <path d="M 346.890625 512.710084 
L 374.790625 512.710084 
L 374.790625 511.735229 
L 346.890625 511.735229 
z
" clip-path="url(#p99944496a3)" style="fill: #588db2; stroke: #3f3f3f; stroke-width: 0.75"/>
    <path d="M 332.940625 511.735229 
L 388.740625 511.735229 
L 388.740625 510.760374 
L 332.940625 510.760374 
z
" clip-path="url(#p99944496a3)" style="fill: #3274a1; stroke: #3f3f3f; stroke-width: 0.75"/>
    <path d="M 346.890625 510.760374 
L 374.790625 510.760374 
L 374.790625 508.810664 
L 346.890625 508.810664 
z
" clip-path="url(#p99944496a3)" style="fill: #588db2; stroke: #3f3f3f; stroke-width: 0.75"/>
    <path d="M 353.865625 508.810664 
L 367.815625 508.810664 
L 367.815625 500.03697 
L 353.865625 500.03697 
z
" clip-path="url(#p99944496a3)" style="fill: #78a2bf; stroke: #3f3f3f; stroke-width: 0.75"/>
    <path d="M 357.353125 500.03697 
L 364.328125 500.03697 
L 364.328125 459.093062 
L 357.353125 459.093062 
z
" clip-path="url(#p99944496a3)" style="fill: #90b2ca; stroke: #3f3f3f; stroke-width: 0.75"/>
    <path d="M 359.096875 459.093062 
L 362.584375 459.093062 
L 362.584375 452.269078 
L 359.096875 452.269078 
z
" clip-path="url(#p99944496a3)" style="fill: #a4bfd2; stroke: #3f3f3f; stroke-width: 0.75"/>
    <path d="M 359.96875 452.269078 
L 361.7125 452.269078 
L 361.7125 315.8427 
L 359.96875 315.8427 
z
" clip-path="url(#p99944496a3)" style="fill: #b4c9d9; stroke: #3f3f3f; stroke-width: 0.75"/>
   </g>
   <g id="PatchCollection_6">
    <path d="M 429.71875 528.307763 
L 431.4625 528.307763 
L 431.4625 528.307763 
L 429.71875 528.307763 
z
" clip-path="url(#p99944496a3)" style="fill: #b4c9d9; stroke: #3f3f3f; stroke-width: 0.75"/>
    <path d="M 428.846875 528.307763 
L 432.334375 528.307763 
L 432.334375 527.332908 
L 428.846875 527.332908 
z
" clip-path="url(#p99944496a3)" style="fill: #a4bfd2; stroke: #3f3f3f; stroke-width: 0.75"/>
    <path d="M 427.103125 527.332908 
L 434.078125 527.332908 
L 434.078125 527.332908 
L 427.103125 527.332908 
z
" clip-path="url(#p99944496a3)" style="fill: #90b2ca; stroke: #3f3f3f; stroke-width: 0.75"/>
    <path d="M 423.615625 527.332908 
L 437.565625 527.332908 
L 437.565625 526.358053 
L 423.615625 526.358053 
z
" clip-path="url(#p99944496a3)" style="fill: #78a2bf; stroke: #3f3f3f; stroke-width: 0.75"/>
    <path d="M 416.640625 526.358053 
L 444.540625 526.358053 
L 444.540625 526.358053 
L 416.640625 526.358053 
z
" clip-path="url(#p99944496a3)" style="fill: #588db2; stroke: #3f3f3f; stroke-width: 0.75"/>
    <path d="M 402.690625 526.358053 
L 458.490625 526.358053 
L 458.490625 524.408343 
L 402.690625 524.408343 
z
" clip-path="url(#p99944496a3)" style="fill: #3274a1; stroke: #3f3f3f; stroke-width: 0.75"/>
    <path d="M 416.640625 524.408343 
L 444.540625 524.408343 
L 444.540625 523.433488 
L 416.640625 523.433488 
z
" clip-path="url(#p99944496a3)" style="fill: #588db2; stroke: #3f3f3f; stroke-width: 0.75"/>
    <path d="M 423.615625 523.433488 
L 437.565625 523.433488 
L 437.565625 520.508923 
L 423.615625 520.508923 
z
" clip-path="url(#p99944496a3)" style="fill: #78a2bf; stroke: #3f3f3f; stroke-width: 0.75"/>
    <path d="M 427.103125 520.508923 
L 434.078125 520.508923 
L 434.078125 512.710084 
L 427.103125 512.710084 
z
" clip-path="url(#p99944496a3)" style="fill: #90b2ca; stroke: #3f3f3f; stroke-width: 0.75"/>
    <path d="M 428.846875 512.710084 
L 432.334375 512.710084 
L 432.334375 493.212985 
L 428.846875 493.212985 
z
" clip-path="url(#p99944496a3)" style="fill: #a4bfd2; stroke: #3f3f3f; stroke-width: 0.75"/>
    <path d="M 429.71875 493.212985 
L 431.4625 493.212985 
L 431.4625 300.191708 
L 429.71875 300.191708 
z
" clip-path="url(#p99944496a3)" style="fill: #b4c9d9; stroke: #3f3f3f; stroke-width: 0.75"/>
   </g>
   <g id="PatchCollection_7">
    <path d="M 499.46875 539.031167 
L 501.2125 539.031167 
L 501.2125 538.056312 
L 499.46875 538.056312 
z
" clip-path="url(#p99944496a3)" style="fill: #b4c9d9; stroke: #3f3f3f; stroke-width: 0.75"/>
    <path d="M 498.596875 538.056312 
L 502.084375 538.056312 
L 502.084375 538.056312 
L 498.596875 538.056312 
z
" clip-path="url(#p99944496a3)" style="fill: #a4bfd2; stroke: #3f3f3f; stroke-width: 0.75"/>
    <path d="M 496.853125 538.056312 
L 503.828125 538.056312 
L 503.828125 538.056312 
L 496.853125 538.056312 
z
" clip-path="url(#p99944496a3)" style="fill: #90b2ca; stroke: #3f3f3f; stroke-width: 0.75"/>
    <path d="M 493.365625 538.056312 
L 507.315625 538.056312 
L 507.315625 538.056312 
L 493.365625 538.056312 
z
" clip-path="url(#p99944496a3)" style="fill: #78a2bf; stroke: #3f3f3f; stroke-width: 0.75"/>
    <path d="M 486.390625 538.056312 
L 514.290625 538.056312 
L 514.290625 537.081457 
L 486.390625 537.081457 
z
" clip-path="url(#p99944496a3)" style="fill: #588db2; stroke: #3f3f3f; stroke-width: 0.75"/>
    <path d="M 472.440625 537.081457 
L 528.240625 537.081457 
L 528.240625 536.106602 
L 472.440625 536.106602 
z
" clip-path="url(#p99944496a3)" style="fill: #3274a1; stroke: #3f3f3f; stroke-width: 0.75"/>
    <path d="M 486.390625 536.106602 
L 514.290625 536.106602 
L 514.290625 535.131747 
L 486.390625 535.131747 
z
" clip-path="url(#p99944496a3)" style="fill: #588db2; stroke: #3f3f3f; stroke-width: 0.75"/>
    <path d="M 493.365625 535.131747 
L 507.315625 535.131747 
L 507.315625 518.559213 
L 493.365625 518.559213 
z
" clip-path="url(#p99944496a3)" style="fill: #78a2bf; stroke: #3f3f3f; stroke-width: 0.75"/>
    <path d="M 496.853125 518.559213 
L 503.828125 518.559213 
L 503.828125 495.162695 
L 496.853125 495.162695 
z
" clip-path="url(#p99944496a3)" style="fill: #90b2ca; stroke: #3f3f3f; stroke-width: 0.75"/>
    <path d="M 498.596875 495.162695 
L 502.084375 495.162695 
L 502.084375 491.263275 
L 498.596875 491.263275 
z
" clip-path="url(#p99944496a3)" style="fill: #a4bfd2; stroke: #3f3f3f; stroke-width: 0.75"/>
    <path d="M 499.46875 491.263275 
L 501.2125 491.263275 
L 501.2125 283.619175 
L 499.46875 283.619175 
z
" clip-path="url(#p99944496a3)" style="fill: #b4c9d9; stroke: #3f3f3f; stroke-width: 0.75"/>
   </g>
   <g id="PatchCollection_8">
    <path d="M 569.21875 546.830006 
L 570.9625 546.830006 
L 570.9625 546.830006 
L 569.21875 546.830006 
z
" clip-path="url(#p99944496a3)" style="fill: #b4c9d9; stroke: #3f3f3f; stroke-width: 0.75"/>
    <path d="M 568.346875 546.830006 
L 571.834375 546.830006 
L 571.834375 545.855151 
L 568.346875 545.855151 
z
" clip-path="url(#p99944496a3)" style="fill: #a4bfd2; stroke: #3f3f3f; stroke-width: 0.75"/>
    <path d="M 566.603125 545.855151 
L 573.578125 545.855151 
L 573.578125 545.855151 
L 566.603125 545.855151 
z
" clip-path="url(#p99944496a3)" style="fill: #90b2ca; stroke: #3f3f3f; stroke-width: 0.75"/>
    <path d="M 563.115625 545.855151 
L 577.065625 545.855151 
L 577.065625 545.855151 
L 563.115625 545.855151 
z
" clip-path="url(#p99944496a3)" style="fill: #78a2bf; stroke: #3f3f3f; stroke-width: 0.75"/>
    <path d="M 556.140625 545.855151 
L 584.040625 545.855151 
L 584.040625 544.880296 
L 556.140625 544.880296 
z
" clip-path="url(#p99944496a3)" style="fill: #588db2; stroke: #3f3f3f; stroke-width: 0.75"/>
    <path d="M 542.190625 544.880296 
L 597.990625 544.880296 
L 597.990625 543.905441 
L 542.190625 543.905441 
z
" clip-path="url(#p99944496a3)" style="fill: #3274a1; stroke: #3f3f3f; stroke-width: 0.75"/>
    <path d="M 556.140625 543.905441 
L 584.040625 543.905441 
L 584.040625 542.930587 
L 556.140625 542.930587 
z
" clip-path="url(#p99944496a3)" style="fill: #588db2; stroke: #3f3f3f; stroke-width: 0.75"/>
    <path d="M 563.115625 542.930587 
L 577.065625 542.930587 
L 577.065625 540.980877 
L 563.115625 540.980877 
z
" clip-path="url(#p99944496a3)" style="fill: #78a2bf; stroke: #3f3f3f; stroke-width: 0.75"/>
    <path d="M 566.603125 540.980877 
L 573.578125 540.980877 
L 573.578125 529.282618 
L 566.603125 529.282618 
z
" clip-path="url(#p99944496a3)" style="fill: #90b2ca; stroke: #3f3f3f; stroke-width: 0.75"/>
    <path d="M 568.346875 529.282618 
L 571.834375 529.282618 
L 571.834375 516.609503 
L 568.346875 516.609503 
z
" clip-path="url(#p99944496a3)" style="fill: #a4bfd2; stroke: #3f3f3f; stroke-width: 0.75"/>
    <path d="M 569.21875 516.609503 
L 570.9625 516.609503 
L 570.9625 254.373527 
L 569.21875 254.373527 
z
" clip-path="url(#p99944496a3)" style="fill: #b4c9d9; stroke: #3f3f3f; stroke-width: 0.75"/>
   </g>
   <g id="PatchCollection_9">
    <path d="M 638.96875 552.679136 
L 640.7125 552.679136 
L 640.7125 552.679136 
L 638.96875 552.679136 
z
" clip-path="url(#p99944496a3)" style="fill: #b4c9d9; stroke: #3f3f3f; stroke-width: 0.75"/>
    <path d="M 638.096875 552.679136 
L 641.584375 552.679136 
L 641.584375 552.679136 
L 638.096875 552.679136 
z
" clip-path="url(#p99944496a3)" style="fill: #a4bfd2; stroke: #3f3f3f; stroke-width: 0.75"/>
    <path d="M 636.353125 552.679136 
L 643.328125 552.679136 
L 643.328125 551.704281 
L 636.353125 551.704281 
z
" clip-path="url(#p99944496a3)" style="fill: #90b2ca; stroke: #3f3f3f; stroke-width: 0.75"/>
    <path d="M 632.865625 551.704281 
L 646.815625 551.704281 
L 646.815625 551.704281 
L 632.865625 551.704281 
z
" clip-path="url(#p99944496a3)" style="fill: #78a2bf; stroke: #3f3f3f; stroke-width: 0.75"/>
    <path d="M 625.890625 551.704281 
L 653.790625 551.704281 
L 653.790625 551.704281 
L 625.890625 551.704281 
z
" clip-path="url(#p99944496a3)" style="fill: #588db2; stroke: #3f3f3f; stroke-width: 0.75"/>
    <path d="M 611.940625 551.704281 
L 667.740625 551.704281 
L 667.740625 550.729426 
L 611.940625 550.729426 
z
" clip-path="url(#p99944496a3)" style="fill: #3274a1; stroke: #3f3f3f; stroke-width: 0.75"/>
    <path d="M 625.890625 550.729426 
L 653.790625 550.729426 
L 653.790625 549.754571 
L 625.890625 549.754571 
z
" clip-path="url(#p99944496a3)" style="fill: #588db2; stroke: #3f3f3f; stroke-width: 0.75"/>
    <path d="M 632.865625 549.754571 
L 646.815625 549.754571 
L 646.815625 546.830006 
L 632.865625 546.830006 
z
" clip-path="url(#p99944496a3)" style="fill: #78a2bf; stroke: #3f3f3f; stroke-width: 0.75"/>
    <path d="M 636.353125 546.830006 
L 643.328125 546.830006 
L 643.328125 532.420432 
L 636.353125 532.420432 
z
" clip-path="url(#p99944496a3)" style="fill: #90b2ca; stroke: #3f3f3f; stroke-width: 0.75"/>
    <path d="M 638.096875 532.420432 
L 641.584375 532.420432 
L 641.584375 517.584358 
L 638.096875 517.584358 
z
" clip-path="url(#p99944496a3)" style="fill: #a4bfd2; stroke: #3f3f3f; stroke-width: 0.75"/>
    <path d="M 638.96875 517.584358 
L 640.7125 517.584358 
L 640.7125 236.826138 
L 638.96875 236.826138 
z
" clip-path="url(#p99944496a3)" style="fill: #b4c9d9; stroke: #3f3f3f; stroke-width: 0.75"/>
   </g>
   <g id="PatchCollection_10">
    <path d="M 708.71875 558.528265 
L 710.4625 558.528265 
L 710.4625 558.528265 
L 708.71875 558.528265 
z
" clip-path="url(#p99944496a3)" style="fill: #b4c9d9; stroke: #3f3f3f; stroke-width: 0.75"/>
    <path d="M 707.846875 558.528265 
L 711.334375 558.528265 
L 711.334375 558.528265 
L 707.846875 558.528265 
z
" clip-path="url(#p99944496a3)" style="fill: #a4bfd2; stroke: #3f3f3f; stroke-width: 0.75"/>
    <path d="M 706.103125 558.528265 
L 713.078125 558.528265 
L 713.078125 557.553411 
L 706.103125 557.553411 
z
" clip-path="url(#p99944496a3)" style="fill: #90b2ca; stroke: #3f3f3f; stroke-width: 0.75"/>
    <path d="M 702.615625 557.553411 
L 716.565625 557.553411 
L 716.565625 557.553411 
L 702.615625 557.553411 
z
" clip-path="url(#p99944496a3)" style="fill: #78a2bf; stroke: #3f3f3f; stroke-width: 0.75"/>
    <path d="M 695.640625 557.553411 
L 723.540625 557.553411 
L 723.540625 556.578556 
L 695.640625 556.578556 
z
" clip-path="url(#p99944496a3)" style="fill: #588db2; stroke: #3f3f3f; stroke-width: 0.75"/>
    <path d="M 681.690625 556.578556 
L 737.490625 556.578556 
L 737.490625 555.603701 
L 681.690625 555.603701 
z
" clip-path="url(#p99944496a3)" style="fill: #3274a1; stroke: #3f3f3f; stroke-width: 0.75"/>
    <path d="M 695.640625 555.603701 
L 723.540625 555.603701 
L 723.540625 554.628846 
L 695.640625 554.628846 
z
" clip-path="url(#p99944496a3)" style="fill: #588db2; stroke: #3f3f3f; stroke-width: 0.75"/>
    <path d="M 702.615625 554.628846 
L 716.565625 554.628846 
L 716.565625 540.980877 
L 702.615625 540.980877 
z
" clip-path="url(#p99944496a3)" style="fill: #78a2bf; stroke: #3f3f3f; stroke-width: 0.75"/>
    <path d="M 706.103125 540.980877 
L 713.078125 540.980877 
L 713.078125 522.671882 
L 706.103125 522.671882 
z
" clip-path="url(#p99944496a3)" style="fill: #90b2ca; stroke: #3f3f3f; stroke-width: 0.75"/>
    <path d="M 707.846875 522.671882 
L 711.334375 522.671882 
L 711.334375 520.508923 
L 707.846875 520.508923 
z
" clip-path="url(#p99944496a3)" style="fill: #a4bfd2; stroke: #3f3f3f; stroke-width: 0.75"/>
    <path d="M 708.71875 520.508923 
L 710.4625 520.508923 
L 710.4625 199.888275 
L 708.71875 199.888275 
z
" clip-path="url(#p99944496a3)" style="fill: #b4c9d9; stroke: #3f3f3f; stroke-width: 0.75"/>
   </g>
   <g id="PatchCollection_11">
    <path d="M 778.46875 561.45283 
L 780.2125 561.45283 
L 780.2125 561.45283 
L 778.46875 561.45283 
z
" clip-path="url(#p99944496a3)" style="fill: #b4c9d9; stroke: #3f3f3f; stroke-width: 0.75"/>
    <path d="M 777.596875 561.45283 
L 781.084375 561.45283 
L 781.084375 561.45283 
L 777.596875 561.45283 
z
" clip-path="url(#p99944496a3)" style="fill: #a4bfd2; stroke: #3f3f3f; stroke-width: 0.75"/>
    <path d="M 775.853125 561.45283 
L 782.828125 561.45283 
L 782.828125 561.45283 
L 775.853125 561.45283 
z
" clip-path="url(#p99944496a3)" style="fill: #90b2ca; stroke: #3f3f3f; stroke-width: 0.75"/>
    <path d="M 772.365625 561.45283 
L 786.315625 561.45283 
L 786.315625 561.45283 
L 772.365625 561.45283 
z
" clip-path="url(#p99944496a3)" style="fill: #78a2bf; stroke: #3f3f3f; stroke-width: 0.75"/>
    <path d="M 765.390625 561.45283 
L 793.290625 561.45283 
L 793.290625 560.477975 
L 765.390625 560.477975 
z
" clip-path="url(#p99944496a3)" style="fill: #588db2; stroke: #3f3f3f; stroke-width: 0.75"/>
    <path d="M 751.440625 560.477975 
L 807.240625 560.477975 
L 807.240625 559.50312 
L 751.440625 559.50312 
z
" clip-path="url(#p99944496a3)" style="fill: #3274a1; stroke: #3f3f3f; stroke-width: 0.75"/>
    <path d="M 765.390625 559.50312 
L 793.290625 559.50312 
L 793.290625 559.50312 
L 765.390625 559.50312 
z
" clip-path="url(#p99944496a3)" style="fill: #588db2; stroke: #3f3f3f; stroke-width: 0.75"/>
    <path d="M 772.365625 559.50312 
L 786.315625 559.50312 
L 786.315625 546.28165 
L 772.365625 546.28165 
z
" clip-path="url(#p99944496a3)" style="fill: #78a2bf; stroke: #3f3f3f; stroke-width: 0.75"/>
    <path d="M 775.853125 546.28165 
L 782.828125 546.28165 
L 782.828125 530.257472 
L 775.853125 530.257472 
z
" clip-path="url(#p99944496a3)" style="fill: #90b2ca; stroke: #3f3f3f; stroke-width: 0.75"/>
    <path d="M 777.596875 530.257472 
L 781.084375 530.257472 
L 781.084375 528.307763 
L 777.596875 528.307763 
z
" clip-path="url(#p99944496a3)" style="fill: #a4bfd2; stroke: #3f3f3f; stroke-width: 0.75"/>
    <path d="M 778.46875 528.307763 
L 780.2125 528.307763 
L 780.2125 190.033101 
L 778.46875 190.033101 
z
" clip-path="url(#p99944496a3)" style="fill: #b4c9d9; stroke: #3f3f3f; stroke-width: 0.75"/>
   </g>
   <g id="PatchCollection_12">
    <path d="M 848.21875 565.35225 
L 849.9625 565.35225 
L 849.9625 565.35225 
L 848.21875 565.35225 
z
" clip-path="url(#p99944496a3)" style="fill: #b4c9d9; stroke: #3f3f3f; stroke-width: 0.75"/>
    <path d="M 847.346875 565.35225 
L 850.834375 565.35225 
L 850.834375 565.35225 
L 847.346875 565.35225 
z
" clip-path="url(#p99944496a3)" style="fill: #a4bfd2; stroke: #3f3f3f; stroke-width: 0.75"/>
    <path d="M 845.603125 565.35225 
L 852.578125 565.35225 
L 852.578125 565.35225 
L 845.603125 565.35225 
z
" clip-path="url(#p99944496a3)" style="fill: #90b2ca; stroke: #3f3f3f; stroke-width: 0.75"/>
    <path d="M 842.115625 565.35225 
L 856.065625 565.35225 
L 856.065625 564.377395 
L 842.115625 564.377395 
z
" clip-path="url(#p99944496a3)" style="fill: #78a2bf; stroke: #3f3f3f; stroke-width: 0.75"/>
    <path d="M 835.140625 564.377395 
L 863.040625 564.377395 
L 863.040625 564.377395 
L 835.140625 564.377395 
z
" clip-path="url(#p99944496a3)" style="fill: #588db2; stroke: #3f3f3f; stroke-width: 0.75"/>
    <path d="M 821.190625 564.377395 
L 876.990625 564.377395 
L 876.990625 563.40254 
L 821.190625 563.40254 
z
" clip-path="url(#p99944496a3)" style="fill: #3274a1; stroke: #3f3f3f; stroke-width: 0.75"/>
    <path d="M 835.140625 563.40254 
L 863.040625 563.40254 
L 863.040625 562.427685 
L 835.140625 562.427685 
z
" clip-path="url(#p99944496a3)" style="fill: #588db2; stroke: #3f3f3f; stroke-width: 0.75"/>
    <path d="M 842.115625 562.427685 
L 856.065625 562.427685 
L 856.065625 540.006022 
L 842.115625 540.006022 
z
" clip-path="url(#p99944496a3)" style="fill: #78a2bf; stroke: #3f3f3f; stroke-width: 0.75"/>
    <path d="M 845.603125 540.006022 
L 852.578125 540.006022 
L 852.578125 536.106602 
L 845.603125 536.106602 
z
" clip-path="url(#p99944496a3)" style="fill: #90b2ca; stroke: #3f3f3f; stroke-width: 0.75"/>
    <path d="M 847.346875 536.106602 
L 850.834375 536.106602 
L 850.834375 520.508923 
L 847.346875 520.508923 
z
" clip-path="url(#p99944496a3)" style="fill: #a4bfd2; stroke: #3f3f3f; stroke-width: 0.75"/>
    <path d="M 848.21875 520.508923 
L 849.9625 520.508923 
L 849.9625 154.070093 
L 848.21875 154.070093 
z
" clip-path="url(#p99944496a3)" style="fill: #b4c9d9; stroke: #3f3f3f; stroke-width: 0.75"/>
   </g>
   <g id="patch_3">
    <path d="M 81.840625 652.114339 
L 81.840625 652.114339 
L 81.840625 652.114339 
L 81.840625 652.114339 
z
" clip-path="url(#p99944496a3)" style="fill: #3274a1; stroke: #3f3f3f; stroke-width: 0.75; stroke-linejoin: miter"/>
   </g>
   <g id="matplotlib.axis_1">
    <g id="xtick_1">
     <g id="line2d_1">
      <defs>
       <path id="m667ecbbfe7" d="M 0 0 
L 0 3.5 
" style="stroke: #000000; stroke-width: 0.8"/>
      </defs>
      <g>
       <use xlink:href="#m667ecbbfe7" x="81.840625" y="590.55225" style="stroke: #000000; stroke-width: 0.8"/>
      </g>
     </g>
     <g id="text_1">
      <!-- 1 -->
      <g transform="translate(78.659375 605.150688) scale(0.1 -0.1)">
       <defs>
        <path id="DejaVuSans-31" d="M 794 531 
L 1825 531 
L 1825 4091 
L 703 3866 
L 703 4441 
L 1819 4666 
L 2450 4666 
L 2450 531 
L 3481 531 
L 3481 0 
L 794 0 
L 794 531 
z
" transform="scale(0.015625)"/>
       </defs>
       <use xlink:href="#DejaVuSans-31"/>
      </g>
     </g>
    </g>
    <g id="xtick_2">
     <g id="line2d_2">
      <g>
       <use xlink:href="#m667ecbbfe7" x="151.590625" y="590.55225" style="stroke: #000000; stroke-width: 0.8"/>
      </g>
     </g>
     <g id="text_2">
      <!-- 2 -->
      <g transform="translate(148.409375 605.150688) scale(0.1 -0.1)">
       <defs>
        <path id="DejaVuSans-32" d="M 1228 531 
L 3431 531 
L 3431 0 
L 469 0 
L 469 531 
Q 828 903 1448 1529 
Q 2069 2156 2228 2338 
Q 2531 2678 2651 2914 
Q 2772 3150 2772 3378 
Q 2772 3750 2511 3984 
Q 2250 4219 1831 4219 
Q 1534 4219 1204 4116 
Q 875 4013 500 3803 
L 500 4441 
Q 881 4594 1212 4672 
Q 1544 4750 1819 4750 
Q 2544 4750 2975 4387 
Q 3406 4025 3406 3419 
Q 3406 3131 3298 2873 
Q 3191 2616 2906 2266 
Q 2828 2175 2409 1742 
Q 1991 1309 1228 531 
z
" transform="scale(0.015625)"/>
       </defs>
       <use xlink:href="#DejaVuSans-32"/>
      </g>
     </g>
    </g>
    <g id="xtick_3">
     <g id="line2d_3">
      <g>
       <use xlink:href="#m667ecbbfe7" x="221.340625" y="590.55225" style="stroke: #000000; stroke-width: 0.8"/>
      </g>
     </g>
     <g id="text_3">
      <!-- 3 -->
      <g transform="translate(218.159375 605.150688) scale(0.1 -0.1)">
       <defs>
        <path id="DejaVuSans-33" d="M 2597 2516 
Q 3050 2419 3304 2112 
Q 3559 1806 3559 1356 
Q 3559 666 3084 287 
Q 2609 -91 1734 -91 
Q 1441 -91 1130 -33 
Q 819 25 488 141 
L 488 750 
Q 750 597 1062 519 
Q 1375 441 1716 441 
Q 2309 441 2620 675 
Q 2931 909 2931 1356 
Q 2931 1769 2642 2001 
Q 2353 2234 1838 2234 
L 1294 2234 
L 1294 2753 
L 1863 2753 
Q 2328 2753 2575 2939 
Q 2822 3125 2822 3475 
Q 2822 3834 2567 4026 
Q 2313 4219 1838 4219 
Q 1578 4219 1281 4162 
Q 984 4106 628 3988 
L 628 4550 
Q 988 4650 1302 4700 
Q 1616 4750 1894 4750 
Q 2613 4750 3031 4423 
Q 3450 4097 3450 3541 
Q 3450 3153 3228 2886 
Q 3006 2619 2597 2516 
z
" transform="scale(0.015625)"/>
       </defs>
       <use xlink:href="#DejaVuSans-33"/>
      </g>
     </g>
    </g>
    <g id="xtick_4">
     <g id="line2d_4">
      <g>
       <use xlink:href="#m667ecbbfe7" x="291.090625" y="590.55225" style="stroke: #000000; stroke-width: 0.8"/>
      </g>
     </g>
     <g id="text_4">
      <!-- 4 -->
      <g transform="translate(287.909375 605.150688) scale(0.1 -0.1)">
       <defs>
        <path id="DejaVuSans-34" d="M 2419 4116 
L 825 1625 
L 2419 1625 
L 2419 4116 
z
M 2253 4666 
L 3047 4666 
L 3047 1625 
L 3713 1625 
L 3713 1100 
L 3047 1100 
L 3047 0 
L 2419 0 
L 2419 1100 
L 313 1100 
L 313 1709 
L 2253 4666 
z
" transform="scale(0.015625)"/>
       </defs>
       <use xlink:href="#DejaVuSans-34"/>
      </g>
     </g>
    </g>
    <g id="xtick_5">
     <g id="line2d_5">
      <g>
       <use xlink:href="#m667ecbbfe7" x="360.840625" y="590.55225" style="stroke: #000000; stroke-width: 0.8"/>
      </g>
     </g>
     <g id="text_5">
      <!-- 5 -->
      <g transform="translate(357.659375 605.150688) scale(0.1 -0.1)">
       <defs>
        <path id="DejaVuSans-35" d="M 691 4666 
L 3169 4666 
L 3169 4134 
L 1269 4134 
L 1269 2991 
Q 1406 3038 1543 3061 
Q 1681 3084 1819 3084 
Q 2600 3084 3056 2656 
Q 3513 2228 3513 1497 
Q 3513 744 3044 326 
Q 2575 -91 1722 -91 
Q 1428 -91 1123 -41 
Q 819 9 494 109 
L 494 744 
Q 775 591 1075 516 
Q 1375 441 1709 441 
Q 2250 441 2565 725 
Q 2881 1009 2881 1497 
Q 2881 1984 2565 2268 
Q 2250 2553 1709 2553 
Q 1456 2553 1204 2497 
Q 953 2441 691 2322 
L 691 4666 
z
" transform="scale(0.015625)"/>
       </defs>
       <use xlink:href="#DejaVuSans-35"/>
      </g>
     </g>
    </g>
    <g id="xtick_6">
     <g id="line2d_6">
      <g>
       <use xlink:href="#m667ecbbfe7" x="430.590625" y="590.55225" style="stroke: #000000; stroke-width: 0.8"/>
      </g>
     </g>
     <g id="text_6">
      <!-- 6 -->
      <g transform="translate(427.409375 605.150688) scale(0.1 -0.1)">
       <defs>
        <path id="DejaVuSans-36" d="M 2113 2584 
Q 1688 2584 1439 2293 
Q 1191 2003 1191 1497 
Q 1191 994 1439 701 
Q 1688 409 2113 409 
Q 2538 409 2786 701 
Q 3034 994 3034 1497 
Q 3034 2003 2786 2293 
Q 2538 2584 2113 2584 
z
M 3366 4563 
L 3366 3988 
Q 3128 4100 2886 4159 
Q 2644 4219 2406 4219 
Q 1781 4219 1451 3797 
Q 1122 3375 1075 2522 
Q 1259 2794 1537 2939 
Q 1816 3084 2150 3084 
Q 2853 3084 3261 2657 
Q 3669 2231 3669 1497 
Q 3669 778 3244 343 
Q 2819 -91 2113 -91 
Q 1303 -91 875 529 
Q 447 1150 447 2328 
Q 447 3434 972 4092 
Q 1497 4750 2381 4750 
Q 2619 4750 2861 4703 
Q 3103 4656 3366 4563 
z
" transform="scale(0.015625)"/>
       </defs>
       <use xlink:href="#DejaVuSans-36"/>
      </g>
     </g>
    </g>
    <g id="xtick_7">
     <g id="line2d_7">
      <g>
       <use xlink:href="#m667ecbbfe7" x="500.340625" y="590.55225" style="stroke: #000000; stroke-width: 0.8"/>
      </g>
     </g>
     <g id="text_7">
      <!-- 7 -->
      <g transform="translate(497.159375 605.150688) scale(0.1 -0.1)">
       <defs>
        <path id="DejaVuSans-37" d="M 525 4666 
L 3525 4666 
L 3525 4397 
L 1831 0 
L 1172 0 
L 2766 4134 
L 525 4134 
L 525 4666 
z
" transform="scale(0.015625)"/>
       </defs>
       <use xlink:href="#DejaVuSans-37"/>
      </g>
     </g>
    </g>
    <g id="xtick_8">
     <g id="line2d_8">
      <g>
       <use xlink:href="#m667ecbbfe7" x="570.090625" y="590.55225" style="stroke: #000000; stroke-width: 0.8"/>
      </g>
     </g>
     <g id="text_8">
      <!-- 8 -->
      <g transform="translate(566.909375 605.150688) scale(0.1 -0.1)">
       <defs>
        <path id="DejaVuSans-38" d="M 2034 2216 
Q 1584 2216 1326 1975 
Q 1069 1734 1069 1313 
Q 1069 891 1326 650 
Q 1584 409 2034 409 
Q 2484 409 2743 651 
Q 3003 894 3003 1313 
Q 3003 1734 2745 1975 
Q 2488 2216 2034 2216 
z
M 1403 2484 
Q 997 2584 770 2862 
Q 544 3141 544 3541 
Q 544 4100 942 4425 
Q 1341 4750 2034 4750 
Q 2731 4750 3128 4425 
Q 3525 4100 3525 3541 
Q 3525 3141 3298 2862 
Q 3072 2584 2669 2484 
Q 3125 2378 3379 2068 
Q 3634 1759 3634 1313 
Q 3634 634 3220 271 
Q 2806 -91 2034 -91 
Q 1263 -91 848 271 
Q 434 634 434 1313 
Q 434 1759 690 2068 
Q 947 2378 1403 2484 
z
M 1172 3481 
Q 1172 3119 1398 2916 
Q 1625 2713 2034 2713 
Q 2441 2713 2670 2916 
Q 2900 3119 2900 3481 
Q 2900 3844 2670 4047 
Q 2441 4250 2034 4250 
Q 1625 4250 1398 4047 
Q 1172 3844 1172 3481 
z
" transform="scale(0.015625)"/>
       </defs>
       <use xlink:href="#DejaVuSans-38"/>
      </g>
     </g>
    </g>
    <g id="xtick_9">
     <g id="line2d_9">
      <g>
       <use xlink:href="#m667ecbbfe7" x="639.840625" y="590.55225" style="stroke: #000000; stroke-width: 0.8"/>
      </g>
     </g>
     <g id="text_9">
      <!-- 9 -->
      <g transform="translate(636.659375 605.150688) scale(0.1 -0.1)">
       <defs>
        <path id="DejaVuSans-39" d="M 703 97 
L 703 672 
Q 941 559 1184 500 
Q 1428 441 1663 441 
Q 2288 441 2617 861 
Q 2947 1281 2994 2138 
Q 2813 1869 2534 1725 
Q 2256 1581 1919 1581 
Q 1219 1581 811 2004 
Q 403 2428 403 3163 
Q 403 3881 828 4315 
Q 1253 4750 1959 4750 
Q 2769 4750 3195 4129 
Q 3622 3509 3622 2328 
Q 3622 1225 3098 567 
Q 2575 -91 1691 -91 
Q 1453 -91 1209 -44 
Q 966 3 703 97 
z
M 1959 2075 
Q 2384 2075 2632 2365 
Q 2881 2656 2881 3163 
Q 2881 3666 2632 3958 
Q 2384 4250 1959 4250 
Q 1534 4250 1286 3958 
Q 1038 3666 1038 3163 
Q 1038 2656 1286 2365 
Q 1534 2075 1959 2075 
z
" transform="scale(0.015625)"/>
       </defs>
       <use xlink:href="#DejaVuSans-39"/>
      </g>
     </g>
    </g>
    <g id="xtick_10">
     <g id="line2d_10">
      <g>
       <use xlink:href="#m667ecbbfe7" x="709.590625" y="590.55225" style="stroke: #000000; stroke-width: 0.8"/>
      </g>
     </g>
     <g id="text_10">
      <!-- 10 -->
      <g transform="translate(703.228125 605.150688) scale(0.1 -0.1)">
       <defs>
        <path id="DejaVuSans-30" d="M 2034 4250 
Q 1547 4250 1301 3770 
Q 1056 3291 1056 2328 
Q 1056 1369 1301 889 
Q 1547 409 2034 409 
Q 2525 409 2770 889 
Q 3016 1369 3016 2328 
Q 3016 3291 2770 3770 
Q 2525 4250 2034 4250 
z
M 2034 4750 
Q 2819 4750 3233 4129 
Q 3647 3509 3647 2328 
Q 3647 1150 3233 529 
Q 2819 -91 2034 -91 
Q 1250 -91 836 529 
Q 422 1150 422 2328 
Q 422 3509 836 4129 
Q 1250 4750 2034 4750 
z
" transform="scale(0.015625)"/>
       </defs>
       <use xlink:href="#DejaVuSans-31"/>
       <use xlink:href="#DejaVuSans-30" x="63.623047"/>
      </g>
     </g>
    </g>
    <g id="xtick_11">
     <g id="line2d_11">
      <g>
       <use xlink:href="#m667ecbbfe7" x="779.340625" y="590.55225" style="stroke: #000000; stroke-width: 0.8"/>
      </g>
     </g>
     <g id="text_11">
      <!-- 11 -->
      <g transform="translate(772.978125 605.150688) scale(0.1 -0.1)">
       <use xlink:href="#DejaVuSans-31"/>
       <use xlink:href="#DejaVuSans-31" x="63.623047"/>
      </g>
     </g>
    </g>
    <g id="xtick_12">
     <g id="line2d_12">
      <g>
       <use xlink:href="#m667ecbbfe7" x="849.090625" y="590.55225" style="stroke: #000000; stroke-width: 0.8"/>
      </g>
     </g>
     <g id="text_12">
      <!-- 12 -->
      <g transform="translate(842.728125 605.150688) scale(0.1 -0.1)">
       <use xlink:href="#DejaVuSans-31"/>
       <use xlink:href="#DejaVuSans-32" x="63.623047"/>
      </g>
     </g>
    </g>
    <g id="text_13">
     <!-- Number of cores -->
     <g transform="translate(423.949219 618.828813) scale(0.1 -0.1)">
      <defs>
       <path id="DejaVuSans-4e" d="M 628 4666 
L 1478 4666 
L 3547 763 
L 3547 4666 
L 4159 4666 
L 4159 0 
L 3309 0 
L 1241 3903 
L 1241 0 
L 628 0 
L 628 4666 
z
" transform="scale(0.015625)"/>
       <path id="DejaVuSans-75" d="M 544 1381 
L 544 3500 
L 1119 3500 
L 1119 1403 
Q 1119 906 1312 657 
Q 1506 409 1894 409 
Q 2359 409 2629 706 
Q 2900 1003 2900 1516 
L 2900 3500 
L 3475 3500 
L 3475 0 
L 2900 0 
L 2900 538 
Q 2691 219 2414 64 
Q 2138 -91 1772 -91 
Q 1169 -91 856 284 
Q 544 659 544 1381 
z
M 1991 3584 
L 1991 3584 
z
" transform="scale(0.015625)"/>
       <path id="DejaVuSans-6d" d="M 3328 2828 
Q 3544 3216 3844 3400 
Q 4144 3584 4550 3584 
Q 5097 3584 5394 3201 
Q 5691 2819 5691 2113 
L 5691 0 
L 5113 0 
L 5113 2094 
Q 5113 2597 4934 2840 
Q 4756 3084 4391 3084 
Q 3944 3084 3684 2787 
Q 3425 2491 3425 1978 
L 3425 0 
L 2847 0 
L 2847 2094 
Q 2847 2600 2669 2842 
Q 2491 3084 2119 3084 
Q 1678 3084 1418 2786 
Q 1159 2488 1159 1978 
L 1159 0 
L 581 0 
L 581 3500 
L 1159 3500 
L 1159 2956 
Q 1356 3278 1631 3431 
Q 1906 3584 2284 3584 
Q 2666 3584 2933 3390 
Q 3200 3197 3328 2828 
z
" transform="scale(0.015625)"/>
       <path id="DejaVuSans-62" d="M 3116 1747 
Q 3116 2381 2855 2742 
Q 2594 3103 2138 3103 
Q 1681 3103 1420 2742 
Q 1159 2381 1159 1747 
Q 1159 1113 1420 752 
Q 1681 391 2138 391 
Q 2594 391 2855 752 
Q 3116 1113 3116 1747 
z
M 1159 2969 
Q 1341 3281 1617 3432 
Q 1894 3584 2278 3584 
Q 2916 3584 3314 3078 
Q 3713 2572 3713 1747 
Q 3713 922 3314 415 
Q 2916 -91 2278 -91 
Q 1894 -91 1617 61 
Q 1341 213 1159 525 
L 1159 0 
L 581 0 
L 581 4863 
L 1159 4863 
L 1159 2969 
z
" transform="scale(0.015625)"/>
       <path id="DejaVuSans-65" d="M 3597 1894 
L 3597 1613 
L 953 1613 
Q 991 1019 1311 708 
Q 1631 397 2203 397 
Q 2534 397 2845 478 
Q 3156 559 3463 722 
L 3463 178 
Q 3153 47 2828 -22 
Q 2503 -91 2169 -91 
Q 1331 -91 842 396 
Q 353 884 353 1716 
Q 353 2575 817 3079 
Q 1281 3584 2069 3584 
Q 2775 3584 3186 3129 
Q 3597 2675 3597 1894 
z
M 3022 2063 
Q 3016 2534 2758 2815 
Q 2500 3097 2075 3097 
Q 1594 3097 1305 2825 
Q 1016 2553 972 2059 
L 3022 2063 
z
" transform="scale(0.015625)"/>
       <path id="DejaVuSans-72" d="M 2631 2963 
Q 2534 3019 2420 3045 
Q 2306 3072 2169 3072 
Q 1681 3072 1420 2755 
Q 1159 2438 1159 1844 
L 1159 0 
L 581 0 
L 581 3500 
L 1159 3500 
L 1159 2956 
Q 1341 3275 1631 3429 
Q 1922 3584 2338 3584 
Q 2397 3584 2469 3576 
Q 2541 3569 2628 3553 
L 2631 2963 
z
" transform="scale(0.015625)"/>
       <path id="DejaVuSans-20" transform="scale(0.015625)"/>
       <path id="DejaVuSans-6f" d="M 1959 3097 
Q 1497 3097 1228 2736 
Q 959 2375 959 1747 
Q 959 1119 1226 758 
Q 1494 397 1959 397 
Q 2419 397 2687 759 
Q 2956 1122 2956 1747 
Q 2956 2369 2687 2733 
Q 2419 3097 1959 3097 
z
M 1959 3584 
Q 2709 3584 3137 3096 
Q 3566 2609 3566 1747 
Q 3566 888 3137 398 
Q 2709 -91 1959 -91 
Q 1206 -91 779 398 
Q 353 888 353 1747 
Q 353 2609 779 3096 
Q 1206 3584 1959 3584 
z
" transform="scale(0.015625)"/>
       <path id="DejaVuSans-66" d="M 2375 4863 
L 2375 4384 
L 1825 4384 
Q 1516 4384 1395 4259 
Q 1275 4134 1275 3809 
L 1275 3500 
L 2222 3500 
L 2222 3053 
L 1275 3053 
L 1275 0 
L 697 0 
L 697 3053 
L 147 3053 
L 147 3500 
L 697 3500 
L 697 3744 
Q 697 4328 969 4595 
Q 1241 4863 1831 4863 
L 2375 4863 
z
" transform="scale(0.015625)"/>
       <path id="DejaVuSans-63" d="M 3122 3366 
L 3122 2828 
Q 2878 2963 2633 3030 
Q 2388 3097 2138 3097 
Q 1578 3097 1268 2742 
Q 959 2388 959 1747 
Q 959 1106 1268 751 
Q 1578 397 2138 397 
Q 2388 397 2633 464 
Q 2878 531 3122 666 
L 3122 134 
Q 2881 22 2623 -34 
Q 2366 -91 2075 -91 
Q 1284 -91 818 406 
Q 353 903 353 1747 
Q 353 2603 823 3093 
Q 1294 3584 2113 3584 
Q 2378 3584 2631 3529 
Q 2884 3475 3122 3366 
z
" transform="scale(0.015625)"/>
       <path id="DejaVuSans-73" d="M 2834 3397 
L 2834 2853 
Q 2591 2978 2328 3040 
Q 2066 3103 1784 3103 
Q 1356 3103 1142 2972 
Q 928 2841 928 2578 
Q 928 2378 1081 2264 
Q 1234 2150 1697 2047 
L 1894 2003 
Q 2506 1872 2764 1633 
Q 3022 1394 3022 966 
Q 3022 478 2636 193 
Q 2250 -91 1575 -91 
Q 1294 -91 989 -36 
Q 684 19 347 128 
L 347 722 
Q 666 556 975 473 
Q 1284 391 1588 391 
Q 1994 391 2212 530 
Q 2431 669 2431 922 
Q 2431 1156 2273 1281 
Q 2116 1406 1581 1522 
L 1381 1569 
Q 847 1681 609 1914 
Q 372 2147 372 2553 
Q 372 3047 722 3315 
Q 1072 3584 1716 3584 
Q 2034 3584 2315 3537 
Q 2597 3491 2834 3397 
z
" transform="scale(0.015625)"/>
      </defs>
      <use xlink:href="#DejaVuSans-4e"/>
      <use xlink:href="#DejaVuSans-75" x="74.804688"/>
      <use xlink:href="#DejaVuSans-6d" x="138.183594"/>
      <use xlink:href="#DejaVuSans-62" x="235.595703"/>
      <use xlink:href="#DejaVuSans-65" x="299.072266"/>
      <use xlink:href="#DejaVuSans-72" x="360.595703"/>
      <use xlink:href="#DejaVuSans-20" x="401.708984"/>
      <use xlink:href="#DejaVuSans-6f" x="433.496094"/>
      <use xlink:href="#DejaVuSans-66" x="494.677734"/>
      <use xlink:href="#DejaVuSans-20" x="529.882812"/>
      <use xlink:href="#DejaVuSans-63" x="561.669922"/>
      <use xlink:href="#DejaVuSans-6f" x="616.650391"/>
      <use xlink:href="#DejaVuSans-72" x="677.832031"/>
      <use xlink:href="#DejaVuSans-65" x="716.695312"/>
      <use xlink:href="#DejaVuSans-73" x="778.21875"/>
     </g>
    </g>
   </g>
   <g id="matplotlib.axis_2">
    <g id="ytick_1">
     <g id="line2d_13">
      <defs>
       <path id="m95cab3643e" d="M 0 0 
L -3.5 0 
" style="stroke: #000000; stroke-width: 0.8"/>
      </defs>
      <g>
       <use xlink:href="#m95cab3643e" x="46.965625" y="554.628846" style="stroke: #000000; stroke-width: 0.8"/>
      </g>
     </g>
     <g id="text_14">
      <!-- 100 -->
      <g transform="translate(20.878125 558.428064) scale(0.1 -0.1)">
       <use xlink:href="#DejaVuSans-31"/>
       <use xlink:href="#DejaVuSans-30" x="63.623047"/>
       <use xlink:href="#DejaVuSans-30" x="127.246094"/>
      </g>
     </g>
    </g>
    <g id="ytick_2">
     <g id="line2d_14">
      <g>
       <use xlink:href="#m95cab3643e" x="46.965625" y="457.143353" style="stroke: #000000; stroke-width: 0.8"/>
      </g>
     </g>
     <g id="text_15">
      <!-- 200 -->
      <g transform="translate(20.878125 460.942571) scale(0.1 -0.1)">
       <use xlink:href="#DejaVuSans-32"/>
       <use xlink:href="#DejaVuSans-30" x="63.623047"/>
       <use xlink:href="#DejaVuSans-30" x="127.246094"/>
      </g>
     </g>
    </g>
    <g id="ytick_3">
     <g id="line2d_15">
      <g>
       <use xlink:href="#m95cab3643e" x="46.965625" y="359.657859" style="stroke: #000000; stroke-width: 0.8"/>
      </g>
     </g>
     <g id="text_16">
      <!-- 300 -->
      <g transform="translate(20.878125 363.457078) scale(0.1 -0.1)">
       <use xlink:href="#DejaVuSans-33"/>
       <use xlink:href="#DejaVuSans-30" x="63.623047"/>
       <use xlink:href="#DejaVuSans-30" x="127.246094"/>
      </g>
     </g>
    </g>
    <g id="ytick_4">
     <g id="line2d_16">
      <g>
       <use xlink:href="#m95cab3643e" x="46.965625" y="262.172366" style="stroke: #000000; stroke-width: 0.8"/>
      </g>
     </g>
     <g id="text_17">
      <!-- 400 -->
      <g transform="translate(20.878125 265.971585) scale(0.1 -0.1)">
       <use xlink:href="#DejaVuSans-34"/>
       <use xlink:href="#DejaVuSans-30" x="63.623047"/>
       <use xlink:href="#DejaVuSans-30" x="127.246094"/>
      </g>
     </g>
    </g>
    <g id="ytick_5">
     <g id="line2d_17">
      <g>
       <use xlink:href="#m95cab3643e" x="46.965625" y="164.686873" style="stroke: #000000; stroke-width: 0.8"/>
      </g>
     </g>
     <g id="text_18">
      <!-- 500 -->
      <g transform="translate(20.878125 168.486092) scale(0.1 -0.1)">
       <use xlink:href="#DejaVuSans-35"/>
       <use xlink:href="#DejaVuSans-30" x="63.623047"/>
       <use xlink:href="#DejaVuSans-30" x="127.246094"/>
      </g>
     </g>
    </g>
    <g id="ytick_6">
     <g id="line2d_18">
      <g>
       <use xlink:href="#m95cab3643e" x="46.965625" y="67.20138" style="stroke: #000000; stroke-width: 0.8"/>
      </g>
     </g>
     <g id="text_19">
      <!-- 600 -->
      <g transform="translate(20.878125 71.000598) scale(0.1 -0.1)">
       <use xlink:href="#DejaVuSans-36"/>
       <use xlink:href="#DejaVuSans-30" x="63.623047"/>
       <use xlink:href="#DejaVuSans-30" x="127.246094"/>
      </g>
     </g>
    </g>
    <g id="text_20">
     <!-- Time [us] -->
     <g transform="translate(14.798438 336.849906) rotate(-90) scale(0.1 -0.1)">
      <defs>
       <path id="DejaVuSans-54" d="M -19 4666 
L 3928 4666 
L 3928 4134 
L 2272 4134 
L 2272 0 
L 1638 0 
L 1638 4134 
L -19 4134 
L -19 4666 
z
" transform="scale(0.015625)"/>
       <path id="DejaVuSans-69" d="M 603 3500 
L 1178 3500 
L 1178 0 
L 603 0 
L 603 3500 
z
M 603 4863 
L 1178 4863 
L 1178 4134 
L 603 4134 
L 603 4863 
z
" transform="scale(0.015625)"/>
       <path id="DejaVuSans-5b" d="M 550 4863 
L 1875 4863 
L 1875 4416 
L 1125 4416 
L 1125 -397 
L 1875 -397 
L 1875 -844 
L 550 -844 
L 550 4863 
z
" transform="scale(0.015625)"/>
       <path id="DejaVuSans-5d" d="M 1947 4863 
L 1947 -844 
L 622 -844 
L 622 -397 
L 1369 -397 
L 1369 4416 
L 622 4416 
L 622 4863 
L 1947 4863 
z
" transform="scale(0.015625)"/>
      </defs>
      <use xlink:href="#DejaVuSans-54"/>
      <use xlink:href="#DejaVuSans-69" x="57.958984"/>
      <use xlink:href="#DejaVuSans-6d" x="85.742188"/>
      <use xlink:href="#DejaVuSans-65" x="183.154297"/>
      <use xlink:href="#DejaVuSans-20" x="244.677734"/>
      <use xlink:href="#DejaVuSans-5b" x="276.464844"/>
      <use xlink:href="#DejaVuSans-75" x="315.478516"/>
      <use xlink:href="#DejaVuSans-73" x="378.857422"/>
      <use xlink:href="#DejaVuSans-5d" x="430.957031"/>
     </g>
    </g>
   </g>
   <g id="line2d_19">
    <path d="M 53.940625 150.064049 
L 109.740625 150.064049 
" clip-path="url(#p99944496a3)" style="fill: none; stroke: #3f3f3f; stroke-width: 0.9375"/>
   </g>
   <g id="line2d_20">
    <path d="M 123.690625 374.280683 
L 179.490625 374.280683 
" clip-path="url(#p99944496a3)" style="fill: none; stroke: #3f3f3f; stroke-width: 0.9375"/>
   </g>
   <g id="line2d_21">
    <path d="M 193.440625 451.294223 
L 249.240625 451.294223 
" clip-path="url(#p99944496a3)" style="fill: none; stroke: #3f3f3f; stroke-width: 0.9375"/>
   </g>
   <g id="line2d_22">
    <path d="M 263.190625 487.363855 
L 318.990625 487.363855 
" clip-path="url(#p99944496a3)" style="fill: none; stroke: #3f3f3f; stroke-width: 0.9375"/>
   </g>
   <g id="line2d_23">
    <path d="M 332.940625 511.735229 
L 388.740625 511.735229 
" clip-path="url(#p99944496a3)" style="fill: none; stroke: #3f3f3f; stroke-width: 0.9375"/>
   </g>
   <g id="line2d_24">
    <path d="M 402.690625 525.383198 
L 458.490625 525.383198 
" clip-path="url(#p99944496a3)" style="fill: none; stroke: #3f3f3f; stroke-width: 0.9375"/>
   </g>
   <g id="line2d_25">
    <path d="M 472.440625 537.081457 
L 528.240625 537.081457 
" clip-path="url(#p99944496a3)" style="fill: none; stroke: #3f3f3f; stroke-width: 0.9375"/>
   </g>
   <g id="line2d_26">
    <path d="M 542.190625 543.905441 
L 597.990625 543.905441 
" clip-path="url(#p99944496a3)" style="fill: none; stroke: #3f3f3f; stroke-width: 0.9375"/>
   </g>
   <g id="line2d_27">
    <path d="M 611.940625 550.729426 
L 667.740625 550.729426 
" clip-path="url(#p99944496a3)" style="fill: none; stroke: #3f3f3f; stroke-width: 0.9375"/>
   </g>
   <g id="line2d_28">
    <path d="M 681.690625 556.578556 
L 737.490625 556.578556 
" clip-path="url(#p99944496a3)" style="fill: none; stroke: #3f3f3f; stroke-width: 0.9375"/>
   </g>
   <g id="line2d_29">
    <path d="M 751.440625 560.477975 
L 807.240625 560.477975 
" clip-path="url(#p99944496a3)" style="fill: none; stroke: #3f3f3f; stroke-width: 0.9375"/>
   </g>
   <g id="line2d_30">
    <path d="M 821.190625 563.40254 
L 876.990625 563.40254 
" clip-path="url(#p99944496a3)" style="fill: none; stroke: #3f3f3f; stroke-width: 0.9375"/>
   </g>
   <g id="line2d_31">
    <path d="M 46.965625 150.064049 
L 883.965625 150.064049 
" clip-path="url(#p99944496a3)" style="fill: none; stroke-dasharray: 5.55,2.4; stroke-dashoffset: 0; stroke: #000000; stroke-width: 1.5"/>
   </g>
   <g id="patch_4">
    <path d="M 46.965625 590.55225 
L 46.965625 36.15225 
" style="fill: none; stroke: #000000; stroke-width: 0.8; stroke-linejoin: miter; stroke-linecap: square"/>
   </g>
   <g id="patch_5">
    <path d="M 883.965625 590.55225 
L 883.965625 36.15225 
" style="fill: none; stroke: #000000; stroke-width: 0.8; stroke-linejoin: miter; stroke-linecap: square"/>
   </g>
   <g id="patch_6">
    <path d="M 46.965625 590.55225 
L 883.965625 590.55225 
" style="fill: none; stroke: #000000; stroke-width: 0.8; stroke-linejoin: miter; stroke-linecap: square"/>
   </g>
   <g id="patch_7">
    <path d="M 46.965625 36.15225 
L 883.965625 36.15225 
" style="fill: none; stroke: #000000; stroke-width: 0.8; stroke-linejoin: miter; stroke-linecap: square"/>
   </g>
   <g id="text_21">
    <!-- std::vector&lt;Matrix&gt; (raw) vs std::vector&lt;std::shared_ptr&lt;Matrix&gt;&gt; (pointer) -->
    <g transform="translate(231.220938 16.318125) scale(0.12 -0.12)">
     <defs>
      <path id="DejaVuSans-74" d="M 1172 4494 
L 1172 3500 
L 2356 3500 
L 2356 3053 
L 1172 3053 
L 1172 1153 
Q 1172 725 1289 603 
Q 1406 481 1766 481 
L 2356 481 
L 2356 0 
L 1766 0 
Q 1100 0 847 248 
Q 594 497 594 1153 
L 594 3053 
L 172 3053 
L 172 3500 
L 594 3500 
L 594 4494 
L 1172 4494 
z
" transform="scale(0.015625)"/>
      <path id="DejaVuSans-64" d="M 2906 2969 
L 2906 4863 
L 3481 4863 
L 3481 0 
L 2906 0 
L 2906 525 
Q 2725 213 2448 61 
Q 2172 -91 1784 -91 
Q 1150 -91 751 415 
Q 353 922 353 1747 
Q 353 2572 751 3078 
Q 1150 3584 1784 3584 
Q 2172 3584 2448 3432 
Q 2725 3281 2906 2969 
z
M 947 1747 
Q 947 1113 1208 752 
Q 1469 391 1925 391 
Q 2381 391 2643 752 
Q 2906 1113 2906 1747 
Q 2906 2381 2643 2742 
Q 2381 3103 1925 3103 
Q 1469 3103 1208 2742 
Q 947 2381 947 1747 
z
" transform="scale(0.015625)"/>
      <path id="DejaVuSans-3a" d="M 750 794 
L 1409 794 
L 1409 0 
L 750 0 
L 750 794 
z
M 750 3309 
L 1409 3309 
L 1409 2516 
L 750 2516 
L 750 3309 
z
" transform="scale(0.015625)"/>
      <path id="DejaVuSans-76" d="M 191 3500 
L 800 3500 
L 1894 563 
L 2988 3500 
L 3597 3500 
L 2284 0 
L 1503 0 
L 191 3500 
z
" transform="scale(0.015625)"/>
      <path id="DejaVuSans-3c" d="M 4684 3150 
L 1459 2003 
L 4684 863 
L 4684 294 
L 678 1747 
L 678 2266 
L 4684 3719 
L 4684 3150 
z
" transform="scale(0.015625)"/>
      <path id="DejaVuSans-4d" d="M 628 4666 
L 1569 4666 
L 2759 1491 
L 3956 4666 
L 4897 4666 
L 4897 0 
L 4281 0 
L 4281 4097 
L 3078 897 
L 2444 897 
L 1241 4097 
L 1241 0 
L 628 0 
L 628 4666 
z
" transform="scale(0.015625)"/>
      <path id="DejaVuSans-61" d="M 2194 1759 
Q 1497 1759 1228 1600 
Q 959 1441 959 1056 
Q 959 750 1161 570 
Q 1363 391 1709 391 
Q 2188 391 2477 730 
Q 2766 1069 2766 1631 
L 2766 1759 
L 2194 1759 
z
M 3341 1997 
L 3341 0 
L 2766 0 
L 2766 531 
Q 2569 213 2275 61 
Q 1981 -91 1556 -91 
Q 1019 -91 701 211 
Q 384 513 384 1019 
Q 384 1609 779 1909 
Q 1175 2209 1959 2209 
L 2766 2209 
L 2766 2266 
Q 2766 2663 2505 2880 
Q 2244 3097 1772 3097 
Q 1472 3097 1187 3025 
Q 903 2953 641 2809 
L 641 3341 
Q 956 3463 1253 3523 
Q 1550 3584 1831 3584 
Q 2591 3584 2966 3190 
Q 3341 2797 3341 1997 
z
" transform="scale(0.015625)"/>
      <path id="DejaVuSans-78" d="M 3513 3500 
L 2247 1797 
L 3578 0 
L 2900 0 
L 1881 1375 
L 863 0 
L 184 0 
L 1544 1831 
L 300 3500 
L 978 3500 
L 1906 2253 
L 2834 3500 
L 3513 3500 
z
" transform="scale(0.015625)"/>
      <path id="DejaVuSans-3e" d="M 678 3150 
L 678 3719 
L 4684 2266 
L 4684 1747 
L 678 294 
L 678 863 
L 3897 2003 
L 678 3150 
z
" transform="scale(0.015625)"/>
      <path id="DejaVuSans-28" d="M 1984 4856 
Q 1566 4138 1362 3434 
Q 1159 2731 1159 2009 
Q 1159 1288 1364 580 
Q 1569 -128 1984 -844 
L 1484 -844 
Q 1016 -109 783 600 
Q 550 1309 550 2009 
Q 550 2706 781 3412 
Q 1013 4119 1484 4856 
L 1984 4856 
z
" transform="scale(0.015625)"/>
      <path id="DejaVuSans-77" d="M 269 3500 
L 844 3500 
L 1563 769 
L 2278 3500 
L 2956 3500 
L 3675 769 
L 4391 3500 
L 4966 3500 
L 4050 0 
L 3372 0 
L 2619 2869 
L 1863 0 
L 1184 0 
L 269 3500 
z
" transform="scale(0.015625)"/>
      <path id="DejaVuSans-29" d="M 513 4856 
L 1013 4856 
Q 1481 4119 1714 3412 
Q 1947 2706 1947 2009 
Q 1947 1309 1714 600 
Q 1481 -109 1013 -844 
L 513 -844 
Q 928 -128 1133 580 
Q 1338 1288 1338 2009 
Q 1338 2731 1133 3434 
Q 928 4138 513 4856 
z
" transform="scale(0.015625)"/>
      <path id="DejaVuSans-68" d="M 3513 2113 
L 3513 0 
L 2938 0 
L 2938 2094 
Q 2938 2591 2744 2837 
Q 2550 3084 2163 3084 
Q 1697 3084 1428 2787 
Q 1159 2491 1159 1978 
L 1159 0 
L 581 0 
L 581 4863 
L 1159 4863 
L 1159 2956 
Q 1366 3272 1645 3428 
Q 1925 3584 2291 3584 
Q 2894 3584 3203 3211 
Q 3513 2838 3513 2113 
z
" transform="scale(0.015625)"/>
      <path id="DejaVuSans-5f" d="M 3263 -1063 
L 3263 -1509 
L -63 -1509 
L -63 -1063 
L 3263 -1063 
z
" transform="scale(0.015625)"/>
      <path id="DejaVuSans-70" d="M 1159 525 
L 1159 -1331 
L 581 -1331 
L 581 3500 
L 1159 3500 
L 1159 2969 
Q 1341 3281 1617 3432 
Q 1894 3584 2278 3584 
Q 2916 3584 3314 3078 
Q 3713 2572 3713 1747 
Q 3713 922 3314 415 
Q 2916 -91 2278 -91 
Q 1894 -91 1617 61 
Q 1341 213 1159 525 
z
M 3116 1747 
Q 3116 2381 2855 2742 
Q 2594 3103 2138 3103 
Q 1681 3103 1420 2742 
Q 1159 2381 1159 1747 
Q 1159 1113 1420 752 
Q 1681 391 2138 391 
Q 2594 391 2855 752 
Q 3116 1113 3116 1747 
z
" transform="scale(0.015625)"/>
      <path id="DejaVuSans-6e" d="M 3513 2113 
L 3513 0 
L 2938 0 
L 2938 2094 
Q 2938 2591 2744 2837 
Q 2550 3084 2163 3084 
Q 1697 3084 1428 2787 
Q 1159 2491 1159 1978 
L 1159 0 
L 581 0 
L 581 3500 
L 1159 3500 
L 1159 2956 
Q 1366 3272 1645 3428 
Q 1925 3584 2291 3584 
Q 2894 3584 3203 3211 
Q 3513 2838 3513 2113 
z
" transform="scale(0.015625)"/>
     </defs>
     <use xlink:href="#DejaVuSans-73"/>
     <use xlink:href="#DejaVuSans-74" x="52.099609"/>
     <use xlink:href="#DejaVuSans-64" x="91.308594"/>
     <use xlink:href="#DejaVuSans-3a" x="154.785156"/>
     <use xlink:href="#DejaVuSans-3a" x="188.476562"/>
     <use xlink:href="#DejaVuSans-76" x="222.167969"/>
     <use xlink:href="#DejaVuSans-65" x="281.347656"/>
     <use xlink:href="#DejaVuSans-63" x="342.871094"/>
     <use xlink:href="#DejaVuSans-74" x="397.851562"/>
     <use xlink:href="#DejaVuSans-6f" x="437.060547"/>
     <use xlink:href="#DejaVuSans-72" x="498.242188"/>
     <use xlink:href="#DejaVuSans-3c" x="539.355469"/>
     <use xlink:href="#DejaVuSans-4d" x="623.144531"/>
     <use xlink:href="#DejaVuSans-61" x="709.423828"/>
     <use xlink:href="#DejaVuSans-74" x="770.703125"/>
     <use xlink:href="#DejaVuSans-72" x="809.912109"/>
     <use xlink:href="#DejaVuSans-69" x="851.025391"/>
     <use xlink:href="#DejaVuSans-78" x="878.808594"/>
     <use xlink:href="#DejaVuSans-3e" x="937.988281"/>
     <use xlink:href="#DejaVuSans-20" x="1021.777344"/>
     <use xlink:href="#DejaVuSans-28" x="1053.564453"/>
     <use xlink:href="#DejaVuSans-72" x="1092.578125"/>
     <use xlink:href="#DejaVuSans-61" x="1133.691406"/>
     <use xlink:href="#DejaVuSans-77" x="1194.970703"/>
     <use xlink:href="#DejaVuSans-29" x="1276.757812"/>
     <use xlink:href="#DejaVuSans-20" x="1315.771484"/>
     <use xlink:href="#DejaVuSans-76" x="1347.558594"/>
     <use xlink:href="#DejaVuSans-73" x="1406.738281"/>
     <use xlink:href="#DejaVuSans-20" x="1458.837891"/>
     <use xlink:href="#DejaVuSans-73" x="1490.625"/>
     <use xlink:href="#DejaVuSans-74" x="1542.724609"/>
     <use xlink:href="#DejaVuSans-64" x="1581.933594"/>
     <use xlink:href="#DejaVuSans-3a" x="1645.410156"/>
     <use xlink:href="#DejaVuSans-3a" x="1679.101562"/>
     <use xlink:href="#DejaVuSans-76" x="1712.792969"/>
     <use xlink:href="#DejaVuSans-65" x="1771.972656"/>
     <use xlink:href="#DejaVuSans-63" x="1833.496094"/>
     <use xlink:href="#DejaVuSans-74" x="1888.476562"/>
     <use xlink:href="#DejaVuSans-6f" x="1927.685547"/>
     <use xlink:href="#DejaVuSans-72" x="1988.867188"/>
     <use xlink:href="#DejaVuSans-3c" x="2029.980469"/>
     <use xlink:href="#DejaVuSans-73" x="2113.769531"/>
     <use xlink:href="#DejaVuSans-74" x="2165.869141"/>
     <use xlink:href="#DejaVuSans-64" x="2205.078125"/>
     <use xlink:href="#DejaVuSans-3a" x="2268.554688"/>
     <use xlink:href="#DejaVuSans-3a" x="2302.246094"/>
     <use xlink:href="#DejaVuSans-73" x="2335.9375"/>
     <use xlink:href="#DejaVuSans-68" x="2388.037109"/>
     <use xlink:href="#DejaVuSans-61" x="2451.416016"/>
     <use xlink:href="#DejaVuSans-72" x="2512.695312"/>
     <use xlink:href="#DejaVuSans-65" x="2551.558594"/>
     <use xlink:href="#DejaVuSans-64" x="2613.082031"/>
     <use xlink:href="#DejaVuSans-5f" x="2676.558594"/>
     <use xlink:href="#DejaVuSans-70" x="2726.558594"/>
     <use xlink:href="#DejaVuSans-74" x="2790.035156"/>
     <use xlink:href="#DejaVuSans-72" x="2829.244141"/>
     <use xlink:href="#DejaVuSans-3c" x="2870.357422"/>
     <use xlink:href="#DejaVuSans-4d" x="2954.146484"/>
     <use xlink:href="#DejaVuSans-61" x="3040.425781"/>
     <use xlink:href="#DejaVuSans-74" x="3101.705078"/>
     <use xlink:href="#DejaVuSans-72" x="3140.914062"/>
     <use xlink:href="#DejaVuSans-69" x="3182.027344"/>
     <use xlink:href="#DejaVuSans-78" x="3209.810547"/>
     <use xlink:href="#DejaVuSans-3e" x="3268.990234"/>
     <use xlink:href="#DejaVuSans-3e" x="3352.779297"/>
     <use xlink:href="#DejaVuSans-20" x="3436.568359"/>
     <use xlink:href="#DejaVuSans-28" x="3468.355469"/>
     <use xlink:href="#DejaVuSans-70" x="3507.369141"/>
     <use xlink:href="#DejaVuSans-6f" x="3570.845703"/>
     <use xlink:href="#DejaVuSans-69" x="3632.027344"/>
     <use xlink:href="#DejaVuSans-6e" x="3659.810547"/>
     <use xlink:href="#DejaVuSans-74" x="3723.189453"/>
     <use xlink:href="#DejaVuSans-65" x="3762.398438"/>
     <use xlink:href="#DejaVuSans-72" x="3823.921875"/>
     <use xlink:href="#DejaVuSans-29" x="3865.035156"/>
    </g>
    <!-- miyanoura | AMD Ryzen 9 5950X 16-Core Processor -->
    <g transform="translate(310.225 30.15225) scale(0.12 -0.12)">
     <defs>
      <path id="DejaVuSans-79" d="M 2059 -325 
Q 1816 -950 1584 -1140 
Q 1353 -1331 966 -1331 
L 506 -1331 
L 506 -850 
L 844 -850 
Q 1081 -850 1212 -737 
Q 1344 -625 1503 -206 
L 1606 56 
L 191 3500 
L 800 3500 
L 1894 763 
L 2988 3500 
L 3597 3500 
L 2059 -325 
z
" transform="scale(0.015625)"/>
      <path id="DejaVuSans-7c" d="M 1344 4891 
L 1344 -1509 
L 813 -1509 
L 813 4891 
L 1344 4891 
z
" transform="scale(0.015625)"/>
      <path id="DejaVuSans-41" d="M 2188 4044 
L 1331 1722 
L 3047 1722 
L 2188 4044 
z
M 1831 4666 
L 2547 4666 
L 4325 0 
L 3669 0 
L 3244 1197 
L 1141 1197 
L 716 0 
L 50 0 
L 1831 4666 
z
" transform="scale(0.015625)"/>
      <path id="DejaVuSans-44" d="M 1259 4147 
L 1259 519 
L 2022 519 
Q 2988 519 3436 956 
Q 3884 1394 3884 2338 
Q 3884 3275 3436 3711 
Q 2988 4147 2022 4147 
L 1259 4147 
z
M 628 4666 
L 1925 4666 
Q 3281 4666 3915 4102 
Q 4550 3538 4550 2338 
Q 4550 1131 3912 565 
Q 3275 0 1925 0 
L 628 0 
L 628 4666 
z
" transform="scale(0.015625)"/>
      <path id="DejaVuSans-52" d="M 2841 2188 
Q 3044 2119 3236 1894 
Q 3428 1669 3622 1275 
L 4263 0 
L 3584 0 
L 2988 1197 
Q 2756 1666 2539 1819 
Q 2322 1972 1947 1972 
L 1259 1972 
L 1259 0 
L 628 0 
L 628 4666 
L 2053 4666 
Q 2853 4666 3247 4331 
Q 3641 3997 3641 3322 
Q 3641 2881 3436 2590 
Q 3231 2300 2841 2188 
z
M 1259 4147 
L 1259 2491 
L 2053 2491 
Q 2509 2491 2742 2702 
Q 2975 2913 2975 3322 
Q 2975 3731 2742 3939 
Q 2509 4147 2053 4147 
L 1259 4147 
z
" transform="scale(0.015625)"/>
      <path id="DejaVuSans-7a" d="M 353 3500 
L 3084 3500 
L 3084 2975 
L 922 459 
L 3084 459 
L 3084 0 
L 275 0 
L 275 525 
L 2438 3041 
L 353 3041 
L 353 3500 
z
" transform="scale(0.015625)"/>
      <path id="DejaVuSans-58" d="M 403 4666 
L 1081 4666 
L 2241 2931 
L 3406 4666 
L 4084 4666 
L 2584 2425 
L 4184 0 
L 3506 0 
L 2194 1984 
L 872 0 
L 191 0 
L 1856 2491 
L 403 4666 
z
" transform="scale(0.015625)"/>
      <path id="DejaVuSans-2d" d="M 313 2009 
L 1997 2009 
L 1997 1497 
L 313 1497 
L 313 2009 
z
" transform="scale(0.015625)"/>
      <path id="DejaVuSans-43" d="M 4122 4306 
L 4122 3641 
Q 3803 3938 3442 4084 
Q 3081 4231 2675 4231 
Q 1875 4231 1450 3742 
Q 1025 3253 1025 2328 
Q 1025 1406 1450 917 
Q 1875 428 2675 428 
Q 3081 428 3442 575 
Q 3803 722 4122 1019 
L 4122 359 
Q 3791 134 3420 21 
Q 3050 -91 2638 -91 
Q 1578 -91 968 557 
Q 359 1206 359 2328 
Q 359 3453 968 4101 
Q 1578 4750 2638 4750 
Q 3056 4750 3426 4639 
Q 3797 4528 4122 4306 
z
" transform="scale(0.015625)"/>
      <path id="DejaVuSans-50" d="M 1259 4147 
L 1259 2394 
L 2053 2394 
Q 2494 2394 2734 2622 
Q 2975 2850 2975 3272 
Q 2975 3691 2734 3919 
Q 2494 4147 2053 4147 
L 1259 4147 
z
M 628 4666 
L 2053 4666 
Q 2838 4666 3239 4311 
Q 3641 3956 3641 3272 
Q 3641 2581 3239 2228 
Q 2838 1875 2053 1875 
L 1259 1875 
L 1259 0 
L 628 0 
L 628 4666 
z
" transform="scale(0.015625)"/>
     </defs>
     <use xlink:href="#DejaVuSans-6d"/>
     <use xlink:href="#DejaVuSans-69" x="97.412109"/>
     <use xlink:href="#DejaVuSans-79" x="125.195312"/>
     <use xlink:href="#DejaVuSans-61" x="184.375"/>
     <use xlink:href="#DejaVuSans-6e" x="245.654297"/>
     <use xlink:href="#DejaVuSans-6f" x="309.033203"/>
     <use xlink:href="#DejaVuSans-75" x="370.214844"/>
     <use xlink:href="#DejaVuSans-72" x="433.59375"/>
     <use xlink:href="#DejaVuSans-61" x="474.707031"/>
     <use xlink:href="#DejaVuSans-20" x="535.986328"/>
     <use xlink:href="#DejaVuSans-7c" x="567.773438"/>
     <use xlink:href="#DejaVuSans-20" x="601.464844"/>
     <use xlink:href="#DejaVuSans-41" x="633.251953"/>
     <use xlink:href="#DejaVuSans-4d" x="701.660156"/>
     <use xlink:href="#DejaVuSans-44" x="787.939453"/>
     <use xlink:href="#DejaVuSans-20" x="864.941406"/>
     <use xlink:href="#DejaVuSans-52" x="896.728516"/>
     <use xlink:href="#DejaVuSans-79" x="960.710938"/>
     <use xlink:href="#DejaVuSans-7a" x="1019.890625"/>
     <use xlink:href="#DejaVuSans-65" x="1072.380859"/>
     <use xlink:href="#DejaVuSans-6e" x="1133.904297"/>
     <use xlink:href="#DejaVuSans-20" x="1197.283203"/>
     <use xlink:href="#DejaVuSans-39" x="1229.070312"/>
     <use xlink:href="#DejaVuSans-20" x="1292.693359"/>
     <use xlink:href="#DejaVuSans-35" x="1324.480469"/>
     <use xlink:href="#DejaVuSans-39" x="1388.103516"/>
     <use xlink:href="#DejaVuSans-35" x="1451.726562"/>
     <use xlink:href="#DejaVuSans-30" x="1515.349609"/>
     <use xlink:href="#DejaVuSans-58" x="1578.972656"/>
     <use xlink:href="#DejaVuSans-20" x="1647.478516"/>
     <use xlink:href="#DejaVuSans-31" x="1679.265625"/>
     <use xlink:href="#DejaVuSans-36" x="1742.888672"/>
     <use xlink:href="#DejaVuSans-2d" x="1806.511719"/>
     <use xlink:href="#DejaVuSans-43" x="1842.595703"/>
     <use xlink:href="#DejaVuSans-6f" x="1912.419922"/>
     <use xlink:href="#DejaVuSans-72" x="1973.601562"/>
     <use xlink:href="#DejaVuSans-65" x="2012.464844"/>
     <use xlink:href="#DejaVuSans-20" x="2073.988281"/>
     <use xlink:href="#DejaVuSans-50" x="2105.775391"/>
     <use xlink:href="#DejaVuSans-72" x="2164.328125"/>
     <use xlink:href="#DejaVuSans-6f" x="2203.191406"/>
     <use xlink:href="#DejaVuSans-63" x="2264.373047"/>
     <use xlink:href="#DejaVuSans-65" x="2319.353516"/>
     <use xlink:href="#DejaVuSans-73" x="2380.876953"/>
     <use xlink:href="#DejaVuSans-73" x="2432.976562"/>
     <use xlink:href="#DejaVuSans-6f" x="2485.076172"/>
     <use xlink:href="#DejaVuSans-72" x="2546.257812"/>
    </g>
   </g>
   <g id="legend_1">
    <g id="patch_8">
     <path d="M 722.953125 73.5085 
L 876.965625 73.5085 
Q 878.965625 73.5085 878.965625 71.5085 
L 878.965625 43.15225 
Q 878.965625 41.15225 876.965625 41.15225 
L 722.953125 41.15225 
Q 720.953125 41.15225 720.953125 43.15225 
L 720.953125 71.5085 
Q 720.953125 73.5085 722.953125 73.5085 
z
" style="fill: #ffffff; opacity: 0.8; stroke: #cccccc; stroke-linejoin: miter"/>
    </g>
    <g id="patch_9">
     <path d="M 724.953125 52.750688 
L 744.953125 52.750688 
L 744.953125 45.750688 
L 724.953125 45.750688 
z
" style="fill: #3274a1; stroke: #3f3f3f; stroke-width: 0.75; stroke-linejoin: miter"/>
    </g>
    <g id="text_22">
     <!-- raw -->
     <g transform="translate(752.953125 52.750688) scale(0.1 -0.1)">
      <use xlink:href="#DejaVuSans-72"/>
      <use xlink:href="#DejaVuSans-61" x="41.113281"/>
      <use xlink:href="#DejaVuSans-77" x="102.392578"/>
     </g>
    </g>
    <g id="line2d_32">
     <path d="M 724.953125 63.928813 
L 734.953125 63.928813 
L 744.953125 63.928813 
" style="fill: none; stroke-dasharray: 5.55,2.4; stroke-dashoffset: 0; stroke: #000000; stroke-width: 1.5"/>
    </g>
    <g id="text_23">
     <!-- Single core median time -->
     <g transform="translate(752.953125 67.428813) scale(0.1 -0.1)">
      <defs>
       <path id="DejaVuSans-53" d="M 3425 4513 
L 3425 3897 
Q 3066 4069 2747 4153 
Q 2428 4238 2131 4238 
Q 1616 4238 1336 4038 
Q 1056 3838 1056 3469 
Q 1056 3159 1242 3001 
Q 1428 2844 1947 2747 
L 2328 2669 
Q 3034 2534 3370 2195 
Q 3706 1856 3706 1288 
Q 3706 609 3251 259 
Q 2797 -91 1919 -91 
Q 1588 -91 1214 -16 
Q 841 59 441 206 
L 441 856 
Q 825 641 1194 531 
Q 1563 422 1919 422 
Q 2459 422 2753 634 
Q 3047 847 3047 1241 
Q 3047 1584 2836 1778 
Q 2625 1972 2144 2069 
L 1759 2144 
Q 1053 2284 737 2584 
Q 422 2884 422 3419 
Q 422 4038 858 4394 
Q 1294 4750 2059 4750 
Q 2388 4750 2728 4690 
Q 3069 4631 3425 4513 
z
" transform="scale(0.015625)"/>
       <path id="DejaVuSans-67" d="M 2906 1791 
Q 2906 2416 2648 2759 
Q 2391 3103 1925 3103 
Q 1463 3103 1205 2759 
Q 947 2416 947 1791 
Q 947 1169 1205 825 
Q 1463 481 1925 481 
Q 2391 481 2648 825 
Q 2906 1169 2906 1791 
z
M 3481 434 
Q 3481 -459 3084 -895 
Q 2688 -1331 1869 -1331 
Q 1566 -1331 1297 -1286 
Q 1028 -1241 775 -1147 
L 775 -588 
Q 1028 -725 1275 -790 
Q 1522 -856 1778 -856 
Q 2344 -856 2625 -561 
Q 2906 -266 2906 331 
L 2906 616 
Q 2728 306 2450 153 
Q 2172 0 1784 0 
Q 1141 0 747 490 
Q 353 981 353 1791 
Q 353 2603 747 3093 
Q 1141 3584 1784 3584 
Q 2172 3584 2450 3431 
Q 2728 3278 2906 2969 
L 2906 3500 
L 3481 3500 
L 3481 434 
z
" transform="scale(0.015625)"/>
       <path id="DejaVuSans-6c" d="M 603 4863 
L 1178 4863 
L 1178 0 
L 603 0 
L 603 4863 
z
" transform="scale(0.015625)"/>
      </defs>
      <use xlink:href="#DejaVuSans-53"/>
      <use xlink:href="#DejaVuSans-69" x="63.476562"/>
      <use xlink:href="#DejaVuSans-6e" x="91.259766"/>
      <use xlink:href="#DejaVuSans-67" x="154.638672"/>
      <use xlink:href="#DejaVuSans-6c" x="218.115234"/>
      <use xlink:href="#DejaVuSans-65" x="245.898438"/>
      <use xlink:href="#DejaVuSans-20" x="307.421875"/>
      <use xlink:href="#DejaVuSans-63" x="339.208984"/>
      <use xlink:href="#DejaVuSans-6f" x="394.189453"/>
      <use xlink:href="#DejaVuSans-72" x="455.371094"/>
      <use xlink:href="#DejaVuSans-65" x="494.234375"/>
      <use xlink:href="#DejaVuSans-20" x="555.757812"/>
      <use xlink:href="#DejaVuSans-6d" x="587.544922"/>
      <use xlink:href="#DejaVuSans-65" x="684.957031"/>
      <use xlink:href="#DejaVuSans-64" x="746.480469"/>
      <use xlink:href="#DejaVuSans-69" x="809.957031"/>
      <use xlink:href="#DejaVuSans-61" x="837.740234"/>
      <use xlink:href="#DejaVuSans-6e" x="899.019531"/>
      <use xlink:href="#DejaVuSans-20" x="962.398438"/>
      <use xlink:href="#DejaVuSans-74" x="994.185547"/>
      <use xlink:href="#DejaVuSans-69" x="1033.394531"/>
      <use xlink:href="#DejaVuSans-6d" x="1061.177734"/>
      <use xlink:href="#DejaVuSans-65" x="1158.589844"/>
     </g>
    </g>
   </g>
  </g>
 </g>
 <defs>
  <clipPath id="p99944496a3">
   <rect x="46.965625" y="36.15225" width="837" height="554.4"/>
  </clipPath>
 </defs>
</svg>
